<ttFont>
<head>
    <!-- Most of this table will be recalculated by the compiler -->
    <tableVersion value="1.0"/>
    <fontRevision value="1.00299"/>
    <checkSumAdjustment value="0x39681d53"/>
    <magicNumber value="0x5f0f3cf5"/>
    <flags value="00000000 00000111"/>
    <unitsPerEm value="1000"/>
    <created value="Mon Jan 13 10:27:34 2014"/>
    <modified value="Mon Sep  3 11:56:20 2018"/>
    <xMin value="-137"/>
    <yMin value="-179"/>
    <xMax value="1000"/>
    <yMax value="894"/>
    <macStyle value="00000000 00000001"/>
    <lowestRecPPEM value="7"/>
    <fontDirectionHint value="2"/>
    <indexToLocFormat value="0"/>
    <glyphDataFormat value="0"/>
  </head>
    <TTGlyph name=".notdef" xMin="50" yMin="0" xMax="498" yMax="700">
      <contour>
        <pt x="498" y="700" on="1"/>
        <pt x="498" y="0" on="1"/>
        <pt x="50" y="0" on="1"/>
        <pt x="50" y="700" on="1"/>
      </contour>
      <contour>
        <pt x="275" y="420" on="1"/>
        <pt x="212" y="615" on="1"/>
        <pt x="126" y="615" on="1"/>
        <pt x="213" y="357" on="1"/>
        <pt x="120" y="85" on="1"/>
        <pt x="197" y="85" on="1"/>
        <pt x="266" y="295" on="1"/>
        <pt x="334" y="85" on="1"/>
        <pt x="422" y="85" on="1"/>
        <pt x="329" y="357" on="1"/>
        <pt x="416" y="615" on="1"/>
        <pt x="339" y="615" on="1"/>
      </contour>
    </TTGlyph>
    <TTGlyph name="A" xMin="11" yMin="0" xMax="396" yMax="700">
      <contour>
        <pt x="285" y="0" on="1"/>
        <pt x="266" y="127" on="1"/>
        <pt x="131" y="127" on="1"/>
        <pt x="112" y="0" on="1"/>
        <pt x="11" y="0" on="1"/>
        <pt x="123" y="700" on="1"/>
        <pt x="284" y="700" on="1"/>
        <pt x="396" y="0" on="1"/>
      </contour>
      <contour>
        <pt x="251" y="222" on="1"/>
        <pt x="198" y="576" on="1"/>
        <pt x="145" y="222" on="1"/>
      </contour>
    </TTGlyph>
    <TTGlyph name="AE" xMin="4" yMin="0" xMax="552" yMax="700">
      <contour>
        <pt x="141" y="127" on="1"/>
        <pt x="109" y="0" on="1"/>
        <pt x="4" y="0" on="1"/>
        <pt x="191" y="700" on="1"/>
        <pt x="552" y="700" on="1"/>
        <pt x="552" y="600" on="1"/>
        <pt x="362" y="600" on="1"/>
        <pt x="362" y="405" on="1"/>
        <pt x="513" y="405" on="1"/>
        <pt x="513" y="305" on="1"/>
        <pt x="362" y="305" on="1"/>
        <pt x="362" y="100" on="1"/>
        <pt x="552" y="100" on="1"/>
        <pt x="552" y="0" on="1"/>
        <pt x="252" y="0" on="1"/>
        <pt x="252" y="127" on="1"/>
      </contour>
      <contour>
        <pt x="252" y="559" on="1"/>
        <pt x="166" y="222" on="1"/>
        <pt x="252" y="222" on="1"/>
      </contour>
    </TTGlyph>
    <TTGlyph name="AEacute" xMin="4" yMin="0" xMax="552" yMax="848">
      <contour>
        <pt x="306" y="737" on="1"/>
        <pt x="232" y="737" on="1"/>
        <pt x="300" y="848" on="1"/>
        <pt x="408" y="848" on="1"/>
      </contour>
      <contour>
        <pt x="141" y="127" on="1"/>
        <pt x="109" y="0" on="1"/>
        <pt x="4" y="0" on="1"/>
        <pt x="191" y="700" on="1"/>
        <pt x="552" y="700" on="1"/>
        <pt x="552" y="600" on="1"/>
        <pt x="362" y="600" on="1"/>
        <pt x="362" y="405" on="1"/>
        <pt x="513" y="405" on="1"/>
        <pt x="513" y="305" on="1"/>
        <pt x="362" y="305" on="1"/>
        <pt x="362" y="100" on="1"/>
        <pt x="552" y="100" on="1"/>
        <pt x="552" y="0" on="1"/>
        <pt x="252" y="0" on="1"/>
        <pt x="252" y="127" on="1"/>
      </contour>
      <contour>
        <pt x="252" y="559" on="1"/>
        <pt x="166" y="222" on="1"/>
        <pt x="252" y="222" on="1"/>
      </contour>
    </TTGlyph>
    <TTGlyph name="Aacute" xMin="11" yMin="0" xMax="396" yMax="848">
      <contour>
        <pt x="219" y="737" on="1"/>
        <pt x="145" y="737" on="1"/>
        <pt x="213" y="848" on="1"/>
        <pt x="321" y="848" on="1"/>
      </contour>
      <contour>
        <pt x="285" y="0" on="1"/>
        <pt x="266" y="127" on="1"/>
        <pt x="131" y="127" on="1"/>
        <pt x="112" y="0" on="1"/>
        <pt x="11" y="0" on="1"/>
        <pt x="123" y="700" on="1"/>
        <pt x="284" y="700" on="1"/>
        <pt x="396" y="0" on="1"/>
      </contour>
      <contour>
        <pt x="251" y="222" on="1"/>
        <pt x="198" y="576" on="1"/>
        <pt x="145" y="222" on="1"/>
      </contour>
    </TTGlyph>
    <TTGlyph name="Abreve" xMin="11" yMin="0" xMax="396" yMax="848">
      <contour>
        <pt x="315" y="848" on="1"/>
        <pt x="315" y="794" on="0"/>
        <pt x="257" y="733" on="0"/>
        <pt x="202" y="733" on="1"/>
        <pt x="147" y="733" on="0"/>
        <pt x="92" y="794" on="0"/>
        <pt x="91" y="848" on="1"/>
        <pt x="156" y="848" on="1"/>
        <pt x="158" y="821" on="0"/>
        <pt x="180" y="801" on="0"/>
        <pt x="202" y="801" on="1"/>
        <pt x="225" y="801" on="0"/>
        <pt x="248" y="821" on="0"/>
        <pt x="250" y="848" on="1"/>
      </contour>
      <contour>
        <pt x="285" y="0" on="1"/>
        <pt x="266" y="127" on="1"/>
        <pt x="131" y="127" on="1"/>
        <pt x="112" y="0" on="1"/>
        <pt x="11" y="0" on="1"/>
        <pt x="123" y="700" on="1"/>
        <pt x="284" y="700" on="1"/>
        <pt x="396" y="0" on="1"/>
      </contour>
      <contour>
        <pt x="251" y="222" on="1"/>
        <pt x="198" y="576" on="1"/>
        <pt x="145" y="222" on="1"/>
      </contour>
    </TTGlyph>
    <TTGlyph name="Acircumflex" xMin="11" yMin="0" xMax="396" yMax="848">
      <contour>
        <pt x="154" y="848" on="1"/>
        <pt x="253" y="848" on="1"/>
        <pt x="342" y="737" on="1"/>
        <pt x="248" y="737" on="1"/>
        <pt x="203" y="792" on="1"/>
        <pt x="159" y="737" on="1"/>
        <pt x="65" y="737" on="1"/>
      </contour>
      <contour>
        <pt x="285" y="0" on="1"/>
        <pt x="266" y="127" on="1"/>
        <pt x="131" y="127" on="1"/>
        <pt x="112" y="0" on="1"/>
        <pt x="11" y="0" on="1"/>
        <pt x="123" y="700" on="1"/>
        <pt x="284" y="700" on="1"/>
        <pt x="396" y="0" on="1"/>
      </contour>
      <contour>
        <pt x="251" y="222" on="1"/>
        <pt x="198" y="576" on="1"/>
        <pt x="145" y="222" on="1"/>
      </contour>
    </TTGlyph>
    <TTGlyph name="Adieresis" xMin="11" yMin="0" xMax="396" yMax="833">
      <contour>
        <pt x="175" y="737" on="1"/>
        <pt x="79" y="737" on="1"/>
        <pt x="79" y="833" on="1"/>
        <pt x="175" y="833" on="1"/>
      </contour>
      <contour>
        <pt x="327" y="737" on="1"/>
        <pt x="231" y="737" on="1"/>
        <pt x="231" y="833" on="1"/>
        <pt x="327" y="833" on="1"/>
      </contour>
      <contour>
        <pt x="285" y="0" on="1"/>
        <pt x="266" y="127" on="1"/>
        <pt x="131" y="127" on="1"/>
        <pt x="112" y="0" on="1"/>
        <pt x="11" y="0" on="1"/>
        <pt x="123" y="700" on="1"/>
        <pt x="284" y="700" on="1"/>
        <pt x="396" y="0" on="1"/>
      </contour>
      <contour>
        <pt x="251" y="222" on="1"/>
        <pt x="198" y="576" on="1"/>
        <pt x="145" y="222" on="1"/>
      </contour>
    </TTGlyph>
    <TTGlyph name="Agrave" xMin="11" yMin="0" xMax="396" yMax="848">
      <contour>
        <pt x="264" y="737" on="1"/>
        <pt x="185" y="737" on="1"/>
        <pt x="83" y="848" on="1"/>
        <pt x="196" y="848" on="1"/>
      </contour>
      <contour>
        <pt x="285" y="0" on="1"/>
        <pt x="266" y="127" on="1"/>
        <pt x="131" y="127" on="1"/>
        <pt x="112" y="0" on="1"/>
        <pt x="11" y="0" on="1"/>
        <pt x="123" y="700" on="1"/>
        <pt x="284" y="700" on="1"/>
        <pt x="396" y="0" on="1"/>
      </contour>
      <contour>
        <pt x="251" y="222" on="1"/>
        <pt x="198" y="576" on="1"/>
        <pt x="145" y="222" on="1"/>
      </contour>
    </TTGlyph>
    <TTGlyph name="Amacron" xMin="11" yMin="0" xMax="396" yMax="819">
      <contour>
        <pt x="318" y="741" on="1"/>
        <pt x="88" y="741" on="1"/>
        <pt x="88" y="819" on="1"/>
        <pt x="318" y="819" on="1"/>
      </contour>
      <contour>
        <pt x="285" y="0" on="1"/>
        <pt x="266" y="127" on="1"/>
        <pt x="131" y="127" on="1"/>
        <pt x="112" y="0" on="1"/>
        <pt x="11" y="0" on="1"/>
        <pt x="123" y="700" on="1"/>
        <pt x="284" y="700" on="1"/>
        <pt x="396" y="0" on="1"/>
      </contour>
      <contour>
        <pt x="251" y="222" on="1"/>
        <pt x="198" y="576" on="1"/>
        <pt x="145" y="222" on="1"/>
      </contour>
    </TTGlyph>
    <TTGlyph name="Aogonek" xMin="11" yMin="-147" xMax="396" yMax="700">
      <contour>
        <pt x="355" y="0" on="1"/>
        <pt x="325" y="-25" on="0"/>
        <pt x="325" y="-58" on="1"/>
        <pt x="325" y="-71" on="0"/>
        <pt x="345" y="-86" on="0"/>
        <pt x="360" y="-86" on="1"/>
        <pt x="376" y="-86" on="0"/>
        <pt x="393" y="-81" on="0"/>
        <pt x="396" y="-80" on="1"/>
        <pt x="396" y="-136" on="1"/>
        <pt x="379" y="-143" on="0"/>
        <pt x="350" y="-147" on="0"/>
        <pt x="328" y="-147" on="1"/>
        <pt x="287" y="-147" on="0"/>
        <pt x="241" y="-115" on="0"/>
        <pt x="241" y="-85" on="1"/>
        <pt x="241" y="-43" on="0"/>
        <pt x="288" y="-12" on="1"/>
        <pt x="266" y="127" on="1"/>
        <pt x="131" y="127" on="1"/>
        <pt x="112" y="0" on="1"/>
        <pt x="11" y="0" on="1"/>
        <pt x="123" y="700" on="1"/>
        <pt x="284" y="700" on="1"/>
        <pt x="396" y="0" on="1"/>
      </contour>
      <contour>
        <pt x="251" y="222" on="1"/>
        <pt x="198" y="576" on="1"/>
        <pt x="145" y="222" on="1"/>
      </contour>
    </TTGlyph>
    <TTGlyph name="Aring" xMin="11" yMin="0" xMax="396" yMax="894">
      <contour>
        <pt x="123" y="848" on="0"/>
        <pt x="169" y="894" on="0"/>
        <pt x="203" y="894" on="1"/>
        <pt x="237" y="894" on="0"/>
        <pt x="283" y="848" on="0"/>
        <pt x="283" y="814" on="1"/>
        <pt x="283" y="780" on="0"/>
        <pt x="237" y="734" on="0"/>
        <pt x="203" y="734" on="1"/>
        <pt x="169" y="734" on="0"/>
        <pt x="123" y="780" on="0"/>
        <pt x="123" y="814" on="1"/>
      </contour>
      <contour>
        <pt x="173" y="801" on="0"/>
        <pt x="190" y="784" on="0"/>
        <pt x="203" y="784" on="1"/>
        <pt x="216" y="784" on="0"/>
        <pt x="233" y="801" on="0"/>
        <pt x="233" y="814" on="1"/>
        <pt x="233" y="827" on="0"/>
        <pt x="216" y="844" on="0"/>
        <pt x="203" y="844" on="1"/>
        <pt x="190" y="844" on="0"/>
        <pt x="173" y="827" on="0"/>
        <pt x="173" y="814" on="1"/>
      </contour>
      <contour>
        <pt x="285" y="0" on="1"/>
        <pt x="266" y="127" on="1"/>
        <pt x="131" y="127" on="1"/>
        <pt x="112" y="0" on="1"/>
        <pt x="11" y="0" on="1"/>
        <pt x="123" y="700" on="1"/>
        <pt x="284" y="700" on="1"/>
        <pt x="396" y="0" on="1"/>
      </contour>
      <contour>
        <pt x="251" y="222" on="1"/>
        <pt x="198" y="576" on="1"/>
        <pt x="145" y="222" on="1"/>
      </contour>
    </TTGlyph>
    <TTGlyph name="Atilde" xMin="11" yMin="0" xMax="396" yMax="842">
      <contour>
        <pt x="258" y="813" on="0"/>
        <pt x="278" y="825" on="0"/>
        <pt x="286" y="842" on="1"/>
        <pt x="339" y="805" on="1"/>
        <pt x="314" y="737" on="0"/>
        <pt x="254" y="737" on="1"/>
        <pt x="239" y="737" on="0"/>
        <pt x="216" y="744" on="0"/>
        <pt x="201" y="751" on="1"/>
        <pt x="179" y="762" on="0"/>
        <pt x="164" y="762" on="1"/>
        <pt x="149" y="762" on="0"/>
        <pt x="129" y="750" on="0"/>
        <pt x="121" y="733" on="1"/>
        <pt x="68" y="770" on="1"/>
        <pt x="93" y="838" on="0"/>
        <pt x="153" y="838" on="1"/>
        <pt x="168" y="838" on="0"/>
        <pt x="191" y="831" on="0"/>
        <pt x="206" y="824" on="1"/>
        <pt x="228" y="813" on="0"/>
        <pt x="243" y="813" on="1"/>
      </contour>
      <contour>
        <pt x="285" y="0" on="1"/>
        <pt x="266" y="127" on="1"/>
        <pt x="131" y="127" on="1"/>
        <pt x="112" y="0" on="1"/>
        <pt x="11" y="0" on="1"/>
        <pt x="123" y="700" on="1"/>
        <pt x="284" y="700" on="1"/>
        <pt x="396" y="0" on="1"/>
      </contour>
      <contour>
        <pt x="251" y="222" on="1"/>
        <pt x="198" y="576" on="1"/>
        <pt x="145" y="222" on="1"/>
      </contour>
    </TTGlyph>
    <TTGlyph name="B" xMin="40" yMin="0" xMax="380" yMax="700">
      <contour>
        <pt x="291" y="700" on="0"/>
        <pt x="369" y="621" on="0"/>
        <pt x="369" y="539" on="1"/>
        <pt x="369" y="514" on="1"/>
        <pt x="369" y="460" on="0"/>
        <pt x="334" y="390" on="0"/>
        <pt x="298" y="373" on="1"/>
        <pt x="380" y="341" on="0"/>
        <pt x="380" y="223" on="1"/>
        <pt x="380" y="166" on="1"/>
        <pt x="380" y="85" on="0"/>
        <pt x="295" y="0" on="0"/>
        <pt x="213" y="0" on="1"/>
        <pt x="40" y="0" on="1"/>
        <pt x="40" y="700" on="1"/>
        <pt x="206" y="700" on="1"/>
      </contour>
      <contour>
        <pt x="150" y="415" on="1"/>
        <pt x="193" y="415" on="1"/>
        <pt x="226" y="415" on="0"/>
        <pt x="259" y="449" on="0"/>
        <pt x="259" y="489" on="1"/>
        <pt x="259" y="528" on="1"/>
        <pt x="259" y="566" on="0"/>
        <pt x="232" y="600" on="0"/>
        <pt x="203" y="600" on="1"/>
        <pt x="150" y="600" on="1"/>
      </contour>
      <contour>
        <pt x="150" y="100" on="1"/>
        <pt x="213" y="100" on="1"/>
        <pt x="242" y="100" on="0"/>
        <pt x="270" y="131" on="0"/>
        <pt x="270" y="169" on="1"/>
        <pt x="270" y="230" on="1"/>
        <pt x="270" y="278" on="0"/>
        <pt x="237" y="315" on="0"/>
        <pt x="199" y="315" on="1"/>
        <pt x="150" y="315" on="1"/>
      </contour>
    </TTGlyph>
    <TTGlyph name="C" xMin="31" yMin="-8" xMax="359" yMax="708">
      <contour>
        <pt x="359" y="168" on="1"/>
        <pt x="359" y="83" on="0"/>
        <pt x="275" y="-8" on="0"/>
        <pt x="195" y="-8" on="1"/>
        <pt x="115" y="-8" on="0"/>
        <pt x="31" y="83" on="0"/>
        <pt x="31" y="168" on="1"/>
        <pt x="31" y="532" on="1"/>
        <pt x="31" y="617" on="0"/>
        <pt x="115" y="708" on="0"/>
        <pt x="195" y="708" on="1"/>
        <pt x="275" y="708" on="0"/>
        <pt x="359" y="617" on="0"/>
        <pt x="359" y="532" on="1"/>
        <pt x="359" y="464" on="1"/>
        <pt x="255" y="464" on="1"/>
        <pt x="255" y="539" on="1"/>
        <pt x="255" y="608" on="0"/>
        <pt x="198" y="608" on="1"/>
        <pt x="141" y="608" on="0"/>
        <pt x="141" y="539" on="1"/>
        <pt x="141" y="161" on="1"/>
        <pt x="141" y="93" on="0"/>
        <pt x="198" y="93" on="1"/>
        <pt x="255" y="93" on="0"/>
        <pt x="255" y="161" on="1"/>
        <pt x="255" y="261" on="1"/>
        <pt x="359" y="261" on="1"/>
      </contour>
    </TTGlyph>
    <TTGlyph name="Cacute" xMin="31" yMin="-8" xMax="359" yMax="848">
      <contour>
        <pt x="211" y="737" on="1"/>
        <pt x="137" y="737" on="1"/>
        <pt x="205" y="848" on="1"/>
        <pt x="313" y="848" on="1"/>
      </contour>
      <contour>
        <pt x="359" y="168" on="1"/>
        <pt x="359" y="83" on="0"/>
        <pt x="275" y="-8" on="0"/>
        <pt x="195" y="-8" on="1"/>
        <pt x="115" y="-8" on="0"/>
        <pt x="31" y="83" on="0"/>
        <pt x="31" y="168" on="1"/>
        <pt x="31" y="532" on="1"/>
        <pt x="31" y="617" on="0"/>
        <pt x="115" y="708" on="0"/>
        <pt x="195" y="708" on="1"/>
        <pt x="275" y="708" on="0"/>
        <pt x="359" y="617" on="0"/>
        <pt x="359" y="532" on="1"/>
        <pt x="359" y="464" on="1"/>
        <pt x="255" y="464" on="1"/>
        <pt x="255" y="539" on="1"/>
        <pt x="255" y="608" on="0"/>
        <pt x="198" y="608" on="1"/>
        <pt x="141" y="608" on="0"/>
        <pt x="141" y="539" on="1"/>
        <pt x="141" y="161" on="1"/>
        <pt x="141" y="93" on="0"/>
        <pt x="198" y="93" on="1"/>
        <pt x="255" y="93" on="0"/>
        <pt x="255" y="161" on="1"/>
        <pt x="255" y="261" on="1"/>
        <pt x="359" y="261" on="1"/>
      </contour>
    </TTGlyph>
    <TTGlyph name="Ccaron" xMin="31" yMin="-8" xMax="359" yMax="848">
      <contour>
        <pt x="194" y="792" on="1"/>
        <pt x="239" y="848" on="1"/>
        <pt x="333" y="848" on="1"/>
        <pt x="244" y="737" on="1"/>
        <pt x="145" y="737" on="1"/>
        <pt x="56" y="848" on="1"/>
        <pt x="150" y="848" on="1"/>
      </contour>
      <contour>
        <pt x="359" y="168" on="1"/>
        <pt x="359" y="83" on="0"/>
        <pt x="275" y="-8" on="0"/>
        <pt x="195" y="-8" on="1"/>
        <pt x="115" y="-8" on="0"/>
        <pt x="31" y="83" on="0"/>
        <pt x="31" y="168" on="1"/>
        <pt x="31" y="532" on="1"/>
        <pt x="31" y="617" on="0"/>
        <pt x="115" y="708" on="0"/>
        <pt x="195" y="708" on="1"/>
        <pt x="275" y="708" on="0"/>
        <pt x="359" y="617" on="0"/>
        <pt x="359" y="532" on="1"/>
        <pt x="359" y="464" on="1"/>
        <pt x="255" y="464" on="1"/>
        <pt x="255" y="539" on="1"/>
        <pt x="255" y="608" on="0"/>
        <pt x="198" y="608" on="1"/>
        <pt x="141" y="608" on="0"/>
        <pt x="141" y="539" on="1"/>
        <pt x="141" y="161" on="1"/>
        <pt x="141" y="93" on="0"/>
        <pt x="198" y="93" on="1"/>
        <pt x="255" y="93" on="0"/>
        <pt x="255" y="161" on="1"/>
        <pt x="255" y="261" on="1"/>
        <pt x="359" y="261" on="1"/>
      </contour>
    </TTGlyph>
    <TTGlyph name="Ccedilla" xMin="31" yMin="-147" xMax="359" yMax="708">
      <contour>
        <pt x="359" y="168" on="1"/>
        <pt x="359" y="90" on="0"/>
        <pt x="286" y="-1" on="0"/>
        <pt x="217" y="-7" on="1"/>
        <pt x="217" y="-39" on="1"/>
        <pt x="255" y="-39" on="0"/>
        <pt x="291" y="-60" on="0"/>
        <pt x="291" y="-86" on="1"/>
        <pt x="291" y="-123" on="0"/>
        <pt x="241" y="-147" on="0"/>
        <pt x="190" y="-147" on="1"/>
        <pt x="144" y="-147" on="0"/>
        <pt x="94" y="-121" on="0"/>
        <pt x="94" y="-89" on="1"/>
        <pt x="94" y="-79" on="1"/>
        <pt x="168" y="-79" on="1"/>
        <pt x="168" y="-87" on="1"/>
        <pt x="168" y="-97" on="0"/>
        <pt x="181" y="-107" on="0"/>
        <pt x="190" y="-107" on="1"/>
        <pt x="215" y="-107" on="0"/>
        <pt x="215" y="-83" on="1"/>
        <pt x="215" y="-69" on="0"/>
        <pt x="197" y="-57" on="0"/>
        <pt x="179" y="-57" on="1"/>
        <pt x="169" y="-57" on="1"/>
        <pt x="169" y="-6" on="1"/>
        <pt x="101" y="1" on="0"/>
        <pt x="31" y="90" on="0"/>
        <pt x="31" y="168" on="1"/>
        <pt x="31" y="532" on="1"/>
        <pt x="31" y="617" on="0"/>
        <pt x="115" y="708" on="0"/>
        <pt x="195" y="708" on="1"/>
        <pt x="275" y="708" on="0"/>
        <pt x="359" y="617" on="0"/>
        <pt x="359" y="532" on="1"/>
        <pt x="359" y="464" on="1"/>
        <pt x="255" y="464" on="1"/>
        <pt x="255" y="539" on="1"/>
        <pt x="255" y="608" on="0"/>
        <pt x="198" y="608" on="1"/>
        <pt x="141" y="608" on="0"/>
        <pt x="141" y="539" on="1"/>
        <pt x="141" y="161" on="1"/>
        <pt x="141" y="93" on="0"/>
        <pt x="198" y="93" on="1"/>
        <pt x="255" y="93" on="0"/>
        <pt x="255" y="161" on="1"/>
        <pt x="255" y="261" on="1"/>
        <pt x="359" y="261" on="1"/>
      </contour>
    </TTGlyph>
    <TTGlyph name="Ccircumflex" xMin="31" yMin="-8" xMax="359" yMax="848">
      <contour>
        <pt x="145" y="848" on="1"/>
        <pt x="244" y="848" on="1"/>
        <pt x="333" y="737" on="1"/>
        <pt x="239" y="737" on="1"/>
        <pt x="194" y="792" on="1"/>
        <pt x="150" y="737" on="1"/>
        <pt x="56" y="737" on="1"/>
      </contour>
      <contour>
        <pt x="359" y="168" on="1"/>
        <pt x="359" y="83" on="0"/>
        <pt x="275" y="-8" on="0"/>
        <pt x="195" y="-8" on="1"/>
        <pt x="115" y="-8" on="0"/>
        <pt x="31" y="83" on="0"/>
        <pt x="31" y="168" on="1"/>
        <pt x="31" y="532" on="1"/>
        <pt x="31" y="617" on="0"/>
        <pt x="115" y="708" on="0"/>
        <pt x="195" y="708" on="1"/>
        <pt x="275" y="708" on="0"/>
        <pt x="359" y="617" on="0"/>
        <pt x="359" y="532" on="1"/>
        <pt x="359" y="464" on="1"/>
        <pt x="255" y="464" on="1"/>
        <pt x="255" y="539" on="1"/>
        <pt x="255" y="608" on="0"/>
        <pt x="198" y="608" on="1"/>
        <pt x="141" y="608" on="0"/>
        <pt x="141" y="539" on="1"/>
        <pt x="141" y="161" on="1"/>
        <pt x="141" y="93" on="0"/>
        <pt x="198" y="93" on="1"/>
        <pt x="255" y="93" on="0"/>
        <pt x="255" y="161" on="1"/>
        <pt x="255" y="261" on="1"/>
        <pt x="359" y="261" on="1"/>
      </contour>
    </TTGlyph>
    <TTGlyph name="Cdotaccent" xMin="31" yMin="-8" xMax="359" yMax="833">
      <contour>
        <pt x="243" y="737" on="1"/>
        <pt x="147" y="737" on="1"/>
        <pt x="147" y="833" on="1"/>
        <pt x="243" y="833" on="1"/>
      </contour>
      <contour>
        <pt x="359" y="168" on="1"/>
        <pt x="359" y="83" on="0"/>
        <pt x="275" y="-8" on="0"/>
        <pt x="195" y="-8" on="1"/>
        <pt x="115" y="-8" on="0"/>
        <pt x="31" y="83" on="0"/>
        <pt x="31" y="168" on="1"/>
        <pt x="31" y="532" on="1"/>
        <pt x="31" y="617" on="0"/>
        <pt x="115" y="708" on="0"/>
        <pt x="195" y="708" on="1"/>
        <pt x="275" y="708" on="0"/>
        <pt x="359" y="617" on="0"/>
        <pt x="359" y="532" on="1"/>
        <pt x="359" y="464" on="1"/>
        <pt x="255" y="464" on="1"/>
        <pt x="255" y="539" on="1"/>
        <pt x="255" y="608" on="0"/>
        <pt x="198" y="608" on="1"/>
        <pt x="141" y="608" on="0"/>
        <pt x="141" y="539" on="1"/>
        <pt x="141" y="161" on="1"/>
        <pt x="141" y="93" on="0"/>
        <pt x="198" y="93" on="1"/>
        <pt x="255" y="93" on="0"/>
        <pt x="255" y="161" on="1"/>
        <pt x="255" y="261" on="1"/>
        <pt x="359" y="261" on="1"/>
      </contour>
    </TTGlyph>
    <TTGlyph name="D" xMin="40" yMin="0" xMax="378" yMax="700">
      <contour>
        <pt x="214" y="700" on="1"/>
        <pt x="296" y="700" on="0"/>
        <pt x="378" y="612" on="0"/>
        <pt x="378" y="527" on="1"/>
        <pt x="378" y="173" on="1"/>
        <pt x="378" y="88" on="0"/>
        <pt x="296" y="0" on="0"/>
        <pt x="214" y="0" on="1"/>
        <pt x="40" y="0" on="1"/>
        <pt x="40" y="700" on="1"/>
      </contour>
      <contour>
        <pt x="150" y="100" on="1"/>
        <pt x="212" y="100" on="1"/>
        <pt x="239" y="100" on="0"/>
        <pt x="268" y="132" on="0"/>
        <pt x="268" y="168" on="1"/>
        <pt x="268" y="532" on="1"/>
        <pt x="268" y="568" on="0"/>
        <pt x="239" y="600" on="0"/>
        <pt x="212" y="600" on="1"/>
        <pt x="150" y="600" on="1"/>
      </contour>
    </TTGlyph>
    <TTGlyph name="Dcaron" xMin="40" yMin="0" xMax="378" yMax="848">
      <contour>
        <pt x="194" y="792" on="1"/>
        <pt x="239" y="848" on="1"/>
        <pt x="333" y="848" on="1"/>
        <pt x="244" y="737" on="1"/>
        <pt x="145" y="737" on="1"/>
        <pt x="56" y="848" on="1"/>
        <pt x="150" y="848" on="1"/>
      </contour>
      <contour>
        <pt x="214" y="700" on="1"/>
        <pt x="296" y="700" on="0"/>
        <pt x="378" y="612" on="0"/>
        <pt x="378" y="527" on="1"/>
        <pt x="378" y="173" on="1"/>
        <pt x="378" y="88" on="0"/>
        <pt x="296" y="0" on="0"/>
        <pt x="214" y="0" on="1"/>
        <pt x="40" y="0" on="1"/>
        <pt x="40" y="700" on="1"/>
      </contour>
      <contour>
        <pt x="150" y="100" on="1"/>
        <pt x="212" y="100" on="1"/>
        <pt x="239" y="100" on="0"/>
        <pt x="268" y="132" on="0"/>
        <pt x="268" y="168" on="1"/>
        <pt x="268" y="532" on="1"/>
        <pt x="268" y="568" on="0"/>
        <pt x="239" y="600" on="0"/>
        <pt x="212" y="600" on="1"/>
        <pt x="150" y="600" on="1"/>
      </contour>
    </TTGlyph>
    <TTGlyph name="Dcroat" xMin="4" yMin="0" xMax="378" yMax="700">
      <contour>
        <pt x="4" y="305" on="1"/>
        <pt x="4" y="395" on="1"/>
        <pt x="40" y="395" on="1"/>
        <pt x="40" y="700" on="1"/>
        <pt x="214" y="700" on="1"/>
        <pt x="296" y="700" on="0"/>
        <pt x="378" y="612" on="0"/>
        <pt x="378" y="527" on="1"/>
        <pt x="378" y="173" on="1"/>
        <pt x="378" y="88" on="0"/>
        <pt x="296" y="0" on="0"/>
        <pt x="214" y="0" on="1"/>
        <pt x="40" y="0" on="1"/>
        <pt x="40" y="305" on="1"/>
      </contour>
      <contour>
        <pt x="150" y="395" on="1"/>
        <pt x="218" y="395" on="1"/>
        <pt x="218" y="305" on="1"/>
        <pt x="150" y="305" on="1"/>
        <pt x="150" y="100" on="1"/>
        <pt x="212" y="100" on="1"/>
        <pt x="239" y="100" on="0"/>
        <pt x="268" y="132" on="0"/>
        <pt x="268" y="168" on="1"/>
        <pt x="268" y="532" on="1"/>
        <pt x="268" y="568" on="0"/>
        <pt x="239" y="600" on="0"/>
        <pt x="212" y="600" on="1"/>
        <pt x="150" y="600" on="1"/>
      </contour>
    </TTGlyph>
    <TTGlyph name="E" xMin="40" yMin="0" xMax="340" yMax="700">
      <contour>
        <pt x="301" y="405" on="1"/>
        <pt x="301" y="305" on="1"/>
        <pt x="150" y="305" on="1"/>
        <pt x="150" y="100" on="1"/>
        <pt x="340" y="100" on="1"/>
        <pt x="340" y="0" on="1"/>
        <pt x="40" y="0" on="1"/>
        <pt x="40" y="700" on="1"/>
        <pt x="340" y="700" on="1"/>
        <pt x="340" y="600" on="1"/>
        <pt x="150" y="600" on="1"/>
        <pt x="150" y="405" on="1"/>
      </contour>
    </TTGlyph>
    <TTGlyph name="Eacute" xMin="40" yMin="0" xMax="340" yMax="848">
      <contour>
        <pt x="205" y="737" on="1"/>
        <pt x="131" y="737" on="1"/>
        <pt x="199" y="848" on="1"/>
        <pt x="307" y="848" on="1"/>
      </contour>
      <contour>
        <pt x="301" y="405" on="1"/>
        <pt x="301" y="305" on="1"/>
        <pt x="150" y="305" on="1"/>
        <pt x="150" y="100" on="1"/>
        <pt x="340" y="100" on="1"/>
        <pt x="340" y="0" on="1"/>
        <pt x="40" y="0" on="1"/>
        <pt x="40" y="700" on="1"/>
        <pt x="340" y="700" on="1"/>
        <pt x="340" y="600" on="1"/>
        <pt x="150" y="600" on="1"/>
        <pt x="150" y="405" on="1"/>
      </contour>
    </TTGlyph>
    <TTGlyph name="Ebreve" xMin="40" yMin="0" xMax="340" yMax="848">
      <contour>
        <pt x="300" y="848" on="1"/>
        <pt x="300" y="794" on="0"/>
        <pt x="242" y="733" on="0"/>
        <pt x="187" y="733" on="1"/>
        <pt x="132" y="733" on="0"/>
        <pt x="77" y="794" on="0"/>
        <pt x="76" y="848" on="1"/>
        <pt x="141" y="848" on="1"/>
        <pt x="143" y="821" on="0"/>
        <pt x="165" y="801" on="0"/>
        <pt x="187" y="801" on="1"/>
        <pt x="210" y="801" on="0"/>
        <pt x="233" y="821" on="0"/>
        <pt x="235" y="848" on="1"/>
      </contour>
      <contour>
        <pt x="301" y="405" on="1"/>
        <pt x="301" y="305" on="1"/>
        <pt x="150" y="305" on="1"/>
        <pt x="150" y="100" on="1"/>
        <pt x="340" y="100" on="1"/>
        <pt x="340" y="0" on="1"/>
        <pt x="40" y="0" on="1"/>
        <pt x="40" y="700" on="1"/>
        <pt x="340" y="700" on="1"/>
        <pt x="340" y="600" on="1"/>
        <pt x="150" y="600" on="1"/>
        <pt x="150" y="405" on="1"/>
      </contour>
    </TTGlyph>
    <TTGlyph name="Ecaron" xMin="40" yMin="0" xMax="340" yMax="848">
      <contour>
        <pt x="187" y="792" on="1"/>
        <pt x="232" y="848" on="1"/>
        <pt x="326" y="848" on="1"/>
        <pt x="237" y="737" on="1"/>
        <pt x="138" y="737" on="1"/>
        <pt x="49" y="848" on="1"/>
        <pt x="143" y="848" on="1"/>
      </contour>
      <contour>
        <pt x="301" y="405" on="1"/>
        <pt x="301" y="305" on="1"/>
        <pt x="150" y="305" on="1"/>
        <pt x="150" y="100" on="1"/>
        <pt x="340" y="100" on="1"/>
        <pt x="340" y="0" on="1"/>
        <pt x="40" y="0" on="1"/>
        <pt x="40" y="700" on="1"/>
        <pt x="340" y="700" on="1"/>
        <pt x="340" y="600" on="1"/>
        <pt x="150" y="600" on="1"/>
        <pt x="150" y="405" on="1"/>
      </contour>
    </TTGlyph>
    <TTGlyph name="Ecircumflex" xMin="40" yMin="0" xMax="340" yMax="848">
      <contour>
        <pt x="139" y="848" on="1"/>
        <pt x="238" y="848" on="1"/>
        <pt x="327" y="737" on="1"/>
        <pt x="233" y="737" on="1"/>
        <pt x="188" y="792" on="1"/>
        <pt x="144" y="737" on="1"/>
        <pt x="50" y="737" on="1"/>
      </contour>
      <contour>
        <pt x="301" y="405" on="1"/>
        <pt x="301" y="305" on="1"/>
        <pt x="150" y="305" on="1"/>
        <pt x="150" y="100" on="1"/>
        <pt x="340" y="100" on="1"/>
        <pt x="340" y="0" on="1"/>
        <pt x="40" y="0" on="1"/>
        <pt x="40" y="700" on="1"/>
        <pt x="340" y="700" on="1"/>
        <pt x="340" y="600" on="1"/>
        <pt x="150" y="600" on="1"/>
        <pt x="150" y="405" on="1"/>
      </contour>
    </TTGlyph>
    <TTGlyph name="Edieresis" xMin="40" yMin="0" xMax="340" yMax="833">
      <contour>
        <pt x="161" y="737" on="1"/>
        <pt x="65" y="737" on="1"/>
        <pt x="65" y="833" on="1"/>
        <pt x="161" y="833" on="1"/>
      </contour>
      <contour>
        <pt x="313" y="737" on="1"/>
        <pt x="217" y="737" on="1"/>
        <pt x="217" y="833" on="1"/>
        <pt x="313" y="833" on="1"/>
      </contour>
      <contour>
        <pt x="301" y="405" on="1"/>
        <pt x="301" y="305" on="1"/>
        <pt x="150" y="305" on="1"/>
        <pt x="150" y="100" on="1"/>
        <pt x="340" y="100" on="1"/>
        <pt x="340" y="0" on="1"/>
        <pt x="40" y="0" on="1"/>
        <pt x="40" y="700" on="1"/>
        <pt x="340" y="700" on="1"/>
        <pt x="340" y="600" on="1"/>
        <pt x="150" y="600" on="1"/>
        <pt x="150" y="405" on="1"/>
      </contour>
    </TTGlyph>
    <TTGlyph name="Edotaccent" xMin="40" yMin="0" xMax="340" yMax="833">
      <contour>
        <pt x="236" y="737" on="1"/>
        <pt x="140" y="737" on="1"/>
        <pt x="140" y="833" on="1"/>
        <pt x="236" y="833" on="1"/>
      </contour>
      <contour>
        <pt x="301" y="405" on="1"/>
        <pt x="301" y="305" on="1"/>
        <pt x="150" y="305" on="1"/>
        <pt x="150" y="100" on="1"/>
        <pt x="340" y="100" on="1"/>
        <pt x="340" y="0" on="1"/>
        <pt x="40" y="0" on="1"/>
        <pt x="40" y="700" on="1"/>
        <pt x="340" y="700" on="1"/>
        <pt x="340" y="600" on="1"/>
        <pt x="150" y="600" on="1"/>
        <pt x="150" y="405" on="1"/>
      </contour>
    </TTGlyph>
    <TTGlyph name="Egrave" xMin="40" yMin="0" xMax="340" yMax="848">
      <contour>
        <pt x="249" y="737" on="1"/>
        <pt x="170" y="737" on="1"/>
        <pt x="68" y="848" on="1"/>
        <pt x="181" y="848" on="1"/>
      </contour>
      <contour>
        <pt x="301" y="405" on="1"/>
        <pt x="301" y="305" on="1"/>
        <pt x="150" y="305" on="1"/>
        <pt x="150" y="100" on="1"/>
        <pt x="340" y="100" on="1"/>
        <pt x="340" y="0" on="1"/>
        <pt x="40" y="0" on="1"/>
        <pt x="40" y="700" on="1"/>
        <pt x="340" y="700" on="1"/>
        <pt x="340" y="600" on="1"/>
        <pt x="150" y="600" on="1"/>
        <pt x="150" y="405" on="1"/>
      </contour>
    </TTGlyph>
    <TTGlyph name="Emacron" xMin="40" yMin="0" xMax="340" yMax="819">
      <contour>
        <pt x="303" y="741" on="1"/>
        <pt x="73" y="741" on="1"/>
        <pt x="73" y="819" on="1"/>
        <pt x="303" y="819" on="1"/>
      </contour>
      <contour>
        <pt x="301" y="405" on="1"/>
        <pt x="301" y="305" on="1"/>
        <pt x="150" y="305" on="1"/>
        <pt x="150" y="100" on="1"/>
        <pt x="340" y="100" on="1"/>
        <pt x="340" y="0" on="1"/>
        <pt x="40" y="0" on="1"/>
        <pt x="40" y="700" on="1"/>
        <pt x="340" y="700" on="1"/>
        <pt x="340" y="600" on="1"/>
        <pt x="150" y="600" on="1"/>
        <pt x="150" y="405" on="1"/>
      </contour>
    </TTGlyph>
    <TTGlyph name="Eogonek" xMin="40" yMin="-147" xMax="340" yMax="700">
      <contour>
        <pt x="301" y="405" on="1"/>
        <pt x="301" y="305" on="1"/>
        <pt x="150" y="305" on="1"/>
        <pt x="150" y="100" on="1"/>
        <pt x="340" y="100" on="1"/>
        <pt x="340" y="0" on="1"/>
        <pt x="299" y="0" on="1"/>
        <pt x="269" y="-25" on="0"/>
        <pt x="269" y="-58" on="1"/>
        <pt x="269" y="-71" on="0"/>
        <pt x="289" y="-86" on="0"/>
        <pt x="304" y="-86" on="1"/>
        <pt x="320" y="-86" on="0"/>
        <pt x="337" y="-81" on="0"/>
        <pt x="340" y="-80" on="1"/>
        <pt x="340" y="-136" on="1"/>
        <pt x="323" y="-143" on="0"/>
        <pt x="294" y="-147" on="0"/>
        <pt x="272" y="-147" on="1"/>
        <pt x="231" y="-147" on="0"/>
        <pt x="185" y="-115" on="0"/>
        <pt x="185" y="-85" on="1"/>
        <pt x="185" y="-61" on="0"/>
        <pt x="219" y="-17" on="0"/>
        <pt x="252" y="0" on="1"/>
        <pt x="40" y="0" on="1"/>
        <pt x="40" y="700" on="1"/>
        <pt x="340" y="700" on="1"/>
        <pt x="340" y="600" on="1"/>
        <pt x="150" y="600" on="1"/>
        <pt x="150" y="405" on="1"/>
      </contour>
    </TTGlyph>
    <TTGlyph name="Eth" xMin="4" yMin="0" xMax="378" yMax="700">
      <contour>
        <pt x="4" y="305" on="1"/>
        <pt x="4" y="395" on="1"/>
        <pt x="40" y="395" on="1"/>
        <pt x="40" y="700" on="1"/>
        <pt x="214" y="700" on="1"/>
        <pt x="296" y="700" on="0"/>
        <pt x="378" y="612" on="0"/>
        <pt x="378" y="527" on="1"/>
        <pt x="378" y="173" on="1"/>
        <pt x="378" y="88" on="0"/>
        <pt x="296" y="0" on="0"/>
        <pt x="214" y="0" on="1"/>
        <pt x="40" y="0" on="1"/>
        <pt x="40" y="305" on="1"/>
      </contour>
      <contour>
        <pt x="150" y="395" on="1"/>
        <pt x="218" y="395" on="1"/>
        <pt x="218" y="305" on="1"/>
        <pt x="150" y="305" on="1"/>
        <pt x="150" y="100" on="1"/>
        <pt x="212" y="100" on="1"/>
        <pt x="239" y="100" on="0"/>
        <pt x="268" y="132" on="0"/>
        <pt x="268" y="168" on="1"/>
        <pt x="268" y="532" on="1"/>
        <pt x="268" y="568" on="0"/>
        <pt x="239" y="600" on="0"/>
        <pt x="212" y="600" on="1"/>
        <pt x="150" y="600" on="1"/>
      </contour>
    </TTGlyph>
    <TTGlyph name="Euro" xMin="19" yMin="-8" xMax="369" yMax="708">
      <contour>
        <pt x="47" y="435" on="1"/>
        <pt x="47" y="532" on="1"/>
        <pt x="47" y="617" on="0"/>
        <pt x="128" y="708" on="0"/>
        <pt x="208" y="708" on="1"/>
        <pt x="288" y="708" on="0"/>
        <pt x="369" y="617" on="0"/>
        <pt x="369" y="532" on="1"/>
        <pt x="369" y="481" on="1"/>
        <pt x="265" y="481" on="1"/>
        <pt x="265" y="539" on="1"/>
        <pt x="265" y="576" on="0"/>
        <pt x="238" y="608" on="0"/>
        <pt x="211" y="608" on="1"/>
        <pt x="184" y="608" on="0"/>
        <pt x="157" y="576" on="0"/>
        <pt x="157" y="539" on="1"/>
        <pt x="157" y="435" on="1"/>
        <pt x="311" y="435" on="1"/>
        <pt x="311" y="380" on="1"/>
        <pt x="157" y="380" on="1"/>
        <pt x="157" y="325" on="1"/>
        <pt x="311" y="325" on="1"/>
        <pt x="311" y="270" on="1"/>
        <pt x="157" y="270" on="1"/>
        <pt x="157" y="161" on="1"/>
        <pt x="157" y="125" on="0"/>
        <pt x="184" y="93" on="0"/>
        <pt x="211" y="93" on="1"/>
        <pt x="238" y="93" on="0"/>
        <pt x="265" y="125" on="0"/>
        <pt x="265" y="161" on="1"/>
        <pt x="265" y="224" on="1"/>
        <pt x="369" y="224" on="1"/>
        <pt x="369" y="168" on="1"/>
        <pt x="369" y="83" on="0"/>
        <pt x="288" y="-8" on="0"/>
        <pt x="208" y="-8" on="1"/>
        <pt x="128" y="-8" on="0"/>
        <pt x="47" y="83" on="0"/>
        <pt x="47" y="168" on="1"/>
        <pt x="47" y="270" on="1"/>
        <pt x="19" y="270" on="1"/>
        <pt x="19" y="325" on="1"/>
        <pt x="47" y="325" on="1"/>
        <pt x="47" y="380" on="1"/>
        <pt x="19" y="380" on="1"/>
        <pt x="19" y="435" on="1"/>
      </contour>
    </TTGlyph>
    <TTGlyph name="F" xMin="40" yMin="0" xMax="331" yMax="700">
      <contour>
        <pt x="292" y="389" on="1"/>
        <pt x="292" y="289" on="1"/>
        <pt x="150" y="289" on="1"/>
        <pt x="150" y="0" on="1"/>
        <pt x="40" y="0" on="1"/>
        <pt x="40" y="700" on="1"/>
        <pt x="331" y="700" on="1"/>
        <pt x="331" y="600" on="1"/>
        <pt x="150" y="600" on="1"/>
        <pt x="150" y="389" on="1"/>
      </contour>
    </TTGlyph>
    <TTGlyph name="G" xMin="31" yMin="-8" xMax="359" yMax="708">
      <contour>
        <pt x="359" y="390" on="1"/>
        <pt x="359" y="168" on="1"/>
        <pt x="359" y="83" on="0"/>
        <pt x="275" y="-8" on="0"/>
        <pt x="195" y="-8" on="1"/>
        <pt x="115" y="-8" on="0"/>
        <pt x="31" y="83" on="0"/>
        <pt x="31" y="168" on="1"/>
        <pt x="31" y="532" on="1"/>
        <pt x="31" y="617" on="0"/>
        <pt x="115" y="708" on="0"/>
        <pt x="195" y="708" on="1"/>
        <pt x="275" y="708" on="0"/>
        <pt x="359" y="617" on="0"/>
        <pt x="359" y="532" on="1"/>
        <pt x="359" y="464" on="1"/>
        <pt x="255" y="464" on="1"/>
        <pt x="255" y="539" on="1"/>
        <pt x="255" y="608" on="0"/>
        <pt x="198" y="608" on="1"/>
        <pt x="141" y="608" on="0"/>
        <pt x="141" y="539" on="1"/>
        <pt x="141" y="161" on="1"/>
        <pt x="141" y="93" on="0"/>
        <pt x="198" y="93" on="1"/>
        <pt x="255" y="93" on="0"/>
        <pt x="255" y="161" on="1"/>
        <pt x="255" y="290" on="1"/>
        <pt x="205" y="290" on="1"/>
        <pt x="205" y="390" on="1"/>
      </contour>
    </TTGlyph>
    <TTGlyph name="Gbreve" xMin="31" yMin="-8" xMax="359" yMax="848">
      <contour>
        <pt x="306" y="848" on="1"/>
        <pt x="306" y="794" on="0"/>
        <pt x="248" y="733" on="0"/>
        <pt x="193" y="733" on="1"/>
        <pt x="138" y="733" on="0"/>
        <pt x="83" y="794" on="0"/>
        <pt x="82" y="848" on="1"/>
        <pt x="147" y="848" on="1"/>
        <pt x="149" y="821" on="0"/>
        <pt x="171" y="801" on="0"/>
        <pt x="193" y="801" on="1"/>
        <pt x="216" y="801" on="0"/>
        <pt x="239" y="821" on="0"/>
        <pt x="241" y="848" on="1"/>
      </contour>
      <contour>
        <pt x="359" y="390" on="1"/>
        <pt x="359" y="168" on="1"/>
        <pt x="359" y="83" on="0"/>
        <pt x="275" y="-8" on="0"/>
        <pt x="195" y="-8" on="1"/>
        <pt x="115" y="-8" on="0"/>
        <pt x="31" y="83" on="0"/>
        <pt x="31" y="168" on="1"/>
        <pt x="31" y="532" on="1"/>
        <pt x="31" y="617" on="0"/>
        <pt x="115" y="708" on="0"/>
        <pt x="195" y="708" on="1"/>
        <pt x="275" y="708" on="0"/>
        <pt x="359" y="617" on="0"/>
        <pt x="359" y="532" on="1"/>
        <pt x="359" y="464" on="1"/>
        <pt x="255" y="464" on="1"/>
        <pt x="255" y="539" on="1"/>
        <pt x="255" y="608" on="0"/>
        <pt x="198" y="608" on="1"/>
        <pt x="141" y="608" on="0"/>
        <pt x="141" y="539" on="1"/>
        <pt x="141" y="161" on="1"/>
        <pt x="141" y="93" on="0"/>
        <pt x="198" y="93" on="1"/>
        <pt x="255" y="93" on="0"/>
        <pt x="255" y="161" on="1"/>
        <pt x="255" y="290" on="1"/>
        <pt x="205" y="290" on="1"/>
        <pt x="205" y="390" on="1"/>
      </contour>
    </TTGlyph>
    <TTGlyph name="Gcircumflex" xMin="31" yMin="-8" xMax="359" yMax="848">
      <contour>
        <pt x="145" y="848" on="1"/>
        <pt x="244" y="848" on="1"/>
        <pt x="333" y="737" on="1"/>
        <pt x="239" y="737" on="1"/>
        <pt x="194" y="792" on="1"/>
        <pt x="150" y="737" on="1"/>
        <pt x="56" y="737" on="1"/>
      </contour>
      <contour>
        <pt x="359" y="390" on="1"/>
        <pt x="359" y="168" on="1"/>
        <pt x="359" y="83" on="0"/>
        <pt x="275" y="-8" on="0"/>
        <pt x="195" y="-8" on="1"/>
        <pt x="115" y="-8" on="0"/>
        <pt x="31" y="83" on="0"/>
        <pt x="31" y="168" on="1"/>
        <pt x="31" y="532" on="1"/>
        <pt x="31" y="617" on="0"/>
        <pt x="115" y="708" on="0"/>
        <pt x="195" y="708" on="1"/>
        <pt x="275" y="708" on="0"/>
        <pt x="359" y="617" on="0"/>
        <pt x="359" y="532" on="1"/>
        <pt x="359" y="464" on="1"/>
        <pt x="255" y="464" on="1"/>
        <pt x="255" y="539" on="1"/>
        <pt x="255" y="608" on="0"/>
        <pt x="198" y="608" on="1"/>
        <pt x="141" y="608" on="0"/>
        <pt x="141" y="539" on="1"/>
        <pt x="141" y="161" on="1"/>
        <pt x="141" y="93" on="0"/>
        <pt x="198" y="93" on="1"/>
        <pt x="255" y="93" on="0"/>
        <pt x="255" y="161" on="1"/>
        <pt x="255" y="290" on="1"/>
        <pt x="205" y="290" on="1"/>
        <pt x="205" y="390" on="1"/>
      </contour>
    </TTGlyph>
    <TTGlyph name="Gdotaccent" xMin="31" yMin="-8" xMax="359" yMax="833">
      <contour>
        <pt x="242" y="737" on="1"/>
        <pt x="146" y="737" on="1"/>
        <pt x="146" y="833" on="1"/>
        <pt x="242" y="833" on="1"/>
      </contour>
      <contour>
        <pt x="359" y="390" on="1"/>
        <pt x="359" y="168" on="1"/>
        <pt x="359" y="83" on="0"/>
        <pt x="275" y="-8" on="0"/>
        <pt x="195" y="-8" on="1"/>
        <pt x="115" y="-8" on="0"/>
        <pt x="31" y="83" on="0"/>
        <pt x="31" y="168" on="1"/>
        <pt x="31" y="532" on="1"/>
        <pt x="31" y="617" on="0"/>
        <pt x="115" y="708" on="0"/>
        <pt x="195" y="708" on="1"/>
        <pt x="275" y="708" on="0"/>
        <pt x="359" y="617" on="0"/>
        <pt x="359" y="532" on="1"/>
        <pt x="359" y="464" on="1"/>
        <pt x="255" y="464" on="1"/>
        <pt x="255" y="539" on="1"/>
        <pt x="255" y="608" on="0"/>
        <pt x="198" y="608" on="1"/>
        <pt x="141" y="608" on="0"/>
        <pt x="141" y="539" on="1"/>
        <pt x="141" y="161" on="1"/>
        <pt x="141" y="93" on="0"/>
        <pt x="198" y="93" on="1"/>
        <pt x="255" y="93" on="0"/>
        <pt x="255" y="161" on="1"/>
        <pt x="255" y="290" on="1"/>
        <pt x="205" y="290" on="1"/>
        <pt x="205" y="390" on="1"/>
      </contour>
    </TTGlyph>
    <TTGlyph name="H" xMin="40" yMin="0" xMax="387" yMax="700">
      <contour>
        <pt x="40" y="0" on="1"/>
        <pt x="40" y="700" on="1"/>
        <pt x="150" y="700" on="1"/>
        <pt x="150" y="400" on="1"/>
        <pt x="275" y="400" on="1"/>
        <pt x="275" y="700" on="1"/>
        <pt x="387" y="700" on="1"/>
        <pt x="387" y="0" on="1"/>
        <pt x="275" y="0" on="1"/>
        <pt x="275" y="300" on="1"/>
        <pt x="150" y="300" on="1"/>
        <pt x="150" y="0" on="1"/>
      </contour>
    </TTGlyph>
    <TTGlyph name="Hbar" xMin="10" yMin="0" xMax="427" yMax="700">
      <contour>
        <pt x="45" y="0" on="1"/>
        <pt x="45" y="502" on="1"/>
        <pt x="10" y="502" on="1"/>
        <pt x="10" y="584" on="1"/>
        <pt x="45" y="584" on="1"/>
        <pt x="45" y="700" on="1"/>
        <pt x="155" y="700" on="1"/>
        <pt x="155" y="584" on="1"/>
        <pt x="280" y="584" on="1"/>
        <pt x="280" y="700" on="1"/>
        <pt x="392" y="700" on="1"/>
        <pt x="392" y="584" on="1"/>
        <pt x="427" y="584" on="1"/>
        <pt x="427" y="502" on="1"/>
        <pt x="392" y="502" on="1"/>
        <pt x="392" y="0" on="1"/>
        <pt x="280" y="0" on="1"/>
        <pt x="280" y="300" on="1"/>
        <pt x="155" y="300" on="1"/>
        <pt x="155" y="0" on="1"/>
      </contour>
      <contour>
        <pt x="280" y="502" on="1"/>
        <pt x="155" y="502" on="1"/>
        <pt x="155" y="400" on="1"/>
        <pt x="280" y="400" on="1"/>
      </contour>
    </TTGlyph>
    <TTGlyph name="Hcircumflex" xMin="40" yMin="0" xMax="387" yMax="848">
      <contour>
        <pt x="164" y="848" on="1"/>
        <pt x="263" y="848" on="1"/>
        <pt x="352" y="737" on="1"/>
        <pt x="258" y="737" on="1"/>
        <pt x="213" y="792" on="1"/>
        <pt x="169" y="737" on="1"/>
        <pt x="75" y="737" on="1"/>
      </contour>
      <contour>
        <pt x="40" y="0" on="1"/>
        <pt x="40" y="700" on="1"/>
        <pt x="150" y="700" on="1"/>
        <pt x="150" y="400" on="1"/>
        <pt x="275" y="400" on="1"/>
        <pt x="275" y="700" on="1"/>
        <pt x="387" y="700" on="1"/>
        <pt x="387" y="0" on="1"/>
        <pt x="275" y="0" on="1"/>
        <pt x="275" y="300" on="1"/>
        <pt x="150" y="300" on="1"/>
        <pt x="150" y="0" on="1"/>
      </contour>
    </TTGlyph>
    <TTGlyph name="I" xMin="40" yMin="0" xMax="150" yMax="700">
      <contour>
        <pt x="150" y="700" on="1"/>
        <pt x="150" y="0" on="1"/>
        <pt x="40" y="0" on="1"/>
        <pt x="40" y="700" on="1"/>
      </contour>
    </TTGlyph>
    <TTGlyph name="IJ" xMin="40" yMin="-2" xMax="411" yMax="700">
      <contour>
        <pt x="150" y="700" on="1"/>
        <pt x="150" y="0" on="1"/>
        <pt x="40" y="0" on="1"/>
        <pt x="40" y="700" on="1"/>
      </contour>
      <contour>
        <pt x="212" y="99" on="0"/>
        <pt x="238" y="99" on="1"/>
        <pt x="268" y="99" on="0"/>
        <pt x="301" y="128" on="0"/>
        <pt x="301" y="166" on="1"/>
        <pt x="301" y="700" on="1"/>
        <pt x="411" y="700" on="1"/>
        <pt x="411" y="174" on="1"/>
        <pt x="411" y="-2" on="0"/>
        <pt x="253" y="-2" on="1"/>
        <pt x="218" y="-2" on="0"/>
        <pt x="200" y="0" on="1"/>
        <pt x="200" y="100" on="1"/>
      </contour>
    </TTGlyph>
    <TTGlyph name="Iacute" xMin="37" yMin="0" xMax="213" yMax="848">
      <contour>
        <pt x="111" y="737" on="1"/>
        <pt x="37" y="737" on="1"/>
        <pt x="105" y="848" on="1"/>
        <pt x="213" y="848" on="1"/>
      </contour>
      <contour>
        <pt x="150" y="700" on="1"/>
        <pt x="150" y="0" on="1"/>
        <pt x="40" y="0" on="1"/>
        <pt x="40" y="700" on="1"/>
      </contour>
    </TTGlyph>
    <TTGlyph name="Ibreve" xMin="-17" yMin="0" xMax="207" yMax="848">
      <contour>
        <pt x="207" y="848" on="1"/>
        <pt x="207" y="794" on="0"/>
        <pt x="149" y="733" on="0"/>
        <pt x="94" y="733" on="1"/>
        <pt x="39" y="733" on="0"/>
        <pt x="-16" y="794" on="0"/>
        <pt x="-17" y="848" on="1"/>
        <pt x="48" y="848" on="1"/>
        <pt x="50" y="821" on="0"/>
        <pt x="72" y="801" on="0"/>
        <pt x="94" y="801" on="1"/>
        <pt x="117" y="801" on="0"/>
        <pt x="140" y="821" on="0"/>
        <pt x="142" y="848" on="1"/>
      </contour>
      <contour>
        <pt x="150" y="700" on="1"/>
        <pt x="150" y="0" on="1"/>
        <pt x="40" y="0" on="1"/>
        <pt x="40" y="700" on="1"/>
      </contour>
    </TTGlyph>
    <TTGlyph name="Icircumflex" xMin="-43" yMin="0" xMax="234" yMax="848">
      <contour>
        <pt x="46" y="848" on="1"/>
        <pt x="145" y="848" on="1"/>
        <pt x="234" y="737" on="1"/>
        <pt x="140" y="737" on="1"/>
        <pt x="95" y="792" on="1"/>
        <pt x="51" y="737" on="1"/>
        <pt x="-43" y="737" on="1"/>
      </contour>
      <contour>
        <pt x="150" y="700" on="1"/>
        <pt x="150" y="0" on="1"/>
        <pt x="40" y="0" on="1"/>
        <pt x="40" y="700" on="1"/>
      </contour>
    </TTGlyph>
    <TTGlyph name="Idieresis" xMin="-29" yMin="0" xMax="219" yMax="833">
      <contour>
        <pt x="67" y="737" on="1"/>
        <pt x="-29" y="737" on="1"/>
        <pt x="-29" y="833" on="1"/>
        <pt x="67" y="833" on="1"/>
      </contour>
      <contour>
        <pt x="219" y="737" on="1"/>
        <pt x="123" y="737" on="1"/>
        <pt x="123" y="833" on="1"/>
        <pt x="219" y="833" on="1"/>
      </contour>
      <contour>
        <pt x="150" y="700" on="1"/>
        <pt x="150" y="0" on="1"/>
        <pt x="40" y="0" on="1"/>
        <pt x="40" y="700" on="1"/>
      </contour>
    </TTGlyph>
    <TTGlyph name="Idotaccent" xMin="40" yMin="0" xMax="150" yMax="833">
      <contour>
        <pt x="143" y="737" on="1"/>
        <pt x="47" y="737" on="1"/>
        <pt x="47" y="833" on="1"/>
        <pt x="143" y="833" on="1"/>
      </contour>
      <contour>
        <pt x="150" y="700" on="1"/>
        <pt x="150" y="0" on="1"/>
        <pt x="40" y="0" on="1"/>
        <pt x="40" y="700" on="1"/>
      </contour>
    </TTGlyph>
    <TTGlyph name="Igrave" xMin="-25" yMin="0" xMax="156" yMax="848">
      <contour>
        <pt x="156" y="737" on="1"/>
        <pt x="77" y="737" on="1"/>
        <pt x="-25" y="848" on="1"/>
        <pt x="88" y="848" on="1"/>
      </contour>
      <contour>
        <pt x="150" y="700" on="1"/>
        <pt x="150" y="0" on="1"/>
        <pt x="40" y="0" on="1"/>
        <pt x="40" y="700" on="1"/>
      </contour>
    </TTGlyph>
    <TTGlyph name="Imacron" xMin="-20" yMin="0" xMax="210" yMax="819">
      <contour>
        <pt x="210" y="741" on="1"/>
        <pt x="-20" y="741" on="1"/>
        <pt x="-20" y="819" on="1"/>
        <pt x="210" y="819" on="1"/>
      </contour>
      <contour>
        <pt x="150" y="700" on="1"/>
        <pt x="150" y="0" on="1"/>
        <pt x="40" y="0" on="1"/>
        <pt x="40" y="700" on="1"/>
      </contour>
    </TTGlyph>
    <TTGlyph name="Iogonek" xMin="16" yMin="-147" xMax="171" yMax="700">
      <contour>
        <pt x="150" y="700" on="1"/>
        <pt x="150" y="0" on="1"/>
        <pt x="130" y="0" on="1"/>
        <pt x="100" y="-25" on="0"/>
        <pt x="100" y="-58" on="1"/>
        <pt x="100" y="-71" on="0"/>
        <pt x="120" y="-86" on="0"/>
        <pt x="135" y="-86" on="1"/>
        <pt x="151" y="-86" on="0"/>
        <pt x="168" y="-81" on="0"/>
        <pt x="171" y="-80" on="1"/>
        <pt x="171" y="-136" on="1"/>
        <pt x="154" y="-143" on="0"/>
        <pt x="125" y="-147" on="0"/>
        <pt x="103" y="-147" on="1"/>
        <pt x="62" y="-147" on="0"/>
        <pt x="16" y="-115" on="0"/>
        <pt x="16" y="-85" on="1"/>
        <pt x="16" y="-61" on="0"/>
        <pt x="50" y="-17" on="0"/>
        <pt x="83" y="0" on="1"/>
        <pt x="40" y="0" on="1"/>
        <pt x="40" y="700" on="1"/>
      </contour>
    </TTGlyph>
    <TTGlyph name="Itilde" xMin="-40" yMin="0" xMax="231" yMax="842">
      <contour>
        <pt x="150" y="813" on="0"/>
        <pt x="170" y="825" on="0"/>
        <pt x="178" y="842" on="1"/>
        <pt x="231" y="805" on="1"/>
        <pt x="206" y="737" on="0"/>
        <pt x="146" y="737" on="1"/>
        <pt x="131" y="737" on="0"/>
        <pt x="108" y="744" on="0"/>
        <pt x="93" y="751" on="1"/>
        <pt x="71" y="762" on="0"/>
        <pt x="56" y="762" on="1"/>
        <pt x="41" y="762" on="0"/>
        <pt x="21" y="750" on="0"/>
        <pt x="13" y="733" on="1"/>
        <pt x="-40" y="770" on="1"/>
        <pt x="-15" y="838" on="0"/>
        <pt x="45" y="838" on="1"/>
        <pt x="60" y="838" on="0"/>
        <pt x="83" y="831" on="0"/>
        <pt x="98" y="824" on="1"/>
        <pt x="120" y="813" on="0"/>
        <pt x="135" y="813" on="1"/>
      </contour>
      <contour>
        <pt x="150" y="700" on="1"/>
        <pt x="150" y="0" on="1"/>
        <pt x="40" y="0" on="1"/>
        <pt x="40" y="700" on="1"/>
      </contour>
    </TTGlyph>
    <TTGlyph name="J" xMin="10" yMin="-2" xMax="221" yMax="700">
      <contour>
        <pt x="22" y="99" on="0"/>
        <pt x="48" y="99" on="1"/>
        <pt x="78" y="99" on="0"/>
        <pt x="111" y="128" on="0"/>
        <pt x="111" y="166" on="1"/>
        <pt x="111" y="700" on="1"/>
        <pt x="221" y="700" on="1"/>
        <pt x="221" y="174" on="1"/>
        <pt x="221" y="-2" on="0"/>
        <pt x="63" y="-2" on="1"/>
        <pt x="28" y="-2" on="0"/>
        <pt x="10" y="0" on="1"/>
        <pt x="10" y="100" on="1"/>
      </contour>
    </TTGlyph>
    <TTGlyph name="Jcircumflex" xMin="9" yMin="-2" xMax="286" yMax="848">
      <contour>
        <pt x="98" y="848" on="1"/>
        <pt x="197" y="848" on="1"/>
        <pt x="286" y="737" on="1"/>
        <pt x="192" y="737" on="1"/>
        <pt x="147" y="792" on="1"/>
        <pt x="103" y="737" on="1"/>
        <pt x="9" y="737" on="1"/>
      </contour>
      <contour>
        <pt x="22" y="99" on="0"/>
        <pt x="48" y="99" on="1"/>
        <pt x="78" y="99" on="0"/>
        <pt x="111" y="128" on="0"/>
        <pt x="111" y="166" on="1"/>
        <pt x="111" y="700" on="1"/>
        <pt x="221" y="700" on="1"/>
        <pt x="221" y="174" on="1"/>
        <pt x="221" y="-2" on="0"/>
        <pt x="63" y="-2" on="1"/>
        <pt x="28" y="-2" on="0"/>
        <pt x="10" y="0" on="1"/>
        <pt x="10" y="100" on="1"/>
      </contour>
    </TTGlyph>
    <TTGlyph name="K" xMin="40" yMin="0" xMax="404" yMax="700">
      <contour>
        <pt x="150" y="215" on="1"/>
        <pt x="150" y="0" on="1"/>
        <pt x="40" y="0" on="1"/>
        <pt x="40" y="700" on="1"/>
        <pt x="150" y="700" on="1"/>
        <pt x="150" y="395" on="1"/>
        <pt x="294" y="700" on="1"/>
        <pt x="404" y="700" on="1"/>
        <pt x="251" y="388" on="1"/>
        <pt x="404" y="0" on="1"/>
        <pt x="291" y="0" on="1"/>
        <pt x="184" y="279" on="1"/>
      </contour>
    </TTGlyph>
    <TTGlyph name="L" xMin="40" yMin="0" xMax="331" yMax="700">
      <contour>
        <pt x="150" y="700" on="1"/>
        <pt x="150" y="100" on="1"/>
        <pt x="331" y="100" on="1"/>
        <pt x="331" y="0" on="1"/>
        <pt x="40" y="0" on="1"/>
        <pt x="40" y="700" on="1"/>
      </contour>
    </TTGlyph>
    <TTGlyph name="Lacute" xMin="40" yMin="0" xMax="331" yMax="848">
      <contour>
        <pt x="146" y="737" on="1"/>
        <pt x="72" y="737" on="1"/>
        <pt x="140" y="848" on="1"/>
        <pt x="248" y="848" on="1"/>
      </contour>
      <contour>
        <pt x="150" y="700" on="1"/>
        <pt x="150" y="100" on="1"/>
        <pt x="331" y="100" on="1"/>
        <pt x="331" y="0" on="1"/>
        <pt x="40" y="0" on="1"/>
        <pt x="40" y="700" on="1"/>
      </contour>
    </TTGlyph>
    <TTGlyph name="Lcaron" xMin="40" yMin="0" xMax="331" yMax="700">
      <contour>
        <pt x="150" y="700" on="1"/>
        <pt x="150" y="100" on="1"/>
        <pt x="331" y="100" on="1"/>
        <pt x="331" y="0" on="1"/>
        <pt x="40" y="0" on="1"/>
        <pt x="40" y="700" on="1"/>
      </contour>
      <contour>
        <pt x="211" y="700" on="1"/>
        <pt x="317" y="700" on="1"/>
        <pt x="317" y="605" on="1"/>
        <pt x="269" y="494" on="1"/>
        <pt x="224" y="494" on="1"/>
        <pt x="253" y="594" on="1"/>
        <pt x="211" y="594" on="1"/>
      </contour>
    </TTGlyph>
    <TTGlyph name="Ldot" xMin="40" yMin="0" xMax="331" yMax="700">
      <contour>
        <pt x="150" y="700" on="1"/>
        <pt x="150" y="100" on="1"/>
        <pt x="331" y="100" on="1"/>
        <pt x="331" y="0" on="1"/>
        <pt x="40" y="0" on="1"/>
        <pt x="40" y="700" on="1"/>
      </contour>
      <contour>
        <pt x="316" y="297" on="1"/>
        <pt x="210" y="297" on="1"/>
        <pt x="210" y="403" on="1"/>
        <pt x="316" y="403" on="1"/>
      </contour>
    </TTGlyph>
    <TTGlyph name="Lslash" xMin="0" yMin="0" xMax="340" yMax="700">
      <contour>
        <pt x="49" y="247" on="1"/>
        <pt x="49" y="700" on="1"/>
        <pt x="159" y="700" on="1"/>
        <pt x="159" y="365" on="1"/>
        <pt x="280" y="495" on="1"/>
        <pt x="280" y="395" on="1"/>
        <pt x="159" y="265" on="1"/>
        <pt x="159" y="100" on="1"/>
        <pt x="340" y="100" on="1"/>
        <pt x="340" y="0" on="1"/>
        <pt x="49" y="0" on="1"/>
        <pt x="49" y="147" on="1"/>
        <pt x="0" y="95" on="1"/>
        <pt x="0" y="195" on="1"/>
      </contour>
    </TTGlyph>
    <TTGlyph name="M" xMin="39" yMin="0" xMax="501" yMax="700">
      <contour>
        <pt x="348" y="700" on="1"/>
        <pt x="501" y="700" on="1"/>
        <pt x="501" y="0" on="1"/>
        <pt x="397" y="0" on="1"/>
        <pt x="397" y="502" on="1"/>
        <pt x="321" y="0" on="1"/>
        <pt x="217" y="0" on="1"/>
        <pt x="135" y="495" on="1"/>
        <pt x="135" y="0" on="1"/>
        <pt x="39" y="0" on="1"/>
        <pt x="39" y="700" on="1"/>
        <pt x="192" y="700" on="1"/>
        <pt x="273" y="203" on="1"/>
      </contour>
    </TTGlyph>
    <TTGlyph name="N" xMin="39" yMin="0" xMax="388" yMax="700">
      <contour>
        <pt x="138" y="0" on="1"/>
        <pt x="39" y="0" on="1"/>
        <pt x="39" y="700" on="1"/>
        <pt x="177" y="700" on="1"/>
        <pt x="290" y="281" on="1"/>
        <pt x="290" y="700" on="1"/>
        <pt x="388" y="700" on="1"/>
        <pt x="388" y="0" on="1"/>
        <pt x="275" y="0" on="1"/>
        <pt x="138" y="507" on="1"/>
      </contour>
    </TTGlyph>
    <TTGlyph name="Nacute" xMin="39" yMin="0" xMax="388" yMax="848">
      <contour>
        <pt x="229" y="737" on="1"/>
        <pt x="155" y="737" on="1"/>
        <pt x="223" y="848" on="1"/>
        <pt x="331" y="848" on="1"/>
      </contour>
      <contour>
        <pt x="138" y="0" on="1"/>
        <pt x="39" y="0" on="1"/>
        <pt x="39" y="700" on="1"/>
        <pt x="177" y="700" on="1"/>
        <pt x="290" y="281" on="1"/>
        <pt x="290" y="700" on="1"/>
        <pt x="388" y="700" on="1"/>
        <pt x="388" y="0" on="1"/>
        <pt x="275" y="0" on="1"/>
        <pt x="138" y="507" on="1"/>
      </contour>
    </TTGlyph>
    <TTGlyph name="Ncaron" xMin="39" yMin="0" xMax="388" yMax="848">
      <contour>
        <pt x="213" y="792" on="1"/>
        <pt x="258" y="848" on="1"/>
        <pt x="352" y="848" on="1"/>
        <pt x="263" y="737" on="1"/>
        <pt x="164" y="737" on="1"/>
        <pt x="75" y="848" on="1"/>
        <pt x="169" y="848" on="1"/>
      </contour>
      <contour>
        <pt x="138" y="0" on="1"/>
        <pt x="39" y="0" on="1"/>
        <pt x="39" y="700" on="1"/>
        <pt x="177" y="700" on="1"/>
        <pt x="290" y="281" on="1"/>
        <pt x="290" y="700" on="1"/>
        <pt x="388" y="700" on="1"/>
        <pt x="388" y="0" on="1"/>
        <pt x="275" y="0" on="1"/>
        <pt x="138" y="507" on="1"/>
      </contour>
    </TTGlyph>
    <TTGlyph name="Ntilde" xMin="39" yMin="0" xMax="388" yMax="842">
      <contour>
        <pt x="268" y="813" on="0"/>
        <pt x="288" y="825" on="0"/>
        <pt x="296" y="842" on="1"/>
        <pt x="349" y="805" on="1"/>
        <pt x="324" y="737" on="0"/>
        <pt x="264" y="737" on="1"/>
        <pt x="249" y="737" on="0"/>
        <pt x="226" y="744" on="0"/>
        <pt x="211" y="751" on="1"/>
        <pt x="189" y="762" on="0"/>
        <pt x="174" y="762" on="1"/>
        <pt x="159" y="762" on="0"/>
        <pt x="139" y="750" on="0"/>
        <pt x="131" y="733" on="1"/>
        <pt x="78" y="770" on="1"/>
        <pt x="103" y="838" on="0"/>
        <pt x="163" y="838" on="1"/>
        <pt x="178" y="838" on="0"/>
        <pt x="201" y="831" on="0"/>
        <pt x="216" y="824" on="1"/>
        <pt x="238" y="813" on="0"/>
        <pt x="253" y="813" on="1"/>
      </contour>
      <contour>
        <pt x="138" y="0" on="1"/>
        <pt x="39" y="0" on="1"/>
        <pt x="39" y="700" on="1"/>
        <pt x="177" y="700" on="1"/>
        <pt x="290" y="281" on="1"/>
        <pt x="290" y="700" on="1"/>
        <pt x="388" y="700" on="1"/>
        <pt x="388" y="0" on="1"/>
        <pt x="275" y="0" on="1"/>
        <pt x="138" y="507" on="1"/>
      </contour>
    </TTGlyph>
    <TTGlyph name="O" xMin="31" yMin="-8" xMax="365" yMax="708">
      <contour>
        <pt x="31" y="616" on="0"/>
        <pt x="117" y="708" on="0"/>
        <pt x="198" y="708" on="1"/>
        <pt x="279" y="708" on="0"/>
        <pt x="365" y="616" on="0"/>
        <pt x="365" y="532" on="1"/>
        <pt x="365" y="168" on="1"/>
        <pt x="365" y="84" on="0"/>
        <pt x="279" y="-8" on="0"/>
        <pt x="198" y="-8" on="1"/>
        <pt x="117" y="-8" on="0"/>
        <pt x="31" y="84" on="0"/>
        <pt x="31" y="168" on="1"/>
        <pt x="31" y="532" on="1"/>
      </contour>
      <contour>
        <pt x="141" y="92" on="0"/>
        <pt x="198" y="92" on="1"/>
        <pt x="255" y="92" on="0"/>
        <pt x="255" y="161" on="1"/>
        <pt x="255" y="539" on="1"/>
        <pt x="255" y="608" on="0"/>
        <pt x="198" y="608" on="1"/>
        <pt x="141" y="608" on="0"/>
        <pt x="141" y="539" on="1"/>
        <pt x="141" y="161" on="1"/>
      </contour>
    </TTGlyph>
    <TTGlyph name="OE" xMin="30" yMin="0" xMax="558" yMax="700">
      <contour>
        <pt x="519" y="405" on="1"/>
        <pt x="519" y="305" on="1"/>
        <pt x="368" y="305" on="1"/>
        <pt x="368" y="100" on="1"/>
        <pt x="558" y="100" on="1"/>
        <pt x="558" y="0" on="1"/>
        <pt x="194" y="0" on="1"/>
        <pt x="112" y="0" on="0"/>
        <pt x="30" y="88" on="0"/>
        <pt x="30" y="173" on="1"/>
        <pt x="30" y="527" on="1"/>
        <pt x="30" y="612" on="0"/>
        <pt x="112" y="700" on="0"/>
        <pt x="194" y="700" on="1"/>
        <pt x="558" y="700" on="1"/>
        <pt x="558" y="600" on="1"/>
        <pt x="368" y="600" on="1"/>
        <pt x="368" y="405" on="1"/>
      </contour>
      <contour>
        <pt x="196" y="600" on="1"/>
        <pt x="169" y="600" on="0"/>
        <pt x="140" y="568" on="0"/>
        <pt x="140" y="532" on="1"/>
        <pt x="140" y="168" on="1"/>
        <pt x="140" y="132" on="0"/>
        <pt x="169" y="100" on="0"/>
        <pt x="196" y="100" on="1"/>
        <pt x="258" y="100" on="1"/>
        <pt x="258" y="600" on="1"/>
      </contour>
    </TTGlyph>
    <TTGlyph name="Oacute" xMin="31" yMin="-8" xMax="365" yMax="848">
      <contour>
        <pt x="214" y="737" on="1"/>
        <pt x="140" y="737" on="1"/>
        <pt x="208" y="848" on="1"/>
        <pt x="316" y="848" on="1"/>
      </contour>
      <contour>
        <pt x="31" y="616" on="0"/>
        <pt x="117" y="708" on="0"/>
        <pt x="198" y="708" on="1"/>
        <pt x="279" y="708" on="0"/>
        <pt x="365" y="616" on="0"/>
        <pt x="365" y="532" on="1"/>
        <pt x="365" y="168" on="1"/>
        <pt x="365" y="84" on="0"/>
        <pt x="279" y="-8" on="0"/>
        <pt x="198" y="-8" on="1"/>
        <pt x="117" y="-8" on="0"/>
        <pt x="31" y="84" on="0"/>
        <pt x="31" y="168" on="1"/>
        <pt x="31" y="532" on="1"/>
      </contour>
      <contour>
        <pt x="141" y="92" on="0"/>
        <pt x="198" y="92" on="1"/>
        <pt x="255" y="92" on="0"/>
        <pt x="255" y="161" on="1"/>
        <pt x="255" y="539" on="1"/>
        <pt x="255" y="608" on="0"/>
        <pt x="198" y="608" on="1"/>
        <pt x="141" y="608" on="0"/>
        <pt x="141" y="539" on="1"/>
        <pt x="141" y="161" on="1"/>
      </contour>
    </TTGlyph>
    <TTGlyph name="Obreve" xMin="31" yMin="-8" xMax="365" yMax="848">
      <contour>
        <pt x="310" y="848" on="1"/>
        <pt x="310" y="794" on="0"/>
        <pt x="252" y="733" on="0"/>
        <pt x="197" y="733" on="1"/>
        <pt x="142" y="733" on="0"/>
        <pt x="87" y="794" on="0"/>
        <pt x="86" y="848" on="1"/>
        <pt x="151" y="848" on="1"/>
        <pt x="153" y="821" on="0"/>
        <pt x="175" y="801" on="0"/>
        <pt x="197" y="801" on="1"/>
        <pt x="220" y="801" on="0"/>
        <pt x="243" y="821" on="0"/>
        <pt x="245" y="848" on="1"/>
      </contour>
      <contour>
        <pt x="31" y="616" on="0"/>
        <pt x="117" y="708" on="0"/>
        <pt x="198" y="708" on="1"/>
        <pt x="279" y="708" on="0"/>
        <pt x="365" y="616" on="0"/>
        <pt x="365" y="532" on="1"/>
        <pt x="365" y="168" on="1"/>
        <pt x="365" y="84" on="0"/>
        <pt x="279" y="-8" on="0"/>
        <pt x="198" y="-8" on="1"/>
        <pt x="117" y="-8" on="0"/>
        <pt x="31" y="84" on="0"/>
        <pt x="31" y="168" on="1"/>
        <pt x="31" y="532" on="1"/>
      </contour>
      <contour>
        <pt x="141" y="92" on="0"/>
        <pt x="198" y="92" on="1"/>
        <pt x="255" y="92" on="0"/>
        <pt x="255" y="161" on="1"/>
        <pt x="255" y="539" on="1"/>
        <pt x="255" y="608" on="0"/>
        <pt x="198" y="608" on="1"/>
        <pt x="141" y="608" on="0"/>
        <pt x="141" y="539" on="1"/>
        <pt x="141" y="161" on="1"/>
      </contour>
    </TTGlyph>
    <TTGlyph name="Ocircumflex" xMin="31" yMin="-8" xMax="365" yMax="848">
      <contour>
        <pt x="148" y="848" on="1"/>
        <pt x="247" y="848" on="1"/>
        <pt x="336" y="737" on="1"/>
        <pt x="242" y="737" on="1"/>
        <pt x="197" y="792" on="1"/>
        <pt x="153" y="737" on="1"/>
        <pt x="59" y="737" on="1"/>
      </contour>
      <contour>
        <pt x="31" y="616" on="0"/>
        <pt x="117" y="708" on="0"/>
        <pt x="198" y="708" on="1"/>
        <pt x="279" y="708" on="0"/>
        <pt x="365" y="616" on="0"/>
        <pt x="365" y="532" on="1"/>
        <pt x="365" y="168" on="1"/>
        <pt x="365" y="84" on="0"/>
        <pt x="279" y="-8" on="0"/>
        <pt x="198" y="-8" on="1"/>
        <pt x="117" y="-8" on="0"/>
        <pt x="31" y="84" on="0"/>
        <pt x="31" y="168" on="1"/>
        <pt x="31" y="532" on="1"/>
      </contour>
      <contour>
        <pt x="141" y="92" on="0"/>
        <pt x="198" y="92" on="1"/>
        <pt x="255" y="92" on="0"/>
        <pt x="255" y="161" on="1"/>
        <pt x="255" y="539" on="1"/>
        <pt x="255" y="608" on="0"/>
        <pt x="198" y="608" on="1"/>
        <pt x="141" y="608" on="0"/>
        <pt x="141" y="539" on="1"/>
        <pt x="141" y="161" on="1"/>
      </contour>
    </TTGlyph>
    <TTGlyph name="Odieresis" xMin="31" yMin="-8" xMax="365" yMax="833">
      <contour>
        <pt x="170" y="737" on="1"/>
        <pt x="74" y="737" on="1"/>
        <pt x="74" y="833" on="1"/>
        <pt x="170" y="833" on="1"/>
      </contour>
      <contour>
        <pt x="322" y="737" on="1"/>
        <pt x="226" y="737" on="1"/>
        <pt x="226" y="833" on="1"/>
        <pt x="322" y="833" on="1"/>
      </contour>
      <contour>
        <pt x="31" y="616" on="0"/>
        <pt x="117" y="708" on="0"/>
        <pt x="198" y="708" on="1"/>
        <pt x="279" y="708" on="0"/>
        <pt x="365" y="616" on="0"/>
        <pt x="365" y="532" on="1"/>
        <pt x="365" y="168" on="1"/>
        <pt x="365" y="84" on="0"/>
        <pt x="279" y="-8" on="0"/>
        <pt x="198" y="-8" on="1"/>
        <pt x="117" y="-8" on="0"/>
        <pt x="31" y="84" on="0"/>
        <pt x="31" y="168" on="1"/>
        <pt x="31" y="532" on="1"/>
      </contour>
      <contour>
        <pt x="141" y="92" on="0"/>
        <pt x="198" y="92" on="1"/>
        <pt x="255" y="92" on="0"/>
        <pt x="255" y="161" on="1"/>
        <pt x="255" y="539" on="1"/>
        <pt x="255" y="608" on="0"/>
        <pt x="198" y="608" on="1"/>
        <pt x="141" y="608" on="0"/>
        <pt x="141" y="539" on="1"/>
        <pt x="141" y="161" on="1"/>
      </contour>
    </TTGlyph>
    <TTGlyph name="Ograve" xMin="31" yMin="-8" xMax="365" yMax="848">
      <contour>
        <pt x="258" y="737" on="1"/>
        <pt x="179" y="737" on="1"/>
        <pt x="77" y="848" on="1"/>
        <pt x="190" y="848" on="1"/>
      </contour>
      <contour>
        <pt x="31" y="616" on="0"/>
        <pt x="117" y="708" on="0"/>
        <pt x="198" y="708" on="1"/>
        <pt x="279" y="708" on="0"/>
        <pt x="365" y="616" on="0"/>
        <pt x="365" y="532" on="1"/>
        <pt x="365" y="168" on="1"/>
        <pt x="365" y="84" on="0"/>
        <pt x="279" y="-8" on="0"/>
        <pt x="198" y="-8" on="1"/>
        <pt x="117" y="-8" on="0"/>
        <pt x="31" y="84" on="0"/>
        <pt x="31" y="168" on="1"/>
        <pt x="31" y="532" on="1"/>
      </contour>
      <contour>
        <pt x="141" y="92" on="0"/>
        <pt x="198" y="92" on="1"/>
        <pt x="255" y="92" on="0"/>
        <pt x="255" y="161" on="1"/>
        <pt x="255" y="539" on="1"/>
        <pt x="255" y="608" on="0"/>
        <pt x="198" y="608" on="1"/>
        <pt x="141" y="608" on="0"/>
        <pt x="141" y="539" on="1"/>
        <pt x="141" y="161" on="1"/>
      </contour>
    </TTGlyph>
    <TTGlyph name="Ohungarumlaut" xMin="31" yMin="-8" xMax="365" yMax="848">
      <contour>
        <pt x="149" y="737" on="1"/>
        <pt x="82" y="737" on="1"/>
        <pt x="132" y="848" on="1"/>
        <pt x="232" y="848" on="1"/>
      </contour>
      <contour>
        <pt x="279" y="737" on="1"/>
        <pt x="213" y="737" on="1"/>
        <pt x="262" y="848" on="1"/>
        <pt x="363" y="848" on="1"/>
      </contour>
      <contour>
        <pt x="31" y="616" on="0"/>
        <pt x="117" y="708" on="0"/>
        <pt x="198" y="708" on="1"/>
        <pt x="279" y="708" on="0"/>
        <pt x="365" y="616" on="0"/>
        <pt x="365" y="532" on="1"/>
        <pt x="365" y="168" on="1"/>
        <pt x="365" y="84" on="0"/>
        <pt x="279" y="-8" on="0"/>
        <pt x="198" y="-8" on="1"/>
        <pt x="117" y="-8" on="0"/>
        <pt x="31" y="84" on="0"/>
        <pt x="31" y="168" on="1"/>
        <pt x="31" y="532" on="1"/>
      </contour>
      <contour>
        <pt x="141" y="92" on="0"/>
        <pt x="198" y="92" on="1"/>
        <pt x="255" y="92" on="0"/>
        <pt x="255" y="161" on="1"/>
        <pt x="255" y="539" on="1"/>
        <pt x="255" y="608" on="0"/>
        <pt x="198" y="608" on="1"/>
        <pt x="141" y="608" on="0"/>
        <pt x="141" y="539" on="1"/>
        <pt x="141" y="161" on="1"/>
      </contour>
    </TTGlyph>
    <TTGlyph name="Omacron" xMin="31" yMin="-8" xMax="365" yMax="819">
      <contour>
        <pt x="313" y="741" on="1"/>
        <pt x="83" y="741" on="1"/>
        <pt x="83" y="819" on="1"/>
        <pt x="313" y="819" on="1"/>
      </contour>
      <contour>
        <pt x="31" y="616" on="0"/>
        <pt x="117" y="708" on="0"/>
        <pt x="198" y="708" on="1"/>
        <pt x="279" y="708" on="0"/>
        <pt x="365" y="616" on="0"/>
        <pt x="365" y="532" on="1"/>
        <pt x="365" y="168" on="1"/>
        <pt x="365" y="84" on="0"/>
        <pt x="279" y="-8" on="0"/>
        <pt x="198" y="-8" on="1"/>
        <pt x="117" y="-8" on="0"/>
        <pt x="31" y="84" on="0"/>
        <pt x="31" y="168" on="1"/>
        <pt x="31" y="532" on="1"/>
      </contour>
      <contour>
        <pt x="141" y="92" on="0"/>
        <pt x="198" y="92" on="1"/>
        <pt x="255" y="92" on="0"/>
        <pt x="255" y="161" on="1"/>
        <pt x="255" y="539" on="1"/>
        <pt x="255" y="608" on="0"/>
        <pt x="198" y="608" on="1"/>
        <pt x="141" y="608" on="0"/>
        <pt x="141" y="539" on="1"/>
        <pt x="141" y="161" on="1"/>
      </contour>
    </TTGlyph>
    <TTGlyph name="Oslash" xMin="31" yMin="-37" xMax="365" yMax="737">
      <contour>
        <pt x="31" y="92" on="0"/>
        <pt x="31" y="168" on="1"/>
        <pt x="31" y="532" on="1"/>
        <pt x="31" y="616" on="0"/>
        <pt x="117" y="708" on="0"/>
        <pt x="198" y="708" on="1"/>
        <pt x="258" y="708" on="0"/>
        <pt x="298" y="682" on="1"/>
        <pt x="318" y="737" on="1"/>
        <pt x="355" y="724" on="1"/>
        <pt x="329" y="653" on="1"/>
        <pt x="365" y="609" on="0"/>
        <pt x="365" y="532" on="1"/>
        <pt x="365" y="168" on="1"/>
        <pt x="365" y="84" on="0"/>
        <pt x="279" y="-8" on="0"/>
        <pt x="198" y="-8" on="1"/>
        <pt x="136" y="-8" on="0"/>
        <pt x="98" y="17" on="1"/>
        <pt x="78" y="-37" on="1"/>
        <pt x="41" y="-24" on="1"/>
        <pt x="66" y="46" on="1"/>
      </contour>
      <contour>
        <pt x="253" y="560" on="1"/>
        <pt x="246" y="608" on="0"/>
        <pt x="198" y="608" on="1"/>
        <pt x="141" y="608" on="0"/>
        <pt x="141" y="539" on="1"/>
        <pt x="141" y="251" on="1"/>
      </contour>
      <contour>
        <pt x="255" y="92" on="0"/>
        <pt x="255" y="161" on="1"/>
        <pt x="255" y="449" on="1"/>
        <pt x="142" y="140" on="1"/>
        <pt x="150" y="92" on="0"/>
        <pt x="198" y="92" on="1"/>
      </contour>
    </TTGlyph>
    <TTGlyph name="Oslashacute" xMin="31" yMin="-37" xMax="365" yMax="848">
      <contour>
        <pt x="214" y="737" on="1"/>
        <pt x="140" y="737" on="1"/>
        <pt x="208" y="848" on="1"/>
        <pt x="316" y="848" on="1"/>
      </contour>
      <contour>
        <pt x="31" y="616" on="0"/>
        <pt x="117" y="708" on="0"/>
        <pt x="198" y="708" on="1"/>
        <pt x="258" y="708" on="0"/>
        <pt x="298" y="682" on="1"/>
        <pt x="318" y="737" on="1"/>
        <pt x="355" y="724" on="1"/>
        <pt x="329" y="653" on="1"/>
        <pt x="365" y="609" on="0"/>
        <pt x="365" y="532" on="1"/>
        <pt x="365" y="168" on="1"/>
        <pt x="365" y="84" on="0"/>
        <pt x="279" y="-8" on="0"/>
        <pt x="198" y="-8" on="1"/>
        <pt x="136" y="-8" on="0"/>
        <pt x="98" y="17" on="1"/>
        <pt x="78" y="-37" on="1"/>
        <pt x="41" y="-24" on="1"/>
        <pt x="66" y="46" on="1"/>
        <pt x="31" y="92" on="0"/>
        <pt x="31" y="168" on="1"/>
        <pt x="31" y="532" on="1"/>
      </contour>
      <contour>
        <pt x="253" y="560" on="1"/>
        <pt x="246" y="608" on="0"/>
        <pt x="198" y="608" on="1"/>
        <pt x="141" y="608" on="0"/>
        <pt x="141" y="539" on="1"/>
        <pt x="141" y="251" on="1"/>
      </contour>
      <contour>
        <pt x="255" y="92" on="0"/>
        <pt x="255" y="161" on="1"/>
        <pt x="255" y="449" on="1"/>
        <pt x="142" y="140" on="1"/>
        <pt x="150" y="92" on="0"/>
        <pt x="198" y="92" on="1"/>
      </contour>
    </TTGlyph>
    <TTGlyph name="Otilde" xMin="31" yMin="-8" xMax="365" yMax="842">
      <contour>
        <pt x="253" y="813" on="0"/>
        <pt x="273" y="825" on="0"/>
        <pt x="281" y="842" on="1"/>
        <pt x="334" y="805" on="1"/>
        <pt x="309" y="737" on="0"/>
        <pt x="249" y="737" on="1"/>
        <pt x="234" y="737" on="0"/>
        <pt x="211" y="744" on="0"/>
        <pt x="196" y="751" on="1"/>
        <pt x="174" y="762" on="0"/>
        <pt x="159" y="762" on="1"/>
        <pt x="144" y="762" on="0"/>
        <pt x="124" y="750" on="0"/>
        <pt x="116" y="733" on="1"/>
        <pt x="63" y="770" on="1"/>
        <pt x="88" y="838" on="0"/>
        <pt x="148" y="838" on="1"/>
        <pt x="163" y="838" on="0"/>
        <pt x="186" y="831" on="0"/>
        <pt x="201" y="824" on="1"/>
        <pt x="223" y="813" on="0"/>
        <pt x="238" y="813" on="1"/>
      </contour>
      <contour>
        <pt x="31" y="616" on="0"/>
        <pt x="117" y="708" on="0"/>
        <pt x="198" y="708" on="1"/>
        <pt x="279" y="708" on="0"/>
        <pt x="365" y="616" on="0"/>
        <pt x="365" y="532" on="1"/>
        <pt x="365" y="168" on="1"/>
        <pt x="365" y="84" on="0"/>
        <pt x="279" y="-8" on="0"/>
        <pt x="198" y="-8" on="1"/>
        <pt x="117" y="-8" on="0"/>
        <pt x="31" y="84" on="0"/>
        <pt x="31" y="168" on="1"/>
        <pt x="31" y="532" on="1"/>
      </contour>
      <contour>
        <pt x="141" y="92" on="0"/>
        <pt x="198" y="92" on="1"/>
        <pt x="255" y="92" on="0"/>
        <pt x="255" y="161" on="1"/>
        <pt x="255" y="539" on="1"/>
        <pt x="255" y="608" on="0"/>
        <pt x="198" y="608" on="1"/>
        <pt x="141" y="608" on="0"/>
        <pt x="141" y="539" on="1"/>
        <pt x="141" y="161" on="1"/>
      </contour>
    </TTGlyph>
    <TTGlyph name="P" xMin="40" yMin="0" xMax="366" yMax="700">
      <contour>
        <pt x="284" y="700" on="0"/>
        <pt x="366" y="612" on="0"/>
        <pt x="366" y="527" on="1"/>
        <pt x="366" y="436" on="1"/>
        <pt x="366" y="351" on="0"/>
        <pt x="284" y="263" on="0"/>
        <pt x="202" y="263" on="1"/>
        <pt x="150" y="263" on="1"/>
        <pt x="150" y="0" on="1"/>
        <pt x="40" y="0" on="1"/>
        <pt x="40" y="700" on="1"/>
        <pt x="202" y="700" on="1"/>
      </contour>
      <contour>
        <pt x="150" y="363" on="1"/>
        <pt x="202" y="363" on="1"/>
        <pt x="229" y="363" on="0"/>
        <pt x="256" y="393" on="0"/>
        <pt x="256" y="429" on="1"/>
        <pt x="256" y="534" on="1"/>
        <pt x="256" y="570" on="0"/>
        <pt x="229" y="600" on="0"/>
        <pt x="202" y="600" on="1"/>
        <pt x="150" y="600" on="1"/>
      </contour>
    </TTGlyph>
    <TTGlyph name="Q" xMin="31" yMin="-43" xMax="385" yMax="708">
      <contour>
        <pt x="31" y="616" on="0"/>
        <pt x="117" y="708" on="0"/>
        <pt x="198" y="708" on="1"/>
        <pt x="279" y="708" on="0"/>
        <pt x="365" y="616" on="0"/>
        <pt x="365" y="532" on="1"/>
        <pt x="365" y="168" on="1"/>
        <pt x="365" y="109" on="0"/>
        <pt x="344" y="70" on="1"/>
        <pt x="348" y="61" on="0"/>
        <pt x="361" y="55" on="0"/>
        <pt x="375" y="55" on="1"/>
        <pt x="385" y="55" on="1"/>
        <pt x="385" y="-43" on="1"/>
        <pt x="370" y="-43" on="1"/>
        <pt x="299" y="-43" on="0"/>
        <pt x="275" y="5" on="1"/>
        <pt x="239" y="-8" on="0"/>
        <pt x="198" y="-8" on="1"/>
        <pt x="117" y="-8" on="0"/>
        <pt x="31" y="84" on="0"/>
        <pt x="31" y="168" on="1"/>
        <pt x="31" y="532" on="1"/>
      </contour>
      <contour>
        <pt x="141" y="92" on="0"/>
        <pt x="198" y="92" on="1"/>
        <pt x="255" y="92" on="0"/>
        <pt x="255" y="161" on="1"/>
        <pt x="255" y="539" on="1"/>
        <pt x="255" y="608" on="0"/>
        <pt x="198" y="608" on="1"/>
        <pt x="141" y="608" on="0"/>
        <pt x="141" y="539" on="1"/>
        <pt x="141" y="161" on="1"/>
      </contour>
    </TTGlyph>
    <TTGlyph name="R" xMin="40" yMin="0" xMax="382" yMax="700">
      <contour>
        <pt x="264" y="17" on="0"/>
        <pt x="260" y="47" on="0"/>
        <pt x="260" y="86" on="1"/>
        <pt x="260" y="196" on="1"/>
        <pt x="260" y="244" on="0"/>
        <pt x="226" y="285" on="0"/>
        <pt x="188" y="285" on="1"/>
        <pt x="150" y="285" on="1"/>
        <pt x="150" y="0" on="1"/>
        <pt x="40" y="0" on="1"/>
        <pt x="40" y="700" on="1"/>
        <pt x="206" y="700" on="1"/>
        <pt x="291" y="700" on="0"/>
        <pt x="369" y="621" on="0"/>
        <pt x="369" y="539" on="1"/>
        <pt x="369" y="484" on="1"/>
        <pt x="369" y="376" on="0"/>
        <pt x="297" y="342" on="1"/>
        <pt x="336" y="326" on="0"/>
        <pt x="370" y="251" on="0"/>
        <pt x="370" y="193" on="1"/>
        <pt x="370" y="85" on="1"/>
        <pt x="370" y="55" on="0"/>
        <pt x="374" y="18" on="0"/>
        <pt x="382" y="0" on="1"/>
        <pt x="270" y="0" on="1"/>
      </contour>
      <contour>
        <pt x="150" y="385" on="1"/>
        <pt x="193" y="385" on="1"/>
        <pt x="226" y="385" on="0"/>
        <pt x="259" y="419" on="0"/>
        <pt x="259" y="459" on="1"/>
        <pt x="259" y="528" on="1"/>
        <pt x="259" y="566" on="0"/>
        <pt x="232" y="600" on="0"/>
        <pt x="203" y="600" on="1"/>
        <pt x="150" y="600" on="1"/>
      </contour>
    </TTGlyph>
    <TTGlyph name="Racute" xMin="40" yMin="0" xMax="382" yMax="848">
      <contour>
        <pt x="211" y="737" on="1"/>
        <pt x="137" y="737" on="1"/>
        <pt x="205" y="848" on="1"/>
        <pt x="313" y="848" on="1"/>
      </contour>
      <contour>
        <pt x="264" y="17" on="0"/>
        <pt x="260" y="47" on="0"/>
        <pt x="260" y="86" on="1"/>
        <pt x="260" y="196" on="1"/>
        <pt x="260" y="244" on="0"/>
        <pt x="226" y="285" on="0"/>
        <pt x="188" y="285" on="1"/>
        <pt x="150" y="285" on="1"/>
        <pt x="150" y="0" on="1"/>
        <pt x="40" y="0" on="1"/>
        <pt x="40" y="700" on="1"/>
        <pt x="206" y="700" on="1"/>
        <pt x="291" y="700" on="0"/>
        <pt x="369" y="621" on="0"/>
        <pt x="369" y="539" on="1"/>
        <pt x="369" y="484" on="1"/>
        <pt x="369" y="376" on="0"/>
        <pt x="297" y="342" on="1"/>
        <pt x="336" y="326" on="0"/>
        <pt x="370" y="251" on="0"/>
        <pt x="370" y="193" on="1"/>
        <pt x="370" y="85" on="1"/>
        <pt x="370" y="55" on="0"/>
        <pt x="374" y="18" on="0"/>
        <pt x="382" y="0" on="1"/>
        <pt x="270" y="0" on="1"/>
      </contour>
      <contour>
        <pt x="150" y="385" on="1"/>
        <pt x="193" y="385" on="1"/>
        <pt x="226" y="385" on="0"/>
        <pt x="259" y="419" on="0"/>
        <pt x="259" y="459" on="1"/>
        <pt x="259" y="528" on="1"/>
        <pt x="259" y="566" on="0"/>
        <pt x="232" y="600" on="0"/>
        <pt x="203" y="600" on="1"/>
        <pt x="150" y="600" on="1"/>
      </contour>
    </TTGlyph>
    <TTGlyph name="Rcaron" xMin="40" yMin="0" xMax="382" yMax="848">
      <contour>
        <pt x="194" y="792" on="1"/>
        <pt x="239" y="848" on="1"/>
        <pt x="333" y="848" on="1"/>
        <pt x="244" y="737" on="1"/>
        <pt x="145" y="737" on="1"/>
        <pt x="56" y="848" on="1"/>
        <pt x="150" y="848" on="1"/>
      </contour>
      <contour>
        <pt x="264" y="17" on="0"/>
        <pt x="260" y="47" on="0"/>
        <pt x="260" y="86" on="1"/>
        <pt x="260" y="196" on="1"/>
        <pt x="260" y="244" on="0"/>
        <pt x="226" y="285" on="0"/>
        <pt x="188" y="285" on="1"/>
        <pt x="150" y="285" on="1"/>
        <pt x="150" y="0" on="1"/>
        <pt x="40" y="0" on="1"/>
        <pt x="40" y="700" on="1"/>
        <pt x="206" y="700" on="1"/>
        <pt x="291" y="700" on="0"/>
        <pt x="369" y="621" on="0"/>
        <pt x="369" y="539" on="1"/>
        <pt x="369" y="484" on="1"/>
        <pt x="369" y="376" on="0"/>
        <pt x="297" y="342" on="1"/>
        <pt x="336" y="326" on="0"/>
        <pt x="370" y="251" on="0"/>
        <pt x="370" y="193" on="1"/>
        <pt x="370" y="85" on="1"/>
        <pt x="370" y="55" on="0"/>
        <pt x="374" y="18" on="0"/>
        <pt x="382" y="0" on="1"/>
        <pt x="270" y="0" on="1"/>
      </contour>
      <contour>
        <pt x="150" y="385" on="1"/>
        <pt x="193" y="385" on="1"/>
        <pt x="226" y="385" on="0"/>
        <pt x="259" y="419" on="0"/>
        <pt x="259" y="459" on="1"/>
        <pt x="259" y="528" on="1"/>
        <pt x="259" y="566" on="0"/>
        <pt x="232" y="600" on="0"/>
        <pt x="203" y="600" on="1"/>
        <pt x="150" y="600" on="1"/>
      </contour>
    </TTGlyph>
    <TTGlyph name="S" xMin="23" yMin="-8" xMax="351" yMax="708">
      <contour>
        <pt x="26" y="617" on="0"/>
        <pt x="108" y="708" on="0"/>
        <pt x="188" y="708" on="1"/>
        <pt x="268" y="708" on="0"/>
        <pt x="350" y="617" on="0"/>
        <pt x="350" y="532" on="1"/>
        <pt x="350" y="510" on="1"/>
        <pt x="246" y="510" on="1"/>
        <pt x="246" y="539" on="1"/>
        <pt x="246" y="575" on="0"/>
        <pt x="218" y="608" on="0"/>
        <pt x="191" y="608" on="1"/>
        <pt x="164" y="608" on="0"/>
        <pt x="136" y="575" on="0"/>
        <pt x="136" y="539" on="1"/>
        <pt x="136" y="495" on="0"/>
        <pt x="183" y="429" on="0"/>
        <pt x="230" y="387" on="1"/>
        <pt x="269" y="351" on="0"/>
        <pt x="317" y="296" on="0"/>
        <pt x="351" y="218" on="0"/>
        <pt x="351" y="168" on="1"/>
        <pt x="351" y="83" on="0"/>
        <pt x="267" y="-8" on="0"/>
        <pt x="187" y="-8" on="1"/>
        <pt x="107" y="-8" on="0"/>
        <pt x="23" y="83" on="0"/>
        <pt x="23" y="168" on="1"/>
        <pt x="23" y="211" on="1"/>
        <pt x="127" y="211" on="1"/>
        <pt x="127" y="161" on="1"/>
        <pt x="127" y="93" on="0"/>
        <pt x="184" y="93" on="1"/>
        <pt x="241" y="93" on="0"/>
        <pt x="241" y="161" on="1"/>
        <pt x="241" y="205" on="0"/>
        <pt x="194" y="271" on="0"/>
        <pt x="147" y="313" on="1"/>
        <pt x="108" y="349" on="0"/>
        <pt x="60" y="404" on="0"/>
        <pt x="26" y="482" on="0"/>
        <pt x="26" y="532" on="1"/>
      </contour>
    </TTGlyph>
    <TTGlyph name="Sacute" xMin="23" yMin="-8" xMax="351" yMax="848">
      <contour>
        <pt x="203" y="737" on="1"/>
        <pt x="129" y="737" on="1"/>
        <pt x="197" y="848" on="1"/>
        <pt x="305" y="848" on="1"/>
      </contour>
      <contour>
        <pt x="26" y="617" on="0"/>
        <pt x="108" y="708" on="0"/>
        <pt x="188" y="708" on="1"/>
        <pt x="268" y="708" on="0"/>
        <pt x="350" y="617" on="0"/>
        <pt x="350" y="532" on="1"/>
        <pt x="350" y="510" on="1"/>
        <pt x="246" y="510" on="1"/>
        <pt x="246" y="539" on="1"/>
        <pt x="246" y="575" on="0"/>
        <pt x="218" y="608" on="0"/>
        <pt x="191" y="608" on="1"/>
        <pt x="164" y="608" on="0"/>
        <pt x="136" y="575" on="0"/>
        <pt x="136" y="539" on="1"/>
        <pt x="136" y="495" on="0"/>
        <pt x="183" y="429" on="0"/>
        <pt x="230" y="387" on="1"/>
        <pt x="269" y="351" on="0"/>
        <pt x="317" y="296" on="0"/>
        <pt x="351" y="218" on="0"/>
        <pt x="351" y="168" on="1"/>
        <pt x="351" y="83" on="0"/>
        <pt x="267" y="-8" on="0"/>
        <pt x="187" y="-8" on="1"/>
        <pt x="107" y="-8" on="0"/>
        <pt x="23" y="83" on="0"/>
        <pt x="23" y="168" on="1"/>
        <pt x="23" y="211" on="1"/>
        <pt x="127" y="211" on="1"/>
        <pt x="127" y="161" on="1"/>
        <pt x="127" y="93" on="0"/>
        <pt x="184" y="93" on="1"/>
        <pt x="241" y="93" on="0"/>
        <pt x="241" y="161" on="1"/>
        <pt x="241" y="205" on="0"/>
        <pt x="194" y="271" on="0"/>
        <pt x="147" y="313" on="1"/>
        <pt x="108" y="349" on="0"/>
        <pt x="60" y="404" on="0"/>
        <pt x="26" y="482" on="0"/>
        <pt x="26" y="532" on="1"/>
      </contour>
    </TTGlyph>
    <TTGlyph name="Scaron" xMin="23" yMin="-8" xMax="351" yMax="848">
      <contour>
        <pt x="187" y="792" on="1"/>
        <pt x="232" y="848" on="1"/>
        <pt x="326" y="848" on="1"/>
        <pt x="237" y="737" on="1"/>
        <pt x="138" y="737" on="1"/>
        <pt x="49" y="848" on="1"/>
        <pt x="143" y="848" on="1"/>
      </contour>
      <contour>
        <pt x="26" y="617" on="0"/>
        <pt x="108" y="708" on="0"/>
        <pt x="188" y="708" on="1"/>
        <pt x="268" y="708" on="0"/>
        <pt x="350" y="617" on="0"/>
        <pt x="350" y="532" on="1"/>
        <pt x="350" y="510" on="1"/>
        <pt x="246" y="510" on="1"/>
        <pt x="246" y="539" on="1"/>
        <pt x="246" y="575" on="0"/>
        <pt x="218" y="608" on="0"/>
        <pt x="191" y="608" on="1"/>
        <pt x="164" y="608" on="0"/>
        <pt x="136" y="575" on="0"/>
        <pt x="136" y="539" on="1"/>
        <pt x="136" y="495" on="0"/>
        <pt x="183" y="429" on="0"/>
        <pt x="230" y="387" on="1"/>
        <pt x="269" y="351" on="0"/>
        <pt x="317" y="296" on="0"/>
        <pt x="351" y="218" on="0"/>
        <pt x="351" y="168" on="1"/>
        <pt x="351" y="83" on="0"/>
        <pt x="267" y="-8" on="0"/>
        <pt x="187" y="-8" on="1"/>
        <pt x="107" y="-8" on="0"/>
        <pt x="23" y="83" on="0"/>
        <pt x="23" y="168" on="1"/>
        <pt x="23" y="211" on="1"/>
        <pt x="127" y="211" on="1"/>
        <pt x="127" y="161" on="1"/>
        <pt x="127" y="93" on="0"/>
        <pt x="184" y="93" on="1"/>
        <pt x="241" y="93" on="0"/>
        <pt x="241" y="161" on="1"/>
        <pt x="241" y="205" on="0"/>
        <pt x="194" y="271" on="0"/>
        <pt x="147" y="313" on="1"/>
        <pt x="108" y="349" on="0"/>
        <pt x="60" y="404" on="0"/>
        <pt x="26" y="482" on="0"/>
        <pt x="26" y="532" on="1"/>
      </contour>
    </TTGlyph>
    <TTGlyph name="Scedilla" xMin="23" yMin="-147" xMax="351" yMax="708">
      <contour>
        <pt x="26" y="617" on="0"/>
        <pt x="108" y="708" on="0"/>
        <pt x="188" y="708" on="1"/>
        <pt x="268" y="708" on="0"/>
        <pt x="350" y="617" on="0"/>
        <pt x="350" y="532" on="1"/>
        <pt x="350" y="510" on="1"/>
        <pt x="246" y="510" on="1"/>
        <pt x="246" y="539" on="1"/>
        <pt x="246" y="575" on="0"/>
        <pt x="218" y="608" on="0"/>
        <pt x="191" y="608" on="1"/>
        <pt x="164" y="608" on="0"/>
        <pt x="136" y="575" on="0"/>
        <pt x="136" y="539" on="1"/>
        <pt x="136" y="495" on="0"/>
        <pt x="183" y="429" on="0"/>
        <pt x="230" y="387" on="1"/>
        <pt x="269" y="351" on="0"/>
        <pt x="317" y="296" on="0"/>
        <pt x="351" y="218" on="0"/>
        <pt x="351" y="168" on="1"/>
        <pt x="351" y="88" on="0"/>
        <pt x="277" y="-2" on="0"/>
        <pt x="205" y="-7" on="1"/>
        <pt x="205" y="-39" on="1"/>
        <pt x="243" y="-39" on="0"/>
        <pt x="279" y="-60" on="0"/>
        <pt x="279" y="-86" on="1"/>
        <pt x="279" y="-123" on="0"/>
        <pt x="229" y="-147" on="0"/>
        <pt x="178" y="-147" on="1"/>
        <pt x="132" y="-147" on="0"/>
        <pt x="82" y="-121" on="0"/>
        <pt x="82" y="-89" on="1"/>
        <pt x="82" y="-79" on="1"/>
        <pt x="156" y="-79" on="1"/>
        <pt x="156" y="-87" on="1"/>
        <pt x="156" y="-97" on="0"/>
        <pt x="169" y="-107" on="0"/>
        <pt x="178" y="-107" on="1"/>
        <pt x="203" y="-107" on="0"/>
        <pt x="203" y="-83" on="1"/>
        <pt x="203" y="-69" on="0"/>
        <pt x="185" y="-57" on="0"/>
        <pt x="167" y="-57" on="1"/>
        <pt x="157" y="-57" on="1"/>
        <pt x="157" y="-6" on="1"/>
        <pt x="91" y="2" on="0"/>
        <pt x="23" y="92" on="0"/>
        <pt x="23" y="168" on="1"/>
        <pt x="23" y="211" on="1"/>
        <pt x="127" y="211" on="1"/>
        <pt x="127" y="161" on="1"/>
        <pt x="127" y="93" on="0"/>
        <pt x="184" y="93" on="1"/>
        <pt x="241" y="93" on="0"/>
        <pt x="241" y="161" on="1"/>
        <pt x="241" y="205" on="0"/>
        <pt x="194" y="271" on="0"/>
        <pt x="147" y="313" on="1"/>
        <pt x="108" y="349" on="0"/>
        <pt x="60" y="404" on="0"/>
        <pt x="26" y="482" on="0"/>
        <pt x="26" y="532" on="1"/>
      </contour>
    </TTGlyph>
    <TTGlyph name="Scircumflex" xMin="23" yMin="-8" xMax="351" yMax="848">
      <contour>
        <pt x="137" y="848" on="1"/>
        <pt x="236" y="848" on="1"/>
        <pt x="325" y="737" on="1"/>
        <pt x="231" y="737" on="1"/>
        <pt x="186" y="792" on="1"/>
        <pt x="142" y="737" on="1"/>
        <pt x="48" y="737" on="1"/>
      </contour>
      <contour>
        <pt x="26" y="617" on="0"/>
        <pt x="108" y="708" on="0"/>
        <pt x="188" y="708" on="1"/>
        <pt x="268" y="708" on="0"/>
        <pt x="350" y="617" on="0"/>
        <pt x="350" y="532" on="1"/>
        <pt x="350" y="510" on="1"/>
        <pt x="246" y="510" on="1"/>
        <pt x="246" y="539" on="1"/>
        <pt x="246" y="575" on="0"/>
        <pt x="218" y="608" on="0"/>
        <pt x="191" y="608" on="1"/>
        <pt x="164" y="608" on="0"/>
        <pt x="136" y="575" on="0"/>
        <pt x="136" y="539" on="1"/>
        <pt x="136" y="495" on="0"/>
        <pt x="183" y="429" on="0"/>
        <pt x="230" y="387" on="1"/>
        <pt x="269" y="351" on="0"/>
        <pt x="317" y="296" on="0"/>
        <pt x="351" y="218" on="0"/>
        <pt x="351" y="168" on="1"/>
        <pt x="351" y="83" on="0"/>
        <pt x="267" y="-8" on="0"/>
        <pt x="187" y="-8" on="1"/>
        <pt x="107" y="-8" on="0"/>
        <pt x="23" y="83" on="0"/>
        <pt x="23" y="168" on="1"/>
        <pt x="23" y="211" on="1"/>
        <pt x="127" y="211" on="1"/>
        <pt x="127" y="161" on="1"/>
        <pt x="127" y="93" on="0"/>
        <pt x="184" y="93" on="1"/>
        <pt x="241" y="93" on="0"/>
        <pt x="241" y="161" on="1"/>
        <pt x="241" y="205" on="0"/>
        <pt x="194" y="271" on="0"/>
        <pt x="147" y="313" on="1"/>
        <pt x="108" y="349" on="0"/>
        <pt x="60" y="404" on="0"/>
        <pt x="26" y="482" on="0"/>
        <pt x="26" y="532" on="1"/>
      </contour>
    </TTGlyph>
    <TTGlyph name="T" xMin="8" yMin="0" xMax="348" yMax="700">
      <contour>
        <pt x="348" y="700" on="1"/>
        <pt x="348" y="600" on="1"/>
        <pt x="233" y="600" on="1"/>
        <pt x="233" y="0" on="1"/>
        <pt x="123" y="0" on="1"/>
        <pt x="123" y="600" on="1"/>
        <pt x="8" y="600" on="1"/>
        <pt x="8" y="700" on="1"/>
      </contour>
    </TTGlyph>
    <TTGlyph name="Tbar" xMin="8" yMin="0" xMax="348" yMax="700">
      <contour>
        <pt x="123" y="600" on="1"/>
        <pt x="8" y="600" on="1"/>
        <pt x="8" y="700" on="1"/>
        <pt x="348" y="700" on="1"/>
        <pt x="348" y="600" on="1"/>
        <pt x="233" y="600" on="1"/>
        <pt x="233" y="487" on="1"/>
        <pt x="299" y="487" on="1"/>
        <pt x="299" y="405" on="1"/>
        <pt x="233" y="405" on="1"/>
        <pt x="233" y="0" on="1"/>
        <pt x="123" y="0" on="1"/>
        <pt x="123" y="405" on="1"/>
        <pt x="57" y="405" on="1"/>
        <pt x="57" y="487" on="1"/>
        <pt x="123" y="487" on="1"/>
      </contour>
    </TTGlyph>
    <TTGlyph name="Tcaron" xMin="8" yMin="0" xMax="348" yMax="848">
      <contour>
        <pt x="177" y="792" on="1"/>
        <pt x="222" y="848" on="1"/>
        <pt x="316" y="848" on="1"/>
        <pt x="227" y="737" on="1"/>
        <pt x="128" y="737" on="1"/>
        <pt x="39" y="848" on="1"/>
        <pt x="133" y="848" on="1"/>
      </contour>
      <contour>
        <pt x="348" y="700" on="1"/>
        <pt x="348" y="600" on="1"/>
        <pt x="233" y="600" on="1"/>
        <pt x="233" y="0" on="1"/>
        <pt x="123" y="0" on="1"/>
        <pt x="123" y="600" on="1"/>
        <pt x="8" y="600" on="1"/>
        <pt x="8" y="700" on="1"/>
      </contour>
    </TTGlyph>
    <TTGlyph name="Thorn" xMin="40" yMin="0" xMax="366" yMax="700">
      <contour>
        <pt x="150" y="700" on="1"/>
        <pt x="150" y="620" on="1"/>
        <pt x="202" y="620" on="1"/>
        <pt x="284" y="620" on="0"/>
        <pt x="366" y="532" on="0"/>
        <pt x="366" y="447" on="1"/>
        <pt x="366" y="356" on="1"/>
        <pt x="366" y="271" on="0"/>
        <pt x="284" y="183" on="0"/>
        <pt x="202" y="183" on="1"/>
        <pt x="150" y="183" on="1"/>
        <pt x="150" y="0" on="1"/>
        <pt x="40" y="0" on="1"/>
        <pt x="40" y="700" on="1"/>
      </contour>
      <contour>
        <pt x="150" y="283" on="1"/>
        <pt x="202" y="283" on="1"/>
        <pt x="229" y="283" on="0"/>
        <pt x="256" y="313" on="0"/>
        <pt x="256" y="349" on="1"/>
        <pt x="256" y="454" on="1"/>
        <pt x="256" y="490" on="0"/>
        <pt x="229" y="520" on="0"/>
        <pt x="202" y="520" on="1"/>
        <pt x="150" y="520" on="1"/>
      </contour>
    </TTGlyph>
    <TTGlyph name="U" xMin="35" yMin="-9" xMax="363" yMax="700">
      <contour>
        <pt x="145" y="160" on="1"/>
        <pt x="145" y="92" on="0"/>
        <pt x="202" y="92" on="1"/>
        <pt x="259" y="92" on="0"/>
        <pt x="259" y="160" on="1"/>
        <pt x="259" y="700" on="1"/>
        <pt x="363" y="700" on="1"/>
        <pt x="363" y="167" on="1"/>
        <pt x="363" y="82" on="0"/>
        <pt x="279" y="-9" on="0"/>
        <pt x="199" y="-9" on="1"/>
        <pt x="119" y="-9" on="0"/>
        <pt x="35" y="82" on="0"/>
        <pt x="35" y="167" on="1"/>
        <pt x="35" y="700" on="1"/>
        <pt x="145" y="700" on="1"/>
      </contour>
    </TTGlyph>
    <TTGlyph name="Uacute" xMin="35" yMin="-9" xMax="363" yMax="848">
      <contour>
        <pt x="216" y="737" on="1"/>
        <pt x="142" y="737" on="1"/>
        <pt x="210" y="848" on="1"/>
        <pt x="318" y="848" on="1"/>
      </contour>
      <contour>
        <pt x="145" y="160" on="1"/>
        <pt x="145" y="92" on="0"/>
        <pt x="202" y="92" on="1"/>
        <pt x="259" y="92" on="0"/>
        <pt x="259" y="160" on="1"/>
        <pt x="259" y="700" on="1"/>
        <pt x="363" y="700" on="1"/>
        <pt x="363" y="167" on="1"/>
        <pt x="363" y="82" on="0"/>
        <pt x="279" y="-9" on="0"/>
        <pt x="199" y="-9" on="1"/>
        <pt x="119" y="-9" on="0"/>
        <pt x="35" y="82" on="0"/>
        <pt x="35" y="167" on="1"/>
        <pt x="35" y="700" on="1"/>
        <pt x="145" y="700" on="1"/>
      </contour>
    </TTGlyph>
    <TTGlyph name="Ubreve" xMin="35" yMin="-9" xMax="363" yMax="848">
      <contour>
        <pt x="312" y="848" on="1"/>
        <pt x="312" y="794" on="0"/>
        <pt x="254" y="733" on="0"/>
        <pt x="199" y="733" on="1"/>
        <pt x="144" y="733" on="0"/>
        <pt x="89" y="794" on="0"/>
        <pt x="88" y="848" on="1"/>
        <pt x="153" y="848" on="1"/>
        <pt x="155" y="821" on="0"/>
        <pt x="177" y="801" on="0"/>
        <pt x="199" y="801" on="1"/>
        <pt x="222" y="801" on="0"/>
        <pt x="245" y="821" on="0"/>
        <pt x="247" y="848" on="1"/>
      </contour>
      <contour>
        <pt x="145" y="160" on="1"/>
        <pt x="145" y="92" on="0"/>
        <pt x="202" y="92" on="1"/>
        <pt x="259" y="92" on="0"/>
        <pt x="259" y="160" on="1"/>
        <pt x="259" y="700" on="1"/>
        <pt x="363" y="700" on="1"/>
        <pt x="363" y="167" on="1"/>
        <pt x="363" y="82" on="0"/>
        <pt x="279" y="-9" on="0"/>
        <pt x="199" y="-9" on="1"/>
        <pt x="119" y="-9" on="0"/>
        <pt x="35" y="82" on="0"/>
        <pt x="35" y="167" on="1"/>
        <pt x="35" y="700" on="1"/>
        <pt x="145" y="700" on="1"/>
      </contour>
    </TTGlyph>
    <TTGlyph name="Ucircumflex" xMin="35" yMin="-9" xMax="363" yMax="848">
      <contour>
        <pt x="151" y="848" on="1"/>
        <pt x="250" y="848" on="1"/>
        <pt x="339" y="737" on="1"/>
        <pt x="245" y="737" on="1"/>
        <pt x="200" y="792" on="1"/>
        <pt x="156" y="737" on="1"/>
        <pt x="62" y="737" on="1"/>
      </contour>
      <contour>
        <pt x="145" y="160" on="1"/>
        <pt x="145" y="92" on="0"/>
        <pt x="202" y="92" on="1"/>
        <pt x="259" y="92" on="0"/>
        <pt x="259" y="160" on="1"/>
        <pt x="259" y="700" on="1"/>
        <pt x="363" y="700" on="1"/>
        <pt x="363" y="167" on="1"/>
        <pt x="363" y="82" on="0"/>
        <pt x="279" y="-9" on="0"/>
        <pt x="199" y="-9" on="1"/>
        <pt x="119" y="-9" on="0"/>
        <pt x="35" y="82" on="0"/>
        <pt x="35" y="167" on="1"/>
        <pt x="35" y="700" on="1"/>
        <pt x="145" y="700" on="1"/>
      </contour>
    </TTGlyph>
    <TTGlyph name="Udieresis" xMin="35" yMin="-9" xMax="363" yMax="833">
      <contour>
        <pt x="173" y="737" on="1"/>
        <pt x="77" y="737" on="1"/>
        <pt x="77" y="833" on="1"/>
        <pt x="173" y="833" on="1"/>
      </contour>
      <contour>
        <pt x="325" y="737" on="1"/>
        <pt x="229" y="737" on="1"/>
        <pt x="229" y="833" on="1"/>
        <pt x="325" y="833" on="1"/>
      </contour>
      <contour>
        <pt x="145" y="160" on="1"/>
        <pt x="145" y="92" on="0"/>
        <pt x="202" y="92" on="1"/>
        <pt x="259" y="92" on="0"/>
        <pt x="259" y="160" on="1"/>
        <pt x="259" y="700" on="1"/>
        <pt x="363" y="700" on="1"/>
        <pt x="363" y="167" on="1"/>
        <pt x="363" y="82" on="0"/>
        <pt x="279" y="-9" on="0"/>
        <pt x="199" y="-9" on="1"/>
        <pt x="119" y="-9" on="0"/>
        <pt x="35" y="82" on="0"/>
        <pt x="35" y="167" on="1"/>
        <pt x="35" y="700" on="1"/>
        <pt x="145" y="700" on="1"/>
      </contour>
    </TTGlyph>
    <TTGlyph name="Ugrave" xMin="35" yMin="-9" xMax="363" yMax="848">
      <contour>
        <pt x="260" y="737" on="1"/>
        <pt x="181" y="737" on="1"/>
        <pt x="79" y="848" on="1"/>
        <pt x="192" y="848" on="1"/>
      </contour>
      <contour>
        <pt x="145" y="160" on="1"/>
        <pt x="145" y="92" on="0"/>
        <pt x="202" y="92" on="1"/>
        <pt x="259" y="92" on="0"/>
        <pt x="259" y="160" on="1"/>
        <pt x="259" y="700" on="1"/>
        <pt x="363" y="700" on="1"/>
        <pt x="363" y="167" on="1"/>
        <pt x="363" y="82" on="0"/>
        <pt x="279" y="-9" on="0"/>
        <pt x="199" y="-9" on="1"/>
        <pt x="119" y="-9" on="0"/>
        <pt x="35" y="82" on="0"/>
        <pt x="35" y="167" on="1"/>
        <pt x="35" y="700" on="1"/>
        <pt x="145" y="700" on="1"/>
      </contour>
    </TTGlyph>
    <TTGlyph name="Uhungarumlaut" xMin="35" yMin="-9" xMax="365" yMax="848">
      <contour>
        <pt x="151" y="737" on="1"/>
        <pt x="84" y="737" on="1"/>
        <pt x="134" y="848" on="1"/>
        <pt x="234" y="848" on="1"/>
      </contour>
      <contour>
        <pt x="281" y="737" on="1"/>
        <pt x="215" y="737" on="1"/>
        <pt x="264" y="848" on="1"/>
        <pt x="365" y="848" on="1"/>
      </contour>
      <contour>
        <pt x="145" y="160" on="1"/>
        <pt x="145" y="92" on="0"/>
        <pt x="202" y="92" on="1"/>
        <pt x="259" y="92" on="0"/>
        <pt x="259" y="160" on="1"/>
        <pt x="259" y="700" on="1"/>
        <pt x="363" y="700" on="1"/>
        <pt x="363" y="167" on="1"/>
        <pt x="363" y="82" on="0"/>
        <pt x="279" y="-9" on="0"/>
        <pt x="199" y="-9" on="1"/>
        <pt x="119" y="-9" on="0"/>
        <pt x="35" y="82" on="0"/>
        <pt x="35" y="167" on="1"/>
        <pt x="35" y="700" on="1"/>
        <pt x="145" y="700" on="1"/>
      </contour>
    </TTGlyph>
    <TTGlyph name="Umacron" xMin="35" yMin="-9" xMax="363" yMax="819">
      <contour>
        <pt x="315" y="741" on="1"/>
        <pt x="85" y="741" on="1"/>
        <pt x="85" y="819" on="1"/>
        <pt x="315" y="819" on="1"/>
      </contour>
      <contour>
        <pt x="145" y="160" on="1"/>
        <pt x="145" y="92" on="0"/>
        <pt x="202" y="92" on="1"/>
        <pt x="259" y="92" on="0"/>
        <pt x="259" y="160" on="1"/>
        <pt x="259" y="700" on="1"/>
        <pt x="363" y="700" on="1"/>
        <pt x="363" y="167" on="1"/>
        <pt x="363" y="82" on="0"/>
        <pt x="279" y="-9" on="0"/>
        <pt x="199" y="-9" on="1"/>
        <pt x="119" y="-9" on="0"/>
        <pt x="35" y="82" on="0"/>
        <pt x="35" y="167" on="1"/>
        <pt x="35" y="700" on="1"/>
        <pt x="145" y="700" on="1"/>
      </contour>
    </TTGlyph>
    <TTGlyph name="Uogonek" xMin="35" yMin="-147" xMax="363" yMax="700">
      <contour>
        <pt x="145" y="160" on="1"/>
        <pt x="145" y="92" on="0"/>
        <pt x="202" y="92" on="1"/>
        <pt x="259" y="92" on="0"/>
        <pt x="259" y="160" on="1"/>
        <pt x="259" y="700" on="1"/>
        <pt x="363" y="700" on="1"/>
        <pt x="363" y="167" on="1"/>
        <pt x="363" y="115" on="0"/>
        <pt x="337" y="37" on="0"/>
        <pt x="300" y="8" on="1"/>
        <pt x="281" y="-7" on="0"/>
        <pt x="266" y="-43" on="0"/>
        <pt x="266" y="-58" on="1"/>
        <pt x="266" y="-71" on="0"/>
        <pt x="286" y="-86" on="0"/>
        <pt x="301" y="-86" on="1"/>
        <pt x="317" y="-86" on="0"/>
        <pt x="334" y="-81" on="0"/>
        <pt x="337" y="-80" on="1"/>
        <pt x="337" y="-136" on="1"/>
        <pt x="320" y="-143" on="0"/>
        <pt x="291" y="-147" on="0"/>
        <pt x="269" y="-147" on="1"/>
        <pt x="228" y="-147" on="0"/>
        <pt x="182" y="-115" on="0"/>
        <pt x="182" y="-85" on="1"/>
        <pt x="182" y="-39" on="0"/>
        <pt x="240" y="-5" on="1"/>
        <pt x="223" y="-9" on="0"/>
        <pt x="199" y="-9" on="1"/>
        <pt x="119" y="-9" on="0"/>
        <pt x="35" y="82" on="0"/>
        <pt x="35" y="167" on="1"/>
        <pt x="35" y="700" on="1"/>
        <pt x="145" y="700" on="1"/>
      </contour>
    </TTGlyph>
    <TTGlyph name="Uring" xMin="35" yMin="-9" xMax="363" yMax="894">
      <contour>
        <pt x="120" y="848" on="0"/>
        <pt x="166" y="894" on="0"/>
        <pt x="200" y="894" on="1"/>
        <pt x="234" y="894" on="0"/>
        <pt x="280" y="848" on="0"/>
        <pt x="280" y="814" on="1"/>
        <pt x="280" y="780" on="0"/>
        <pt x="234" y="734" on="0"/>
        <pt x="200" y="734" on="1"/>
        <pt x="166" y="734" on="0"/>
        <pt x="120" y="780" on="0"/>
        <pt x="120" y="814" on="1"/>
      </contour>
      <contour>
        <pt x="170" y="801" on="0"/>
        <pt x="187" y="784" on="0"/>
        <pt x="200" y="784" on="1"/>
        <pt x="213" y="784" on="0"/>
        <pt x="230" y="801" on="0"/>
        <pt x="230" y="814" on="1"/>
        <pt x="230" y="827" on="0"/>
        <pt x="213" y="844" on="0"/>
        <pt x="200" y="844" on="1"/>
        <pt x="187" y="844" on="0"/>
        <pt x="170" y="827" on="0"/>
        <pt x="170" y="814" on="1"/>
      </contour>
      <contour>
        <pt x="145" y="160" on="1"/>
        <pt x="145" y="92" on="0"/>
        <pt x="202" y="92" on="1"/>
        <pt x="259" y="92" on="0"/>
        <pt x="259" y="160" on="1"/>
        <pt x="259" y="700" on="1"/>
        <pt x="363" y="700" on="1"/>
        <pt x="363" y="167" on="1"/>
        <pt x="363" y="82" on="0"/>
        <pt x="279" y="-9" on="0"/>
        <pt x="199" y="-9" on="1"/>
        <pt x="119" y="-9" on="0"/>
        <pt x="35" y="82" on="0"/>
        <pt x="35" y="167" on="1"/>
        <pt x="35" y="700" on="1"/>
        <pt x="145" y="700" on="1"/>
      </contour>
    </TTGlyph>
    <TTGlyph name="Utilde" xMin="35" yMin="-9" xMax="363" yMax="842">
      <contour>
        <pt x="255" y="813" on="0"/>
        <pt x="275" y="825" on="0"/>
        <pt x="283" y="842" on="1"/>
        <pt x="336" y="805" on="1"/>
        <pt x="311" y="737" on="0"/>
        <pt x="251" y="737" on="1"/>
        <pt x="236" y="737" on="0"/>
        <pt x="213" y="744" on="0"/>
        <pt x="198" y="751" on="1"/>
        <pt x="176" y="762" on="0"/>
        <pt x="161" y="762" on="1"/>
        <pt x="146" y="762" on="0"/>
        <pt x="126" y="750" on="0"/>
        <pt x="118" y="733" on="1"/>
        <pt x="65" y="770" on="1"/>
        <pt x="90" y="838" on="0"/>
        <pt x="150" y="838" on="1"/>
        <pt x="165" y="838" on="0"/>
        <pt x="188" y="831" on="0"/>
        <pt x="203" y="824" on="1"/>
        <pt x="225" y="813" on="0"/>
        <pt x="240" y="813" on="1"/>
      </contour>
      <contour>
        <pt x="145" y="160" on="1"/>
        <pt x="145" y="92" on="0"/>
        <pt x="202" y="92" on="1"/>
        <pt x="259" y="92" on="0"/>
        <pt x="259" y="160" on="1"/>
        <pt x="259" y="700" on="1"/>
        <pt x="363" y="700" on="1"/>
        <pt x="363" y="167" on="1"/>
        <pt x="363" y="82" on="0"/>
        <pt x="279" y="-9" on="0"/>
        <pt x="199" y="-9" on="1"/>
        <pt x="119" y="-9" on="0"/>
        <pt x="35" y="82" on="0"/>
        <pt x="35" y="167" on="1"/>
        <pt x="35" y="700" on="1"/>
        <pt x="145" y="700" on="1"/>
      </contour>
    </TTGlyph>
    <TTGlyph name="V" xMin="11" yMin="0" xMax="391" yMax="700">
      <contour>
        <pt x="290" y="700" on="1"/>
        <pt x="391" y="700" on="1"/>
        <pt x="283" y="0" on="1"/>
        <pt x="119" y="0" on="1"/>
        <pt x="11" y="700" on="1"/>
        <pt x="122" y="700" on="1"/>
        <pt x="206" y="129" on="1"/>
      </contour>
    </TTGlyph>
    <TTGlyph name="W" xMin="15" yMin="0" xMax="548" yMax="700">
      <contour>
        <pt x="244" y="0" on="1"/>
        <pt x="93" y="0" on="1"/>
        <pt x="15" y="700" on="1"/>
        <pt x="122" y="700" on="1"/>
        <pt x="181" y="148" on="1"/>
        <pt x="234" y="700" on="1"/>
        <pt x="340" y="700" on="1"/>
        <pt x="395" y="144" on="1"/>
        <pt x="452" y="700" on="1"/>
        <pt x="548" y="700" on="1"/>
        <pt x="470" y="0" on="1"/>
        <pt x="324" y="0" on="1"/>
        <pt x="284" y="373" on="1"/>
      </contour>
    </TTGlyph>
    <TTGlyph name="Wacute" xMin="15" yMin="0" xMax="548" yMax="848">
      <contour>
        <pt x="297" y="737" on="1"/>
        <pt x="223" y="737" on="1"/>
        <pt x="291" y="848" on="1"/>
        <pt x="399" y="848" on="1"/>
      </contour>
      <contour>
        <pt x="244" y="0" on="1"/>
        <pt x="93" y="0" on="1"/>
        <pt x="15" y="700" on="1"/>
        <pt x="122" y="700" on="1"/>
        <pt x="181" y="148" on="1"/>
        <pt x="234" y="700" on="1"/>
        <pt x="340" y="700" on="1"/>
        <pt x="395" y="144" on="1"/>
        <pt x="452" y="700" on="1"/>
        <pt x="548" y="700" on="1"/>
        <pt x="470" y="0" on="1"/>
        <pt x="324" y="0" on="1"/>
        <pt x="284" y="373" on="1"/>
      </contour>
    </TTGlyph>
    <TTGlyph name="Wcircumflex" xMin="15" yMin="0" xMax="548" yMax="848">
      <contour>
        <pt x="232" y="848" on="1"/>
        <pt x="331" y="848" on="1"/>
        <pt x="420" y="737" on="1"/>
        <pt x="326" y="737" on="1"/>
        <pt x="281" y="792" on="1"/>
        <pt x="237" y="737" on="1"/>
        <pt x="143" y="737" on="1"/>
      </contour>
      <contour>
        <pt x="244" y="0" on="1"/>
        <pt x="93" y="0" on="1"/>
        <pt x="15" y="700" on="1"/>
        <pt x="122" y="700" on="1"/>
        <pt x="181" y="148" on="1"/>
        <pt x="234" y="700" on="1"/>
        <pt x="340" y="700" on="1"/>
        <pt x="395" y="144" on="1"/>
        <pt x="452" y="700" on="1"/>
        <pt x="548" y="700" on="1"/>
        <pt x="470" y="0" on="1"/>
        <pt x="324" y="0" on="1"/>
        <pt x="284" y="373" on="1"/>
      </contour>
    </TTGlyph>
    <TTGlyph name="Wdieresis" xMin="15" yMin="0" xMax="548" yMax="833">
      <contour>
        <pt x="253" y="737" on="1"/>
        <pt x="157" y="737" on="1"/>
        <pt x="157" y="833" on="1"/>
        <pt x="253" y="833" on="1"/>
      </contour>
      <contour>
        <pt x="405" y="737" on="1"/>
        <pt x="309" y="737" on="1"/>
        <pt x="309" y="833" on="1"/>
        <pt x="405" y="833" on="1"/>
      </contour>
      <contour>
        <pt x="244" y="0" on="1"/>
        <pt x="93" y="0" on="1"/>
        <pt x="15" y="700" on="1"/>
        <pt x="122" y="700" on="1"/>
        <pt x="181" y="148" on="1"/>
        <pt x="234" y="700" on="1"/>
        <pt x="340" y="700" on="1"/>
        <pt x="395" y="144" on="1"/>
        <pt x="452" y="700" on="1"/>
        <pt x="548" y="700" on="1"/>
        <pt x="470" y="0" on="1"/>
        <pt x="324" y="0" on="1"/>
        <pt x="284" y="373" on="1"/>
      </contour>
    </TTGlyph>
    <TTGlyph name="Wgrave" xMin="15" yMin="0" xMax="548" yMax="848">
      <contour>
        <pt x="342" y="737" on="1"/>
        <pt x="263" y="737" on="1"/>
        <pt x="161" y="848" on="1"/>
        <pt x="274" y="848" on="1"/>
      </contour>
      <contour>
        <pt x="244" y="0" on="1"/>
        <pt x="93" y="0" on="1"/>
        <pt x="15" y="700" on="1"/>
        <pt x="122" y="700" on="1"/>
        <pt x="181" y="148" on="1"/>
        <pt x="234" y="700" on="1"/>
        <pt x="340" y="700" on="1"/>
        <pt x="395" y="144" on="1"/>
        <pt x="452" y="700" on="1"/>
        <pt x="548" y="700" on="1"/>
        <pt x="470" y="0" on="1"/>
        <pt x="324" y="0" on="1"/>
        <pt x="284" y="373" on="1"/>
      </contour>
    </TTGlyph>
    <TTGlyph name="X" xMin="15" yMin="0" xMax="415" yMax="700">
      <contour>
        <pt x="292" y="360" on="1"/>
        <pt x="415" y="0" on="1"/>
        <pt x="299" y="0" on="1"/>
        <pt x="209" y="277" on="1"/>
        <pt x="118" y="0" on="1"/>
        <pt x="15" y="0" on="1"/>
        <pt x="138" y="360" on="1"/>
        <pt x="23" y="700" on="1"/>
        <pt x="137" y="700" on="1"/>
        <pt x="220" y="442" on="1"/>
        <pt x="305" y="700" on="1"/>
        <pt x="407" y="700" on="1"/>
      </contour>
    </TTGlyph>
    <TTGlyph name="Y" xMin="4" yMin="0" xMax="392" yMax="700">
      <contour>
        <pt x="4" y="700" on="1"/>
        <pt x="119" y="700" on="1"/>
        <pt x="203" y="381" on="1"/>
        <pt x="287" y="700" on="1"/>
        <pt x="392" y="700" on="1"/>
        <pt x="253" y="232" on="1"/>
        <pt x="253" y="0" on="1"/>
        <pt x="143" y="0" on="1"/>
        <pt x="143" y="232" on="1"/>
      </contour>
    </TTGlyph>
    <TTGlyph name="Yacute" xMin="4" yMin="0" xMax="392" yMax="848">
      <contour>
        <pt x="218" y="737" on="1"/>
        <pt x="144" y="737" on="1"/>
        <pt x="212" y="848" on="1"/>
        <pt x="320" y="848" on="1"/>
      </contour>
      <contour>
        <pt x="4" y="700" on="1"/>
        <pt x="119" y="700" on="1"/>
        <pt x="203" y="381" on="1"/>
        <pt x="287" y="700" on="1"/>
        <pt x="392" y="700" on="1"/>
        <pt x="253" y="232" on="1"/>
        <pt x="253" y="0" on="1"/>
        <pt x="143" y="0" on="1"/>
        <pt x="143" y="232" on="1"/>
      </contour>
    </TTGlyph>
    <TTGlyph name="Ycircumflex" xMin="4" yMin="0" xMax="392" yMax="848">
      <contour>
        <pt x="153" y="848" on="1"/>
        <pt x="252" y="848" on="1"/>
        <pt x="341" y="737" on="1"/>
        <pt x="247" y="737" on="1"/>
        <pt x="202" y="792" on="1"/>
        <pt x="158" y="737" on="1"/>
        <pt x="64" y="737" on="1"/>
      </contour>
      <contour>
        <pt x="4" y="700" on="1"/>
        <pt x="119" y="700" on="1"/>
        <pt x="203" y="381" on="1"/>
        <pt x="287" y="700" on="1"/>
        <pt x="392" y="700" on="1"/>
        <pt x="253" y="232" on="1"/>
        <pt x="253" y="0" on="1"/>
        <pt x="143" y="0" on="1"/>
        <pt x="143" y="232" on="1"/>
      </contour>
    </TTGlyph>
    <TTGlyph name="Ydieresis" xMin="4" yMin="0" xMax="392" yMax="833">
      <contour>
        <pt x="174" y="737" on="1"/>
        <pt x="78" y="737" on="1"/>
        <pt x="78" y="833" on="1"/>
        <pt x="174" y="833" on="1"/>
      </contour>
      <contour>
        <pt x="326" y="737" on="1"/>
        <pt x="230" y="737" on="1"/>
        <pt x="230" y="833" on="1"/>
        <pt x="326" y="833" on="1"/>
      </contour>
      <contour>
        <pt x="4" y="700" on="1"/>
        <pt x="119" y="700" on="1"/>
        <pt x="203" y="381" on="1"/>
        <pt x="287" y="700" on="1"/>
        <pt x="392" y="700" on="1"/>
        <pt x="253" y="232" on="1"/>
        <pt x="253" y="0" on="1"/>
        <pt x="143" y="0" on="1"/>
        <pt x="143" y="232" on="1"/>
      </contour>
    </TTGlyph>
    <TTGlyph name="Ygrave" xMin="4" yMin="0" xMax="392" yMax="848">
      <contour>
        <pt x="263" y="737" on="1"/>
        <pt x="184" y="737" on="1"/>
        <pt x="82" y="848" on="1"/>
        <pt x="195" y="848" on="1"/>
      </contour>
      <contour>
        <pt x="4" y="700" on="1"/>
        <pt x="119" y="700" on="1"/>
        <pt x="203" y="381" on="1"/>
        <pt x="287" y="700" on="1"/>
        <pt x="392" y="700" on="1"/>
        <pt x="253" y="232" on="1"/>
        <pt x="253" y="0" on="1"/>
        <pt x="143" y="0" on="1"/>
        <pt x="143" y="232" on="1"/>
      </contour>
    </TTGlyph>
    <TTGlyph name="Z" xMin="23" yMin="0" xMax="345" yMax="700">
      <contour>
        <pt x="345" y="602" on="1"/>
        <pt x="136" y="100" on="1"/>
        <pt x="345" y="100" on="1"/>
        <pt x="345" y="0" on="1"/>
        <pt x="23" y="0" on="1"/>
        <pt x="23" y="98" on="1"/>
        <pt x="232" y="600" on="1"/>
        <pt x="33" y="600" on="1"/>
        <pt x="33" y="700" on="1"/>
        <pt x="345" y="700" on="1"/>
      </contour>
    </TTGlyph>
    <TTGlyph name="Zacute" xMin="23" yMin="0" xMax="345" yMax="848">
      <contour>
        <pt x="202" y="737" on="1"/>
        <pt x="128" y="737" on="1"/>
        <pt x="196" y="848" on="1"/>
        <pt x="304" y="848" on="1"/>
      </contour>
      <contour>
        <pt x="345" y="602" on="1"/>
        <pt x="136" y="100" on="1"/>
        <pt x="345" y="100" on="1"/>
        <pt x="345" y="0" on="1"/>
        <pt x="23" y="0" on="1"/>
        <pt x="23" y="98" on="1"/>
        <pt x="232" y="600" on="1"/>
        <pt x="33" y="600" on="1"/>
        <pt x="33" y="700" on="1"/>
        <pt x="345" y="700" on="1"/>
      </contour>
    </TTGlyph>
    <TTGlyph name="Zcaron" xMin="23" yMin="0" xMax="345" yMax="848">
      <contour>
        <pt x="186" y="792" on="1"/>
        <pt x="231" y="848" on="1"/>
        <pt x="325" y="848" on="1"/>
        <pt x="236" y="737" on="1"/>
        <pt x="137" y="737" on="1"/>
        <pt x="48" y="848" on="1"/>
        <pt x="142" y="848" on="1"/>
      </contour>
      <contour>
        <pt x="345" y="602" on="1"/>
        <pt x="136" y="100" on="1"/>
        <pt x="345" y="100" on="1"/>
        <pt x="345" y="0" on="1"/>
        <pt x="23" y="0" on="1"/>
        <pt x="23" y="98" on="1"/>
        <pt x="232" y="600" on="1"/>
        <pt x="33" y="600" on="1"/>
        <pt x="33" y="700" on="1"/>
        <pt x="345" y="700" on="1"/>
      </contour>
    </TTGlyph>
    <TTGlyph name="Zdotaccent" xMin="23" yMin="0" xMax="345" yMax="833">
      <contour>
        <pt x="234" y="737" on="1"/>
        <pt x="138" y="737" on="1"/>
        <pt x="138" y="833" on="1"/>
        <pt x="234" y="833" on="1"/>
      </contour>
      <contour>
        <pt x="345" y="602" on="1"/>
        <pt x="136" y="100" on="1"/>
        <pt x="345" y="100" on="1"/>
        <pt x="345" y="0" on="1"/>
        <pt x="23" y="0" on="1"/>
        <pt x="23" y="98" on="1"/>
        <pt x="232" y="600" on="1"/>
        <pt x="33" y="600" on="1"/>
        <pt x="33" y="700" on="1"/>
        <pt x="345" y="700" on="1"/>
      </contour>
    </TTGlyph>
    <TTGlyph name="a" xMin="11" yMin="0" xMax="396" yMax="700">
      <contour>
        <pt x="285" y="0" on="1"/>
        <pt x="266" y="127" on="1"/>
        <pt x="131" y="127" on="1"/>
        <pt x="112" y="0" on="1"/>
        <pt x="11" y="0" on="1"/>
        <pt x="123" y="700" on="1"/>
        <pt x="284" y="700" on="1"/>
        <pt x="396" y="0" on="1"/>
      </contour>
      <contour>
        <pt x="251" y="222" on="1"/>
        <pt x="198" y="576" on="1"/>
        <pt x="145" y="222" on="1"/>
      </contour>
    </TTGlyph>
    <TTGlyph name="aacute" xMin="11" yMin="0" xMax="396" yMax="848">
      <contour>
        <pt x="219" y="737" on="1"/>
        <pt x="145" y="737" on="1"/>
        <pt x="213" y="848" on="1"/>
        <pt x="321" y="848" on="1"/>
      </contour>
      <contour>
        <pt x="285" y="0" on="1"/>
        <pt x="266" y="127" on="1"/>
        <pt x="131" y="127" on="1"/>
        <pt x="112" y="0" on="1"/>
        <pt x="11" y="0" on="1"/>
        <pt x="123" y="700" on="1"/>
        <pt x="284" y="700" on="1"/>
        <pt x="396" y="0" on="1"/>
      </contour>
      <contour>
        <pt x="251" y="222" on="1"/>
        <pt x="198" y="576" on="1"/>
        <pt x="145" y="222" on="1"/>
      </contour>
    </TTGlyph>
    <TTGlyph name="abreve" xMin="11" yMin="0" xMax="396" yMax="848">
      <contour>
        <pt x="315" y="848" on="1"/>
        <pt x="315" y="794" on="0"/>
        <pt x="257" y="733" on="0"/>
        <pt x="202" y="733" on="1"/>
        <pt x="147" y="733" on="0"/>
        <pt x="92" y="794" on="0"/>
        <pt x="91" y="848" on="1"/>
        <pt x="156" y="848" on="1"/>
        <pt x="158" y="821" on="0"/>
        <pt x="180" y="801" on="0"/>
        <pt x="202" y="801" on="1"/>
        <pt x="225" y="801" on="0"/>
        <pt x="248" y="821" on="0"/>
        <pt x="250" y="848" on="1"/>
      </contour>
      <contour>
        <pt x="285" y="0" on="1"/>
        <pt x="266" y="127" on="1"/>
        <pt x="131" y="127" on="1"/>
        <pt x="112" y="0" on="1"/>
        <pt x="11" y="0" on="1"/>
        <pt x="123" y="700" on="1"/>
        <pt x="284" y="700" on="1"/>
        <pt x="396" y="0" on="1"/>
      </contour>
      <contour>
        <pt x="251" y="222" on="1"/>
        <pt x="198" y="576" on="1"/>
        <pt x="145" y="222" on="1"/>
      </contour>
    </TTGlyph>
    <TTGlyph name="acircumflex" xMin="11" yMin="0" xMax="396" yMax="848">
      <contour>
        <pt x="154" y="848" on="1"/>
        <pt x="253" y="848" on="1"/>
        <pt x="342" y="737" on="1"/>
        <pt x="248" y="737" on="1"/>
        <pt x="203" y="792" on="1"/>
        <pt x="159" y="737" on="1"/>
        <pt x="65" y="737" on="1"/>
      </contour>
      <contour>
        <pt x="285" y="0" on="1"/>
        <pt x="266" y="127" on="1"/>
        <pt x="131" y="127" on="1"/>
        <pt x="112" y="0" on="1"/>
        <pt x="11" y="0" on="1"/>
        <pt x="123" y="700" on="1"/>
        <pt x="284" y="700" on="1"/>
        <pt x="396" y="0" on="1"/>
      </contour>
      <contour>
        <pt x="251" y="222" on="1"/>
        <pt x="198" y="576" on="1"/>
        <pt x="145" y="222" on="1"/>
      </contour>
    </TTGlyph>
    <TTGlyph name="acute" xMin="27" yMin="737" xMax="203" yMax="848">
      <contour>
        <pt x="101" y="737" on="1"/>
        <pt x="27" y="737" on="1"/>
        <pt x="95" y="848" on="1"/>
        <pt x="203" y="848" on="1"/>
      </contour>
    </TTGlyph>
    <TTGlyph name="adieresis" xMin="11" yMin="0" xMax="396" yMax="833">
      <contour>
        <pt x="175" y="737" on="1"/>
        <pt x="79" y="737" on="1"/>
        <pt x="79" y="833" on="1"/>
        <pt x="175" y="833" on="1"/>
      </contour>
      <contour>
        <pt x="327" y="737" on="1"/>
        <pt x="231" y="737" on="1"/>
        <pt x="231" y="833" on="1"/>
        <pt x="327" y="833" on="1"/>
      </contour>
      <contour>
        <pt x="285" y="0" on="1"/>
        <pt x="266" y="127" on="1"/>
        <pt x="131" y="127" on="1"/>
        <pt x="112" y="0" on="1"/>
        <pt x="11" y="0" on="1"/>
        <pt x="123" y="700" on="1"/>
        <pt x="284" y="700" on="1"/>
        <pt x="396" y="0" on="1"/>
      </contour>
      <contour>
        <pt x="251" y="222" on="1"/>
        <pt x="198" y="576" on="1"/>
        <pt x="145" y="222" on="1"/>
      </contour>
    </TTGlyph>
    <TTGlyph name="ae" xMin="4" yMin="0" xMax="552" yMax="700">
      <contour>
        <pt x="513" y="405" on="1"/>
        <pt x="513" y="305" on="1"/>
        <pt x="362" y="305" on="1"/>
        <pt x="362" y="100" on="1"/>
        <pt x="552" y="100" on="1"/>
        <pt x="552" y="0" on="1"/>
        <pt x="252" y="0" on="1"/>
        <pt x="252" y="127" on="1"/>
        <pt x="141" y="127" on="1"/>
        <pt x="109" y="0" on="1"/>
        <pt x="4" y="0" on="1"/>
        <pt x="191" y="700" on="1"/>
        <pt x="552" y="700" on="1"/>
        <pt x="552" y="600" on="1"/>
        <pt x="362" y="600" on="1"/>
        <pt x="362" y="405" on="1"/>
      </contour>
      <contour>
        <pt x="252" y="559" on="1"/>
        <pt x="166" y="222" on="1"/>
        <pt x="252" y="222" on="1"/>
      </contour>
    </TTGlyph>
    <TTGlyph name="aeacute" xMin="4" yMin="0" xMax="552" yMax="848">
      <contour>
        <pt x="306" y="737" on="1"/>
        <pt x="232" y="737" on="1"/>
        <pt x="300" y="848" on="1"/>
        <pt x="408" y="848" on="1"/>
      </contour>
      <contour>
        <pt x="141" y="127" on="1"/>
        <pt x="109" y="0" on="1"/>
        <pt x="4" y="0" on="1"/>
        <pt x="191" y="700" on="1"/>
        <pt x="552" y="700" on="1"/>
        <pt x="552" y="600" on="1"/>
        <pt x="362" y="600" on="1"/>
        <pt x="362" y="405" on="1"/>
        <pt x="513" y="405" on="1"/>
        <pt x="513" y="305" on="1"/>
        <pt x="362" y="305" on="1"/>
        <pt x="362" y="100" on="1"/>
        <pt x="552" y="100" on="1"/>
        <pt x="552" y="0" on="1"/>
        <pt x="252" y="0" on="1"/>
        <pt x="252" y="127" on="1"/>
      </contour>
      <contour>
        <pt x="252" y="559" on="1"/>
        <pt x="166" y="222" on="1"/>
        <pt x="252" y="222" on="1"/>
      </contour>
    </TTGlyph>
    <TTGlyph name="agrave" xMin="11" yMin="0" xMax="396" yMax="848">
      <contour>
        <pt x="264" y="737" on="1"/>
        <pt x="185" y="737" on="1"/>
        <pt x="83" y="848" on="1"/>
        <pt x="196" y="848" on="1"/>
      </contour>
      <contour>
        <pt x="285" y="0" on="1"/>
        <pt x="266" y="127" on="1"/>
        <pt x="131" y="127" on="1"/>
        <pt x="112" y="0" on="1"/>
        <pt x="11" y="0" on="1"/>
        <pt x="123" y="700" on="1"/>
        <pt x="284" y="700" on="1"/>
        <pt x="396" y="0" on="1"/>
      </contour>
      <contour>
        <pt x="251" y="222" on="1"/>
        <pt x="198" y="576" on="1"/>
        <pt x="145" y="222" on="1"/>
      </contour>
    </TTGlyph>
    <TTGlyph name="amacron" xMin="11" yMin="0" xMax="396" yMax="819">
      <contour>
        <pt x="318" y="741" on="1"/>
        <pt x="88" y="741" on="1"/>
        <pt x="88" y="819" on="1"/>
        <pt x="318" y="819" on="1"/>
      </contour>
      <contour>
        <pt x="285" y="0" on="1"/>
        <pt x="266" y="127" on="1"/>
        <pt x="131" y="127" on="1"/>
        <pt x="112" y="0" on="1"/>
        <pt x="11" y="0" on="1"/>
        <pt x="123" y="700" on="1"/>
        <pt x="284" y="700" on="1"/>
        <pt x="396" y="0" on="1"/>
      </contour>
      <contour>
        <pt x="251" y="222" on="1"/>
        <pt x="198" y="576" on="1"/>
        <pt x="145" y="222" on="1"/>
      </contour>
    </TTGlyph>
    <TTGlyph name="ampersand" xMin="41" yMin="-8" xMax="404" yMax="700">
      <contour>
        <pt x="41" y="336" on="0"/>
        <pt x="117" y="370" on="1"/>
        <pt x="78" y="386" on="0"/>
        <pt x="41" y="457" on="0"/>
        <pt x="41" y="514" on="1"/>
        <pt x="41" y="527" on="1"/>
        <pt x="41" y="612" on="0"/>
        <pt x="123" y="700" on="0"/>
        <pt x="205" y="700" on="1"/>
        <pt x="331" y="700" on="1"/>
        <pt x="331" y="600" on="1"/>
        <pt x="207" y="600" on="1"/>
        <pt x="180" y="600" on="0"/>
        <pt x="151" y="568" on="0"/>
        <pt x="151" y="532" on="1"/>
        <pt x="151" y="489" on="1"/>
        <pt x="151" y="449" on="0"/>
        <pt x="184" y="415" on="0"/>
        <pt x="217" y="415" on="1"/>
        <pt x="265" y="415" on="1"/>
        <pt x="265" y="493" on="1"/>
        <pt x="375" y="493" on="1"/>
        <pt x="375" y="415" on="1"/>
        <pt x="404" y="415" on="1"/>
        <pt x="404" y="315" on="1"/>
        <pt x="375" y="315" on="1"/>
        <pt x="375" y="85" on="1"/>
        <pt x="375" y="55" on="0"/>
        <pt x="379" y="18" on="0"/>
        <pt x="387" y="0" on="1"/>
        <pt x="275" y="0" on="1"/>
        <pt x="267" y="22" on="0"/>
        <pt x="265" y="55" on="1"/>
        <pt x="236" y="-8" on="0"/>
        <pt x="163" y="-8" on="1"/>
        <pt x="103" y="-8" on="0"/>
        <pt x="41" y="74" on="0"/>
        <pt x="41" y="152" on="1"/>
        <pt x="41" y="223" on="1"/>
      </contour>
      <contour>
        <pt x="151" y="92" on="0"/>
        <pt x="208" y="92" on="1"/>
        <pt x="262" y="92" on="0"/>
        <pt x="265" y="153" on="1"/>
        <pt x="265" y="315" on="1"/>
        <pt x="223" y="315" on="1"/>
        <pt x="185" y="315" on="0"/>
        <pt x="151" y="274" on="0"/>
        <pt x="151" y="226" on="1"/>
        <pt x="151" y="161" on="1"/>
      </contour>
    </TTGlyph>
    <TTGlyph name="aogonek" xMin="11" yMin="-147" xMax="396" yMax="700">
      <contour>
        <pt x="355" y="0" on="1"/>
        <pt x="325" y="-25" on="0"/>
        <pt x="325" y="-58" on="1"/>
        <pt x="325" y="-71" on="0"/>
        <pt x="345" y="-86" on="0"/>
        <pt x="360" y="-86" on="1"/>
        <pt x="376" y="-86" on="0"/>
        <pt x="393" y="-81" on="0"/>
        <pt x="396" y="-80" on="1"/>
        <pt x="396" y="-136" on="1"/>
        <pt x="379" y="-143" on="0"/>
        <pt x="350" y="-147" on="0"/>
        <pt x="328" y="-147" on="1"/>
        <pt x="287" y="-147" on="0"/>
        <pt x="241" y="-115" on="0"/>
        <pt x="241" y="-85" on="1"/>
        <pt x="241" y="-43" on="0"/>
        <pt x="288" y="-12" on="1"/>
        <pt x="266" y="127" on="1"/>
        <pt x="131" y="127" on="1"/>
        <pt x="112" y="0" on="1"/>
        <pt x="11" y="0" on="1"/>
        <pt x="123" y="700" on="1"/>
        <pt x="284" y="700" on="1"/>
        <pt x="396" y="0" on="1"/>
      </contour>
      <contour>
        <pt x="251" y="222" on="1"/>
        <pt x="198" y="576" on="1"/>
        <pt x="145" y="222" on="1"/>
      </contour>
    </TTGlyph>
    <TTGlyph name="approxequal" xMin="8" yMin="195" xMax="388" yMax="505">
      <contour>
        <pt x="42" y="466" on="0"/>
        <pt x="97" y="505" on="0"/>
        <pt x="127" y="505" on="1"/>
        <pt x="146" y="505" on="0"/>
        <pt x="181" y="489" on="0"/>
        <pt x="207" y="472" on="1"/>
        <pt x="229" y="458" on="0"/>
        <pt x="257" y="444" on="0"/>
        <pt x="270" y="444" on="1"/>
        <pt x="286" y="444" on="0"/>
        <pt x="311" y="467" on="0"/>
        <pt x="336" y="501" on="1"/>
        <pt x="388" y="447" on="1"/>
        <pt x="354" y="397" on="0"/>
        <pt x="300" y="361" on="0"/>
        <pt x="269" y="361" on="1"/>
        <pt x="250" y="361" on="0"/>
        <pt x="215" y="377" on="0"/>
        <pt x="189" y="394" on="1"/>
        <pt x="167" y="408" on="0"/>
        <pt x="139" y="422" on="0"/>
        <pt x="126" y="422" on="1"/>
        <pt x="109" y="422" on="0"/>
        <pt x="84" y="399" on="0"/>
        <pt x="60" y="365" on="1"/>
        <pt x="8" y="415" on="1"/>
      </contour>
      <contour>
        <pt x="42" y="300" on="0"/>
        <pt x="97" y="339" on="0"/>
        <pt x="127" y="339" on="1"/>
        <pt x="146" y="339" on="0"/>
        <pt x="181" y="323" on="0"/>
        <pt x="207" y="306" on="1"/>
        <pt x="229" y="292" on="0"/>
        <pt x="257" y="278" on="0"/>
        <pt x="270" y="278" on="1"/>
        <pt x="286" y="278" on="0"/>
        <pt x="311" y="301" on="0"/>
        <pt x="336" y="335" on="1"/>
        <pt x="388" y="281" on="1"/>
        <pt x="354" y="231" on="0"/>
        <pt x="300" y="195" on="0"/>
        <pt x="269" y="195" on="1"/>
        <pt x="250" y="195" on="0"/>
        <pt x="215" y="211" on="0"/>
        <pt x="189" y="228" on="1"/>
        <pt x="167" y="242" on="0"/>
        <pt x="139" y="256" on="0"/>
        <pt x="126" y="256" on="1"/>
        <pt x="109" y="256" on="0"/>
        <pt x="84" y="233" on="0"/>
        <pt x="60" y="199" on="1"/>
        <pt x="8" y="249" on="1"/>
      </contour>
    </TTGlyph>
    <TTGlyph name="aring" xMin="11" yMin="0" xMax="396" yMax="894">
      <contour>
        <pt x="123" y="848" on="0"/>
        <pt x="169" y="894" on="0"/>
        <pt x="203" y="894" on="1"/>
        <pt x="237" y="894" on="0"/>
        <pt x="283" y="848" on="0"/>
        <pt x="283" y="814" on="1"/>
        <pt x="283" y="780" on="0"/>
        <pt x="237" y="734" on="0"/>
        <pt x="203" y="734" on="1"/>
        <pt x="169" y="734" on="0"/>
        <pt x="123" y="780" on="0"/>
        <pt x="123" y="814" on="1"/>
      </contour>
      <contour>
        <pt x="173" y="801" on="0"/>
        <pt x="190" y="784" on="0"/>
        <pt x="203" y="784" on="1"/>
        <pt x="216" y="784" on="0"/>
        <pt x="233" y="801" on="0"/>
        <pt x="233" y="814" on="1"/>
        <pt x="233" y="827" on="0"/>
        <pt x="216" y="844" on="0"/>
        <pt x="203" y="844" on="1"/>
        <pt x="190" y="844" on="0"/>
        <pt x="173" y="827" on="0"/>
        <pt x="173" y="814" on="1"/>
      </contour>
      <contour>
        <pt x="285" y="0" on="1"/>
        <pt x="266" y="127" on="1"/>
        <pt x="131" y="127" on="1"/>
        <pt x="112" y="0" on="1"/>
        <pt x="11" y="0" on="1"/>
        <pt x="123" y="700" on="1"/>
        <pt x="284" y="700" on="1"/>
        <pt x="396" y="0" on="1"/>
      </contour>
      <contour>
        <pt x="251" y="222" on="1"/>
        <pt x="198" y="576" on="1"/>
        <pt x="145" y="222" on="1"/>
      </contour>
    </TTGlyph>
    <TTGlyph name="asciicircum" xMin="20" yMin="390" xMax="376" yMax="700">
      <contour>
        <pt x="237" y="700" on="1"/>
        <pt x="376" y="390" on="1"/>
        <pt x="288" y="390" on="1"/>
        <pt x="198" y="600" on="1"/>
        <pt x="108" y="390" on="1"/>
        <pt x="20" y="390" on="1"/>
        <pt x="159" y="700" on="1"/>
      </contour>
    </TTGlyph>
    <TTGlyph name="asciitilde" xMin="8" yMin="278" xMax="388" yMax="422">
      <contour>
        <pt x="42" y="383" on="0"/>
        <pt x="97" y="422" on="0"/>
        <pt x="127" y="422" on="1"/>
        <pt x="146" y="422" on="0"/>
        <pt x="181" y="406" on="0"/>
        <pt x="207" y="389" on="1"/>
        <pt x="229" y="375" on="0"/>
        <pt x="257" y="361" on="0"/>
        <pt x="270" y="361" on="1"/>
        <pt x="286" y="361" on="0"/>
        <pt x="311" y="384" on="0"/>
        <pt x="336" y="418" on="1"/>
        <pt x="388" y="364" on="1"/>
        <pt x="354" y="314" on="0"/>
        <pt x="300" y="278" on="0"/>
        <pt x="269" y="278" on="1"/>
        <pt x="250" y="278" on="0"/>
        <pt x="215" y="294" on="0"/>
        <pt x="189" y="311" on="1"/>
        <pt x="167" y="325" on="0"/>
        <pt x="139" y="339" on="0"/>
        <pt x="126" y="339" on="1"/>
        <pt x="109" y="339" on="0"/>
        <pt x="84" y="316" on="0"/>
        <pt x="60" y="282" on="1"/>
        <pt x="8" y="332" on="1"/>
      </contour>
    </TTGlyph>
    <TTGlyph name="asterisk" xMin="2" yMin="327" xMax="394" yMax="700">
      <contour>
        <pt x="153" y="700" on="1"/>
        <pt x="243" y="700" on="1"/>
        <pt x="217" y="535" on="1"/>
        <pt x="366" y="610" on="1"/>
        <pt x="394" y="525" on="1"/>
        <pt x="230" y="497" on="1"/>
        <pt x="347" y="380" on="1"/>
        <pt x="275" y="327" on="1"/>
        <pt x="198" y="475" on="1"/>
        <pt x="121" y="327" on="1"/>
        <pt x="49" y="380" on="1"/>
        <pt x="166" y="497" on="1"/>
        <pt x="2" y="525" on="1"/>
        <pt x="30" y="610" on="1"/>
        <pt x="179" y="535" on="1"/>
      </contour>
    </TTGlyph>
    <TTGlyph name="at" xMin="24" yMin="-60" xMax="671" yMax="740">
      <contour>
        <pt x="394" y="127" on="0"/>
        <pt x="388" y="193" on="1"/>
        <pt x="359" y="133" on="0"/>
        <pt x="297" y="133" on="1"/>
        <pt x="248" y="133" on="0"/>
        <pt x="199" y="194" on="0"/>
        <pt x="199" y="253" on="1"/>
        <pt x="199" y="263" on="0"/>
        <pt x="201" y="287" on="1"/>
        <pt x="212" y="388" on="1"/>
        <pt x="220" y="460" on="0"/>
        <pt x="279" y="536" on="0"/>
        <pt x="328" y="536" on="1"/>
        <pt x="395" y="536" on="0"/>
        <pt x="416" y="474" on="1"/>
        <pt x="422" y="532" on="1"/>
        <pt x="518" y="532" on="1"/>
        <pt x="488" y="243" on="1"/>
        <pt x="488" y="237" on="1"/>
        <pt x="488" y="218" on="0"/>
        <pt x="508" y="218" on="1"/>
        <pt x="547" y="218" on="0"/>
        <pt x="588" y="357" on="0"/>
        <pt x="588" y="444" on="1"/>
        <pt x="588" y="542" on="0"/>
        <pt x="490" y="655" on="0"/>
        <pt x="389" y="655" on="1"/>
        <pt x="257" y="655" on="0"/>
        <pt x="118" y="459" on="0"/>
        <pt x="118" y="285" on="1"/>
        <pt x="118" y="161" on="0"/>
        <pt x="235" y="24" on="0"/>
        <pt x="351" y="24" on="1"/>
        <pt x="411" y="24" on="0"/>
        <pt x="508" y="54" on="0"/>
        <pt x="558" y="92" on="1"/>
        <pt x="550" y="-4" on="1"/>
        <pt x="503" y="-35" on="0"/>
        <pt x="405" y="-60" on="0"/>
        <pt x="345" y="-60" on="1"/>
        <pt x="182" y="-60" on="0"/>
        <pt x="24" y="127" on="0"/>
        <pt x="24" y="290" on="1"/>
        <pt x="24" y="417" on="0"/>
        <pt x="107" y="621" on="0"/>
        <pt x="274" y="740" on="0"/>
        <pt x="393" y="740" on="1"/>
        <pt x="541" y="740" on="0"/>
        <pt x="671" y="580" on="0"/>
        <pt x="671" y="446" on="1"/>
        <pt x="671" y="332" on="0"/>
        <pt x="609" y="189" on="0"/>
        <pt x="520" y="127" on="0"/>
        <pt x="476" y="127" on="1"/>
      </contour>
      <contour>
        <pt x="297" y="287" on="0"/>
        <pt x="297" y="277" on="1"/>
        <pt x="297" y="226" on="0"/>
        <pt x="343" y="226" on="1"/>
        <pt x="390" y="226" on="0"/>
        <pt x="397" y="289" on="1"/>
        <pt x="407" y="384" on="1"/>
        <pt x="410" y="413" on="0"/>
        <pt x="384" y="440" on="0"/>
        <pt x="361" y="440" on="1"/>
        <pt x="314" y="440" on="0"/>
        <pt x="307" y="377" on="1"/>
        <pt x="298" y="292" on="1"/>
      </contour>
    </TTGlyph>
    <TTGlyph name="atilde" xMin="11" yMin="0" xMax="396" yMax="842">
      <contour>
        <pt x="258" y="813" on="0"/>
        <pt x="278" y="825" on="0"/>
        <pt x="286" y="842" on="1"/>
        <pt x="339" y="805" on="1"/>
        <pt x="314" y="737" on="0"/>
        <pt x="254" y="737" on="1"/>
        <pt x="239" y="737" on="0"/>
        <pt x="216" y="744" on="0"/>
        <pt x="201" y="751" on="1"/>
        <pt x="179" y="762" on="0"/>
        <pt x="164" y="762" on="1"/>
        <pt x="149" y="762" on="0"/>
        <pt x="129" y="750" on="0"/>
        <pt x="121" y="733" on="1"/>
        <pt x="68" y="770" on="1"/>
        <pt x="93" y="838" on="0"/>
        <pt x="153" y="838" on="1"/>
        <pt x="168" y="838" on="0"/>
        <pt x="191" y="831" on="0"/>
        <pt x="206" y="824" on="1"/>
        <pt x="228" y="813" on="0"/>
        <pt x="243" y="813" on="1"/>
      </contour>
      <contour>
        <pt x="285" y="0" on="1"/>
        <pt x="266" y="127" on="1"/>
        <pt x="131" y="127" on="1"/>
        <pt x="112" y="0" on="1"/>
        <pt x="11" y="0" on="1"/>
        <pt x="123" y="700" on="1"/>
        <pt x="284" y="700" on="1"/>
        <pt x="396" y="0" on="1"/>
      </contour>
      <contour>
        <pt x="251" y="222" on="1"/>
        <pt x="198" y="576" on="1"/>
        <pt x="145" y="222" on="1"/>
      </contour>
    </TTGlyph>
    <TTGlyph name="b" xMin="40" yMin="0" xMax="380" yMax="700">
      <contour>
        <pt x="291" y="700" on="0"/>
        <pt x="369" y="621" on="0"/>
        <pt x="369" y="539" on="1"/>
        <pt x="369" y="514" on="1"/>
        <pt x="369" y="460" on="0"/>
        <pt x="334" y="390" on="0"/>
        <pt x="298" y="373" on="1"/>
        <pt x="380" y="341" on="0"/>
        <pt x="380" y="223" on="1"/>
        <pt x="380" y="166" on="1"/>
        <pt x="380" y="85" on="0"/>
        <pt x="295" y="0" on="0"/>
        <pt x="213" y="0" on="1"/>
        <pt x="40" y="0" on="1"/>
        <pt x="40" y="700" on="1"/>
        <pt x="206" y="700" on="1"/>
      </contour>
      <contour>
        <pt x="150" y="415" on="1"/>
        <pt x="193" y="415" on="1"/>
        <pt x="226" y="415" on="0"/>
        <pt x="259" y="449" on="0"/>
        <pt x="259" y="489" on="1"/>
        <pt x="259" y="528" on="1"/>
        <pt x="259" y="566" on="0"/>
        <pt x="232" y="600" on="0"/>
        <pt x="203" y="600" on="1"/>
        <pt x="150" y="600" on="1"/>
      </contour>
      <contour>
        <pt x="150" y="100" on="1"/>
        <pt x="213" y="100" on="1"/>
        <pt x="242" y="100" on="0"/>
        <pt x="270" y="131" on="0"/>
        <pt x="270" y="169" on="1"/>
        <pt x="270" y="230" on="1"/>
        <pt x="270" y="278" on="0"/>
        <pt x="237" y="315" on="0"/>
        <pt x="199" y="315" on="1"/>
        <pt x="150" y="315" on="1"/>
      </contour>
    </TTGlyph>
    <TTGlyph name="backslash" xMin="5" yMin="0" xMax="376" yMax="700">
      <contour>
        <pt x="281" y="0" on="1"/>
        <pt x="5" y="700" on="1"/>
        <pt x="100" y="700" on="1"/>
        <pt x="376" y="0" on="1"/>
      </contour>
    </TTGlyph>
    <TTGlyph name="bar" xMin="210" yMin="-65" xMax="300" yMax="765">
      <contour>
        <pt x="300" y="765" on="1"/>
        <pt x="300" y="-65" on="1"/>
        <pt x="210" y="-65" on="1"/>
        <pt x="210" y="765" on="1"/>
      </contour>
    </TTGlyph>
    <TTGlyph name="braceleft" xMin="11" yMin="0" xMax="241" yMax="700">
      <contour>
        <pt x="137" y="341" on="0"/>
        <pt x="165" y="294" on="0"/>
        <pt x="167" y="261" on="1"/>
        <pt x="172" y="161" on="1"/>
        <pt x="174" y="121" on="0"/>
        <pt x="198" y="90" on="0"/>
        <pt x="225" y="90" on="1"/>
        <pt x="241" y="90" on="1"/>
        <pt x="241" y="0" on="1"/>
        <pt x="185" y="0" on="1"/>
        <pt x="137" y="0" on="0"/>
        <pt x="78" y="56" on="0"/>
        <pt x="74" y="111" on="1"/>
        <pt x="66" y="245" on="1"/>
        <pt x="64" y="280" on="0"/>
        <pt x="42" y="305" on="0"/>
        <pt x="11" y="305" on="1"/>
        <pt x="11" y="395" on="1"/>
        <pt x="42" y="395" on="0"/>
        <pt x="64" y="420" on="0"/>
        <pt x="66" y="455" on="1"/>
        <pt x="74" y="589" on="1"/>
        <pt x="78" y="644" on="0"/>
        <pt x="137" y="700" on="0"/>
        <pt x="185" y="700" on="1"/>
        <pt x="241" y="700" on="1"/>
        <pt x="241" y="610" on="1"/>
        <pt x="225" y="610" on="1"/>
        <pt x="198" y="610" on="0"/>
        <pt x="174" y="579" on="0"/>
        <pt x="172" y="539" on="1"/>
        <pt x="167" y="439" on="1"/>
        <pt x="165" y="406" on="0"/>
        <pt x="137" y="359" on="0"/>
        <pt x="102" y="350" on="1"/>
      </contour>
    </TTGlyph>
    <TTGlyph name="braceright" xMin="16" yMin="0" xMax="246" yMax="700">
      <contour>
        <pt x="120" y="359" on="0"/>
        <pt x="92" y="406" on="0"/>
        <pt x="90" y="439" on="1"/>
        <pt x="85" y="539" on="1"/>
        <pt x="83" y="579" on="0"/>
        <pt x="59" y="610" on="0"/>
        <pt x="32" y="610" on="1"/>
        <pt x="16" y="610" on="1"/>
        <pt x="16" y="700" on="1"/>
        <pt x="72" y="700" on="1"/>
        <pt x="120" y="700" on="0"/>
        <pt x="179" y="644" on="0"/>
        <pt x="183" y="589" on="1"/>
        <pt x="191" y="455" on="1"/>
        <pt x="193" y="420" on="0"/>
        <pt x="215" y="395" on="0"/>
        <pt x="246" y="395" on="1"/>
        <pt x="246" y="305" on="1"/>
        <pt x="215" y="305" on="0"/>
        <pt x="193" y="280" on="0"/>
        <pt x="191" y="245" on="1"/>
        <pt x="183" y="111" on="1"/>
        <pt x="179" y="56" on="0"/>
        <pt x="120" y="0" on="0"/>
        <pt x="72" y="0" on="1"/>
        <pt x="16" y="0" on="1"/>
        <pt x="16" y="90" on="1"/>
        <pt x="32" y="90" on="1"/>
        <pt x="59" y="90" on="0"/>
        <pt x="83" y="121" on="0"/>
        <pt x="85" y="161" on="1"/>
        <pt x="90" y="261" on="1"/>
        <pt x="92" y="294" on="0"/>
        <pt x="120" y="341" on="0"/>
        <pt x="155" y="350" on="1"/>
      </contour>
    </TTGlyph>
    <TTGlyph name="bracketleft" xMin="47" yMin="0" xMax="229" yMax="700">
      <contour>
        <pt x="229" y="700" on="1"/>
        <pt x="229" y="610" on="1"/>
        <pt x="157" y="610" on="1"/>
        <pt x="157" y="90" on="1"/>
        <pt x="229" y="90" on="1"/>
        <pt x="229" y="0" on="1"/>
        <pt x="47" y="0" on="1"/>
        <pt x="47" y="700" on="1"/>
      </contour>
    </TTGlyph>
    <TTGlyph name="bracketright" xMin="22" yMin="0" xMax="204" yMax="700">
      <contour>
        <pt x="22" y="0" on="1"/>
        <pt x="22" y="90" on="1"/>
        <pt x="94" y="90" on="1"/>
        <pt x="94" y="610" on="1"/>
        <pt x="22" y="610" on="1"/>
        <pt x="22" y="700" on="1"/>
        <pt x="204" y="700" on="1"/>
        <pt x="204" y="0" on="1"/>
      </contour>
    </TTGlyph>
    <TTGlyph name="breve" xMin="13" yMin="733" xMax="237" yMax="848">
      <contour>
        <pt x="237" y="848" on="1"/>
        <pt x="237" y="794" on="0"/>
        <pt x="179" y="733" on="0"/>
        <pt x="124" y="733" on="1"/>
        <pt x="69" y="733" on="0"/>
        <pt x="14" y="794" on="0"/>
        <pt x="13" y="848" on="1"/>
        <pt x="78" y="848" on="1"/>
        <pt x="80" y="821" on="0"/>
        <pt x="102" y="801" on="0"/>
        <pt x="124" y="801" on="1"/>
        <pt x="147" y="801" on="0"/>
        <pt x="170" y="821" on="0"/>
        <pt x="172" y="848" on="1"/>
      </contour>
    </TTGlyph>
    <TTGlyph name="brokenbar" xMin="210" yMin="-65" xMax="300" yMax="765">
      <contour>
        <pt x="300" y="765" on="1"/>
        <pt x="300" y="410" on="1"/>
        <pt x="210" y="410" on="1"/>
        <pt x="210" y="765" on="1"/>
      </contour>
      <contour>
        <pt x="300" y="290" on="1"/>
        <pt x="300" y="-65" on="1"/>
        <pt x="210" y="-65" on="1"/>
        <pt x="210" y="290" on="1"/>
      </contour>
    </TTGlyph>
    <TTGlyph name="bullet" xMin="59" yMin="211" xMax="337" yMax="489">
      <contour>
        <pt x="59" y="388" on="0"/>
        <pt x="96" y="452" on="0"/>
        <pt x="160" y="489" on="0"/>
        <pt x="198" y="489" on="1"/>
        <pt x="236" y="489" on="0"/>
        <pt x="300" y="452" on="0"/>
        <pt x="337" y="388" on="0"/>
        <pt x="337" y="350" on="1"/>
        <pt x="337" y="312" on="0"/>
        <pt x="300" y="248" on="0"/>
        <pt x="236" y="211" on="0"/>
        <pt x="198" y="211" on="1"/>
        <pt x="160" y="211" on="0"/>
        <pt x="96" y="248" on="0"/>
        <pt x="59" y="312" on="0"/>
        <pt x="59" y="350" on="1"/>
      </contour>
    </TTGlyph>
    <TTGlyph name="c" xMin="31" yMin="-8" xMax="359" yMax="708">
      <contour>
        <pt x="359" y="168" on="1"/>
        <pt x="359" y="83" on="0"/>
        <pt x="275" y="-8" on="0"/>
        <pt x="195" y="-8" on="1"/>
        <pt x="115" y="-8" on="0"/>
        <pt x="31" y="83" on="0"/>
        <pt x="31" y="168" on="1"/>
        <pt x="31" y="532" on="1"/>
        <pt x="31" y="617" on="0"/>
        <pt x="115" y="708" on="0"/>
        <pt x="195" y="708" on="1"/>
        <pt x="275" y="708" on="0"/>
        <pt x="359" y="617" on="0"/>
        <pt x="359" y="532" on="1"/>
        <pt x="359" y="464" on="1"/>
        <pt x="255" y="464" on="1"/>
        <pt x="255" y="539" on="1"/>
        <pt x="255" y="608" on="0"/>
        <pt x="198" y="608" on="1"/>
        <pt x="141" y="608" on="0"/>
        <pt x="141" y="539" on="1"/>
        <pt x="141" y="161" on="1"/>
        <pt x="141" y="93" on="0"/>
        <pt x="198" y="93" on="1"/>
        <pt x="255" y="93" on="0"/>
        <pt x="255" y="161" on="1"/>
        <pt x="255" y="261" on="1"/>
        <pt x="359" y="261" on="1"/>
      </contour>
    </TTGlyph>
    <TTGlyph name="cacute" xMin="31" yMin="-8" xMax="359" yMax="848">
      <contour>
        <pt x="211" y="737" on="1"/>
        <pt x="137" y="737" on="1"/>
        <pt x="205" y="848" on="1"/>
        <pt x="313" y="848" on="1"/>
      </contour>
      <contour>
        <pt x="359" y="168" on="1"/>
        <pt x="359" y="83" on="0"/>
        <pt x="275" y="-8" on="0"/>
        <pt x="195" y="-8" on="1"/>
        <pt x="115" y="-8" on="0"/>
        <pt x="31" y="83" on="0"/>
        <pt x="31" y="168" on="1"/>
        <pt x="31" y="532" on="1"/>
        <pt x="31" y="617" on="0"/>
        <pt x="115" y="708" on="0"/>
        <pt x="195" y="708" on="1"/>
        <pt x="275" y="708" on="0"/>
        <pt x="359" y="617" on="0"/>
        <pt x="359" y="532" on="1"/>
        <pt x="359" y="464" on="1"/>
        <pt x="255" y="464" on="1"/>
        <pt x="255" y="539" on="1"/>
        <pt x="255" y="608" on="0"/>
        <pt x="198" y="608" on="1"/>
        <pt x="141" y="608" on="0"/>
        <pt x="141" y="539" on="1"/>
        <pt x="141" y="161" on="1"/>
        <pt x="141" y="93" on="0"/>
        <pt x="198" y="93" on="1"/>
        <pt x="255" y="93" on="0"/>
        <pt x="255" y="161" on="1"/>
        <pt x="255" y="261" on="1"/>
        <pt x="359" y="261" on="1"/>
      </contour>
    </TTGlyph>
    <TTGlyph name="caron" xMin="-13" yMin="737" xMax="264" yMax="848">
      <contour>
        <pt x="125" y="792" on="1"/>
        <pt x="170" y="848" on="1"/>
        <pt x="264" y="848" on="1"/>
        <pt x="175" y="737" on="1"/>
        <pt x="76" y="737" on="1"/>
        <pt x="-13" y="848" on="1"/>
        <pt x="81" y="848" on="1"/>
      </contour>
    </TTGlyph>
    <TTGlyph name="ccaron" xMin="31" yMin="-8" xMax="359" yMax="848">
      <contour>
        <pt x="194" y="792" on="1"/>
        <pt x="239" y="848" on="1"/>
        <pt x="333" y="848" on="1"/>
        <pt x="244" y="737" on="1"/>
        <pt x="145" y="737" on="1"/>
        <pt x="56" y="848" on="1"/>
        <pt x="150" y="848" on="1"/>
      </contour>
      <contour>
        <pt x="359" y="168" on="1"/>
        <pt x="359" y="83" on="0"/>
        <pt x="275" y="-8" on="0"/>
        <pt x="195" y="-8" on="1"/>
        <pt x="115" y="-8" on="0"/>
        <pt x="31" y="83" on="0"/>
        <pt x="31" y="168" on="1"/>
        <pt x="31" y="532" on="1"/>
        <pt x="31" y="617" on="0"/>
        <pt x="115" y="708" on="0"/>
        <pt x="195" y="708" on="1"/>
        <pt x="275" y="708" on="0"/>
        <pt x="359" y="617" on="0"/>
        <pt x="359" y="532" on="1"/>
        <pt x="359" y="464" on="1"/>
        <pt x="255" y="464" on="1"/>
        <pt x="255" y="539" on="1"/>
        <pt x="255" y="608" on="0"/>
        <pt x="198" y="608" on="1"/>
        <pt x="141" y="608" on="0"/>
        <pt x="141" y="539" on="1"/>
        <pt x="141" y="161" on="1"/>
        <pt x="141" y="93" on="0"/>
        <pt x="198" y="93" on="1"/>
        <pt x="255" y="93" on="0"/>
        <pt x="255" y="161" on="1"/>
        <pt x="255" y="261" on="1"/>
        <pt x="359" y="261" on="1"/>
      </contour>
    </TTGlyph>
    <TTGlyph name="ccedilla" xMin="31" yMin="-147" xMax="359" yMax="708">
      <contour>
        <pt x="359" y="168" on="1"/>
        <pt x="359" y="90" on="0"/>
        <pt x="286" y="-1" on="0"/>
        <pt x="217" y="-7" on="1"/>
        <pt x="217" y="-39" on="1"/>
        <pt x="255" y="-39" on="0"/>
        <pt x="291" y="-60" on="0"/>
        <pt x="291" y="-86" on="1"/>
        <pt x="291" y="-123" on="0"/>
        <pt x="241" y="-147" on="0"/>
        <pt x="190" y="-147" on="1"/>
        <pt x="144" y="-147" on="0"/>
        <pt x="94" y="-121" on="0"/>
        <pt x="94" y="-89" on="1"/>
        <pt x="94" y="-79" on="1"/>
        <pt x="168" y="-79" on="1"/>
        <pt x="168" y="-87" on="1"/>
        <pt x="168" y="-97" on="0"/>
        <pt x="181" y="-107" on="0"/>
        <pt x="190" y="-107" on="1"/>
        <pt x="215" y="-107" on="0"/>
        <pt x="215" y="-83" on="1"/>
        <pt x="215" y="-69" on="0"/>
        <pt x="197" y="-57" on="0"/>
        <pt x="179" y="-57" on="1"/>
        <pt x="169" y="-57" on="1"/>
        <pt x="169" y="-6" on="1"/>
        <pt x="101" y="1" on="0"/>
        <pt x="31" y="90" on="0"/>
        <pt x="31" y="168" on="1"/>
        <pt x="31" y="532" on="1"/>
        <pt x="31" y="617" on="0"/>
        <pt x="115" y="708" on="0"/>
        <pt x="195" y="708" on="1"/>
        <pt x="275" y="708" on="0"/>
        <pt x="359" y="617" on="0"/>
        <pt x="359" y="532" on="1"/>
        <pt x="359" y="464" on="1"/>
        <pt x="255" y="464" on="1"/>
        <pt x="255" y="539" on="1"/>
        <pt x="255" y="608" on="0"/>
        <pt x="198" y="608" on="1"/>
        <pt x="141" y="608" on="0"/>
        <pt x="141" y="539" on="1"/>
        <pt x="141" y="161" on="1"/>
        <pt x="141" y="93" on="0"/>
        <pt x="198" y="93" on="1"/>
        <pt x="255" y="93" on="0"/>
        <pt x="255" y="161" on="1"/>
        <pt x="255" y="261" on="1"/>
        <pt x="359" y="261" on="1"/>
      </contour>
    </TTGlyph>
    <TTGlyph name="ccircumflex" xMin="31" yMin="-8" xMax="359" yMax="848">
      <contour>
        <pt x="145" y="848" on="1"/>
        <pt x="244" y="848" on="1"/>
        <pt x="333" y="737" on="1"/>
        <pt x="239" y="737" on="1"/>
        <pt x="194" y="792" on="1"/>
        <pt x="150" y="737" on="1"/>
        <pt x="56" y="737" on="1"/>
      </contour>
      <contour>
        <pt x="359" y="168" on="1"/>
        <pt x="359" y="83" on="0"/>
        <pt x="275" y="-8" on="0"/>
        <pt x="195" y="-8" on="1"/>
        <pt x="115" y="-8" on="0"/>
        <pt x="31" y="83" on="0"/>
        <pt x="31" y="168" on="1"/>
        <pt x="31" y="532" on="1"/>
        <pt x="31" y="617" on="0"/>
        <pt x="115" y="708" on="0"/>
        <pt x="195" y="708" on="1"/>
        <pt x="275" y="708" on="0"/>
        <pt x="359" y="617" on="0"/>
        <pt x="359" y="532" on="1"/>
        <pt x="359" y="464" on="1"/>
        <pt x="255" y="464" on="1"/>
        <pt x="255" y="539" on="1"/>
        <pt x="255" y="608" on="0"/>
        <pt x="198" y="608" on="1"/>
        <pt x="141" y="608" on="0"/>
        <pt x="141" y="539" on="1"/>
        <pt x="141" y="161" on="1"/>
        <pt x="141" y="93" on="0"/>
        <pt x="198" y="93" on="1"/>
        <pt x="255" y="93" on="0"/>
        <pt x="255" y="161" on="1"/>
        <pt x="255" y="261" on="1"/>
        <pt x="359" y="261" on="1"/>
      </contour>
    </TTGlyph>
    <TTGlyph name="cdotaccent" xMin="31" yMin="-8" xMax="359" yMax="833">
      <contour>
        <pt x="243" y="737" on="1"/>
        <pt x="147" y="737" on="1"/>
        <pt x="147" y="833" on="1"/>
        <pt x="243" y="833" on="1"/>
      </contour>
      <contour>
        <pt x="359" y="168" on="1"/>
        <pt x="359" y="83" on="0"/>
        <pt x="275" y="-8" on="0"/>
        <pt x="195" y="-8" on="1"/>
        <pt x="115" y="-8" on="0"/>
        <pt x="31" y="83" on="0"/>
        <pt x="31" y="168" on="1"/>
        <pt x="31" y="532" on="1"/>
        <pt x="31" y="617" on="0"/>
        <pt x="115" y="708" on="0"/>
        <pt x="195" y="708" on="1"/>
        <pt x="275" y="708" on="0"/>
        <pt x="359" y="617" on="0"/>
        <pt x="359" y="532" on="1"/>
        <pt x="359" y="464" on="1"/>
        <pt x="255" y="464" on="1"/>
        <pt x="255" y="539" on="1"/>
        <pt x="255" y="608" on="0"/>
        <pt x="198" y="608" on="1"/>
        <pt x="141" y="608" on="0"/>
        <pt x="141" y="539" on="1"/>
        <pt x="141" y="161" on="1"/>
        <pt x="141" y="93" on="0"/>
        <pt x="198" y="93" on="1"/>
        <pt x="255" y="93" on="0"/>
        <pt x="255" y="161" on="1"/>
        <pt x="255" y="261" on="1"/>
        <pt x="359" y="261" on="1"/>
      </contour>
    </TTGlyph>
    <TTGlyph name="cedilla" xMin="26" yMin="-147" xMax="223" yMax="14">
      <contour>
        <pt x="100" y="-79" on="1"/>
        <pt x="100" y="-87" on="1"/>
        <pt x="100" y="-97" on="0"/>
        <pt x="113" y="-107" on="0"/>
        <pt x="122" y="-107" on="1"/>
        <pt x="147" y="-107" on="0"/>
        <pt x="147" y="-83" on="1"/>
        <pt x="147" y="-69" on="0"/>
        <pt x="129" y="-57" on="0"/>
        <pt x="111" y="-57" on="1"/>
        <pt x="101" y="-57" on="1"/>
        <pt x="101" y="14" on="1"/>
        <pt x="149" y="14" on="1"/>
        <pt x="149" y="-39" on="1"/>
        <pt x="187" y="-39" on="0"/>
        <pt x="223" y="-60" on="0"/>
        <pt x="223" y="-86" on="1"/>
        <pt x="223" y="-123" on="0"/>
        <pt x="173" y="-147" on="0"/>
        <pt x="122" y="-147" on="1"/>
        <pt x="76" y="-147" on="0"/>
        <pt x="26" y="-121" on="0"/>
        <pt x="26" y="-89" on="1"/>
        <pt x="26" y="-79" on="1"/>
      </contour>
    </TTGlyph>
    <TTGlyph name="cent" xMin="36" yMin="-15" xMax="364" yMax="715">
      <contour>
        <pt x="95" y="49" on="0"/>
        <pt x="36" y="136" on="0"/>
        <pt x="36" y="208" on="1"/>
        <pt x="36" y="492" on="1"/>
        <pt x="36" y="563" on="0"/>
        <pt x="95" y="650" on="0"/>
        <pt x="153" y="663" on="1"/>
        <pt x="153" y="715" on="1"/>
        <pt x="243" y="715" on="1"/>
        <pt x="243" y="664" on="1"/>
        <pt x="303" y="652" on="0"/>
        <pt x="364" y="564" on="0"/>
        <pt x="364" y="492" on="1"/>
        <pt x="364" y="444" on="1"/>
        <pt x="260" y="444" on="1"/>
        <pt x="260" y="499" on="1"/>
        <pt x="260" y="568" on="0"/>
        <pt x="203" y="568" on="1"/>
        <pt x="146" y="568" on="0"/>
        <pt x="146" y="499" on="1"/>
        <pt x="146" y="201" on="1"/>
        <pt x="146" y="133" on="0"/>
        <pt x="203" y="133" on="1"/>
        <pt x="260" y="133" on="0"/>
        <pt x="260" y="201" on="1"/>
        <pt x="260" y="281" on="1"/>
        <pt x="364" y="281" on="1"/>
        <pt x="364" y="208" on="1"/>
        <pt x="364" y="135" on="0"/>
        <pt x="303" y="47" on="0"/>
        <pt x="243" y="36" on="1"/>
        <pt x="243" y="-15" on="1"/>
        <pt x="153" y="-15" on="1"/>
        <pt x="153" y="37" on="1"/>
      </contour>
    </TTGlyph>
    <TTGlyph name="circumflex" xMin="-13" yMin="737" xMax="264" yMax="848">
      <contour>
        <pt x="76" y="848" on="1"/>
        <pt x="175" y="848" on="1"/>
        <pt x="264" y="737" on="1"/>
        <pt x="170" y="737" on="1"/>
        <pt x="125" y="792" on="1"/>
        <pt x="81" y="737" on="1"/>
        <pt x="-13" y="737" on="1"/>
      </contour>
    </TTGlyph>
    <TTGlyph name="colon" xMin="40" yMin="0" xMax="146" yMax="487">
      <contour>
        <pt x="146" y="381" on="1"/>
        <pt x="40" y="381" on="1"/>
        <pt x="40" y="487" on="1"/>
        <pt x="146" y="487" on="1"/>
      </contour>
      <contour>
        <pt x="146" y="0" on="1"/>
        <pt x="40" y="0" on="1"/>
        <pt x="40" y="106" on="1"/>
        <pt x="146" y="106" on="1"/>
      </contour>
    </TTGlyph>
    <TTGlyph name="comma" xMin="40" yMin="-100" xMax="146" yMax="106">
      <contour>
        <pt x="40" y="106" on="1"/>
        <pt x="146" y="106" on="1"/>
        <pt x="146" y="11" on="1"/>
        <pt x="98" y="-100" on="1"/>
        <pt x="53" y="-100" on="1"/>
        <pt x="82" y="0" on="1"/>
        <pt x="40" y="0" on="1"/>
      </contour>
    </TTGlyph>
    <TTGlyph name="copyright" xMin="20" yMin="-8" xMax="716" yMax="708">
      <contour>
        <pt x="20" y="452" on="0"/>
        <pt x="111" y="616" on="0"/>
        <pt x="270" y="708" on="0"/>
        <pt x="368" y="708" on="1"/>
        <pt x="466" y="708" on="0"/>
        <pt x="625" y="616" on="0"/>
        <pt x="716" y="452" on="0"/>
        <pt x="716" y="350" on="1"/>
        <pt x="716" y="248" on="0"/>
        <pt x="625" y="84" on="0"/>
        <pt x="466" y="-8" on="0"/>
        <pt x="368" y="-8" on="1"/>
        <pt x="270" y="-8" on="0"/>
        <pt x="111" y="84" on="0"/>
        <pt x="20" y="248" on="0"/>
        <pt x="20" y="350" on="1"/>
      </contour>
      <contour>
        <pt x="92" y="268" on="0"/>
        <pt x="164" y="136" on="0"/>
        <pt x="290" y="62" on="0"/>
        <pt x="368" y="62" on="1"/>
        <pt x="446" y="62" on="0"/>
        <pt x="572" y="136" on="0"/>
        <pt x="644" y="268" on="0"/>
        <pt x="644" y="350" on="1"/>
        <pt x="644" y="432" on="0"/>
        <pt x="572" y="564" on="0"/>
        <pt x="446" y="638" on="0"/>
        <pt x="368" y="638" on="1"/>
        <pt x="290" y="638" on="0"/>
        <pt x="164" y="564" on="0"/>
        <pt x="92" y="432" on="0"/>
        <pt x="92" y="350" on="1"/>
      </contour>
      <contour>
        <pt x="477" y="252" on="1"/>
        <pt x="477" y="193" on="0"/>
        <pt x="420" y="130" on="0"/>
        <pt x="364" y="130" on="1"/>
        <pt x="308" y="130" on="0"/>
        <pt x="251" y="193" on="0"/>
        <pt x="251" y="252" on="1"/>
        <pt x="251" y="446" on="1"/>
        <pt x="251" y="506" on="0"/>
        <pt x="308" y="570" on="0"/>
        <pt x="364" y="570" on="1"/>
        <pt x="420" y="570" on="0"/>
        <pt x="477" y="506" on="0"/>
        <pt x="477" y="446" on="1"/>
        <pt x="477" y="410" on="1"/>
        <pt x="405" y="410" on="1"/>
        <pt x="405" y="452" on="1"/>
        <pt x="405" y="500" on="0"/>
        <pt x="366" y="500" on="1"/>
        <pt x="327" y="500" on="0"/>
        <pt x="327" y="452" on="1"/>
        <pt x="327" y="248" on="1"/>
        <pt x="327" y="201" on="0"/>
        <pt x="366" y="201" on="1"/>
        <pt x="405" y="201" on="0"/>
        <pt x="405" y="248" on="1"/>
        <pt x="405" y="308" on="1"/>
        <pt x="477" y="308" on="1"/>
      </contour>
    </TTGlyph>
    <TTGlyph name="currency" xMin="32" yMin="184" xMax="364" yMax="516">
      <contour>
        <pt x="69" y="312" on="0"/>
        <pt x="69" y="350" on="1"/>
        <pt x="69" y="389" on="0"/>
        <pt x="87" y="417" on="1"/>
        <pt x="32" y="473" on="1"/>
        <pt x="75" y="516" on="1"/>
        <pt x="131" y="460" on="1"/>
        <pt x="161" y="479" on="0"/>
        <pt x="198" y="479" on="1"/>
        <pt x="233" y="479" on="0"/>
        <pt x="265" y="460" on="1"/>
        <pt x="321" y="516" on="1"/>
        <pt x="364" y="473" on="1"/>
        <pt x="308" y="417" on="1"/>
        <pt x="327" y="385" on="0"/>
        <pt x="327" y="350" on="1"/>
        <pt x="327" y="313" on="0"/>
        <pt x="308" y="283" on="1"/>
        <pt x="364" y="227" on="1"/>
        <pt x="321" y="184" on="1"/>
        <pt x="265" y="239" on="1"/>
        <pt x="236" y="221" on="0"/>
        <pt x="198" y="221" on="1"/>
        <pt x="160" y="221" on="0"/>
        <pt x="130" y="239" on="1"/>
        <pt x="75" y="184" on="1"/>
        <pt x="32" y="227" on="1"/>
        <pt x="87" y="282" on="1"/>
      </contour>
      <contour>
        <pt x="134" y="324" on="0"/>
        <pt x="172" y="286" on="0"/>
        <pt x="198" y="286" on="1"/>
        <pt x="224" y="286" on="0"/>
        <pt x="262" y="324" on="0"/>
        <pt x="262" y="350" on="1"/>
        <pt x="262" y="376" on="0"/>
        <pt x="224" y="414" on="0"/>
        <pt x="198" y="414" on="1"/>
        <pt x="172" y="414" on="0"/>
        <pt x="134" y="376" on="0"/>
        <pt x="134" y="350" on="1"/>
      </contour>
    </TTGlyph>
    <TTGlyph name="d" xMin="40" yMin="0" xMax="378" yMax="700">
      <contour>
        <pt x="214" y="700" on="1"/>
        <pt x="296" y="700" on="0"/>
        <pt x="378" y="612" on="0"/>
        <pt x="378" y="527" on="1"/>
        <pt x="378" y="173" on="1"/>
        <pt x="378" y="88" on="0"/>
        <pt x="296" y="0" on="0"/>
        <pt x="214" y="0" on="1"/>
        <pt x="40" y="0" on="1"/>
        <pt x="40" y="700" on="1"/>
      </contour>
      <contour>
        <pt x="150" y="100" on="1"/>
        <pt x="212" y="100" on="1"/>
        <pt x="239" y="100" on="0"/>
        <pt x="268" y="132" on="0"/>
        <pt x="268" y="168" on="1"/>
        <pt x="268" y="532" on="1"/>
        <pt x="268" y="568" on="0"/>
        <pt x="239" y="600" on="0"/>
        <pt x="212" y="600" on="1"/>
        <pt x="150" y="600" on="1"/>
      </contour>
    </TTGlyph>
    <TTGlyph name="dagger" xMin="25" yMin="-65" xMax="371" yMax="700">
      <contour>
        <pt x="153" y="525" on="1"/>
        <pt x="153" y="700" on="1"/>
        <pt x="243" y="700" on="1"/>
        <pt x="243" y="525" on="1"/>
        <pt x="371" y="525" on="1"/>
        <pt x="371" y="440" on="1"/>
        <pt x="243" y="440" on="1"/>
        <pt x="243" y="-65" on="1"/>
        <pt x="153" y="-65" on="1"/>
        <pt x="153" y="440" on="1"/>
        <pt x="25" y="440" on="1"/>
        <pt x="25" y="525" on="1"/>
      </contour>
    </TTGlyph>
    <TTGlyph name="daggerdbl" xMin="25" yMin="-65" xMax="371" yMax="700">
      <contour>
        <pt x="153" y="525" on="1"/>
        <pt x="153" y="700" on="1"/>
        <pt x="243" y="700" on="1"/>
        <pt x="243" y="525" on="1"/>
        <pt x="371" y="525" on="1"/>
        <pt x="371" y="440" on="1"/>
        <pt x="243" y="440" on="1"/>
        <pt x="243" y="195" on="1"/>
        <pt x="371" y="195" on="1"/>
        <pt x="371" y="110" on="1"/>
        <pt x="243" y="110" on="1"/>
        <pt x="243" y="-65" on="1"/>
        <pt x="153" y="-65" on="1"/>
        <pt x="153" y="110" on="1"/>
        <pt x="25" y="110" on="1"/>
        <pt x="25" y="195" on="1"/>
        <pt x="153" y="195" on="1"/>
        <pt x="153" y="440" on="1"/>
        <pt x="25" y="440" on="1"/>
        <pt x="25" y="525" on="1"/>
      </contour>
    </TTGlyph>
    <TTGlyph name="dcaron" xMin="40" yMin="0" xMax="378" yMax="848">
      <contour>
        <pt x="194" y="792" on="1"/>
        <pt x="239" y="848" on="1"/>
        <pt x="333" y="848" on="1"/>
        <pt x="244" y="737" on="1"/>
        <pt x="145" y="737" on="1"/>
        <pt x="56" y="848" on="1"/>
        <pt x="150" y="848" on="1"/>
      </contour>
      <contour>
        <pt x="214" y="700" on="1"/>
        <pt x="296" y="700" on="0"/>
        <pt x="378" y="612" on="0"/>
        <pt x="378" y="527" on="1"/>
        <pt x="378" y="173" on="1"/>
        <pt x="378" y="88" on="0"/>
        <pt x="296" y="0" on="0"/>
        <pt x="214" y="0" on="1"/>
        <pt x="40" y="0" on="1"/>
        <pt x="40" y="700" on="1"/>
      </contour>
      <contour>
        <pt x="150" y="100" on="1"/>
        <pt x="212" y="100" on="1"/>
        <pt x="239" y="100" on="0"/>
        <pt x="268" y="132" on="0"/>
        <pt x="268" y="168" on="1"/>
        <pt x="268" y="532" on="1"/>
        <pt x="268" y="568" on="0"/>
        <pt x="239" y="600" on="0"/>
        <pt x="212" y="600" on="1"/>
        <pt x="150" y="600" on="1"/>
      </contour>
    </TTGlyph>
    <TTGlyph name="dcroat" xMin="4" yMin="0" xMax="378" yMax="700">
      <contour>
        <pt x="4" y="305" on="1"/>
        <pt x="4" y="395" on="1"/>
        <pt x="40" y="395" on="1"/>
        <pt x="40" y="700" on="1"/>
        <pt x="214" y="700" on="1"/>
        <pt x="296" y="700" on="0"/>
        <pt x="378" y="612" on="0"/>
        <pt x="378" y="527" on="1"/>
        <pt x="378" y="173" on="1"/>
        <pt x="378" y="88" on="0"/>
        <pt x="296" y="0" on="0"/>
        <pt x="214" y="0" on="1"/>
        <pt x="40" y="0" on="1"/>
        <pt x="40" y="305" on="1"/>
      </contour>
      <contour>
        <pt x="150" y="395" on="1"/>
        <pt x="218" y="395" on="1"/>
        <pt x="218" y="305" on="1"/>
        <pt x="150" y="305" on="1"/>
        <pt x="150" y="100" on="1"/>
        <pt x="212" y="100" on="1"/>
        <pt x="239" y="100" on="0"/>
        <pt x="268" y="132" on="0"/>
        <pt x="268" y="168" on="1"/>
        <pt x="268" y="532" on="1"/>
        <pt x="268" y="568" on="0"/>
        <pt x="239" y="600" on="0"/>
        <pt x="212" y="600" on="1"/>
        <pt x="150" y="600" on="1"/>
      </contour>
    </TTGlyph>
    <TTGlyph name="degree" xMin="15" yMin="510" xMax="213" yMax="708">
      <contour>
        <pt x="15" y="650" on="0"/>
        <pt x="73" y="708" on="0"/>
        <pt x="114" y="708" on="1"/>
        <pt x="155" y="708" on="0"/>
        <pt x="213" y="650" on="0"/>
        <pt x="213" y="609" on="1"/>
        <pt x="213" y="568" on="0"/>
        <pt x="155" y="510" on="0"/>
        <pt x="114" y="510" on="1"/>
        <pt x="73" y="510" on="0"/>
        <pt x="15" y="568" on="0"/>
        <pt x="15" y="609" on="1"/>
      </contour>
      <contour>
        <pt x="65" y="589" on="0"/>
        <pt x="94" y="560" on="0"/>
        <pt x="114" y="560" on="1"/>
        <pt x="134" y="560" on="0"/>
        <pt x="163" y="589" on="0"/>
        <pt x="163" y="609" on="1"/>
        <pt x="163" y="629" on="0"/>
        <pt x="134" y="658" on="0"/>
        <pt x="114" y="658" on="1"/>
        <pt x="94" y="658" on="0"/>
        <pt x="65" y="629" on="0"/>
        <pt x="65" y="609" on="1"/>
      </contour>
    </TTGlyph>
    <TTGlyph name="dieresis" xMin="1" yMin="737" xMax="249" yMax="833">
      <contour>
        <pt x="97" y="737" on="1"/>
        <pt x="1" y="737" on="1"/>
        <pt x="1" y="833" on="1"/>
        <pt x="97" y="833" on="1"/>
      </contour>
      <contour>
        <pt x="249" y="737" on="1"/>
        <pt x="153" y="737" on="1"/>
        <pt x="153" y="833" on="1"/>
        <pt x="249" y="833" on="1"/>
      </contour>
    </TTGlyph>
    <TTGlyph name="divide" xMin="25" yMin="144" xMax="371" yMax="555">
      <contour>
        <pt x="251" y="449" on="1"/>
        <pt x="145" y="449" on="1"/>
        <pt x="145" y="555" on="1"/>
        <pt x="251" y="555" on="1"/>
      </contour>
      <contour>
        <pt x="371" y="311" on="1"/>
        <pt x="25" y="311" on="1"/>
        <pt x="25" y="389" on="1"/>
        <pt x="371" y="389" on="1"/>
      </contour>
      <contour>
        <pt x="251" y="144" on="1"/>
        <pt x="145" y="144" on="1"/>
        <pt x="145" y="250" on="1"/>
        <pt x="251" y="250" on="1"/>
      </contour>
    </TTGlyph>
    <TTGlyph name="dollar" xMin="34" yMin="-45" xMax="362" yMax="745">
      <contour>
        <pt x="37" y="593" on="0"/>
        <pt x="96" y="680" on="0"/>
        <pt x="153" y="693" on="1"/>
        <pt x="153" y="745" on="1"/>
        <pt x="243" y="745" on="1"/>
        <pt x="243" y="693" on="1"/>
        <pt x="301" y="681" on="0"/>
        <pt x="361" y="594" on="0"/>
        <pt x="361" y="522" on="1"/>
        <pt x="361" y="500" on="1"/>
        <pt x="257" y="500" on="1"/>
        <pt x="257" y="529" on="1"/>
        <pt x="257" y="565" on="0"/>
        <pt x="229" y="598" on="0"/>
        <pt x="202" y="598" on="1"/>
        <pt x="175" y="598" on="0"/>
        <pt x="147" y="565" on="0"/>
        <pt x="147" y="529" on="1"/>
        <pt x="147" y="498" on="0"/>
        <pt x="172" y="449" on="0"/>
        <pt x="208" y="412" on="0"/>
        <pt x="241" y="385" on="1"/>
        <pt x="280" y="354" on="0"/>
        <pt x="328" y="303" on="0"/>
        <pt x="362" y="228" on="0"/>
        <pt x="362" y="178" on="1"/>
        <pt x="362" y="106" on="0"/>
        <pt x="301" y="18" on="0"/>
        <pt x="243" y="6" on="1"/>
        <pt x="243" y="-45" on="1"/>
        <pt x="153" y="-45" on="1"/>
        <pt x="153" y="6" on="1"/>
        <pt x="94" y="18" on="0"/>
        <pt x="34" y="106" on="0"/>
        <pt x="34" y="178" on="1"/>
        <pt x="34" y="226" on="1"/>
        <pt x="138" y="226" on="1"/>
        <pt x="138" y="171" on="1"/>
        <pt x="138" y="103" on="0"/>
        <pt x="195" y="103" on="1"/>
        <pt x="252" y="103" on="0"/>
        <pt x="252" y="171" on="1"/>
        <pt x="252" y="202" on="0"/>
        <pt x="227" y="251" on="0"/>
        <pt x="191" y="288" on="0"/>
        <pt x="158" y="315" on="1"/>
        <pt x="119" y="346" on="0"/>
        <pt x="71" y="397" on="0"/>
        <pt x="37" y="472" on="0"/>
        <pt x="37" y="522" on="1"/>
      </contour>
    </TTGlyph>
    <TTGlyph name="dotaccent" xMin="77" yMin="737" xMax="173" yMax="833">
      <contour>
        <pt x="173" y="737" on="1"/>
        <pt x="77" y="737" on="1"/>
        <pt x="77" y="833" on="1"/>
        <pt x="173" y="833" on="1"/>
      </contour>
    </TTGlyph>
    <TTGlyph name="dotlessi" xMin="40" yMin="0" xMax="150" yMax="700">
      <contour>
        <pt x="150" y="700" on="1"/>
        <pt x="150" y="0" on="1"/>
        <pt x="40" y="0" on="1"/>
        <pt x="40" y="700" on="1"/>
      </contour>
    </TTGlyph>
    <TTGlyph name="e" xMin="40" yMin="0" xMax="340" yMax="700">
      <contour>
        <pt x="301" y="405" on="1"/>
        <pt x="301" y="305" on="1"/>
        <pt x="150" y="305" on="1"/>
        <pt x="150" y="100" on="1"/>
        <pt x="340" y="100" on="1"/>
        <pt x="340" y="0" on="1"/>
        <pt x="40" y="0" on="1"/>
        <pt x="40" y="700" on="1"/>
        <pt x="340" y="700" on="1"/>
        <pt x="340" y="600" on="1"/>
        <pt x="150" y="600" on="1"/>
        <pt x="150" y="405" on="1"/>
      </contour>
    </TTGlyph>
    <TTGlyph name="eacute" xMin="40" yMin="0" xMax="340" yMax="848">
      <contour>
        <pt x="205" y="737" on="1"/>
        <pt x="131" y="737" on="1"/>
        <pt x="199" y="848" on="1"/>
        <pt x="307" y="848" on="1"/>
      </contour>
      <contour>
        <pt x="301" y="405" on="1"/>
        <pt x="301" y="305" on="1"/>
        <pt x="150" y="305" on="1"/>
        <pt x="150" y="100" on="1"/>
        <pt x="340" y="100" on="1"/>
        <pt x="340" y="0" on="1"/>
        <pt x="40" y="0" on="1"/>
        <pt x="40" y="700" on="1"/>
        <pt x="340" y="700" on="1"/>
        <pt x="340" y="600" on="1"/>
        <pt x="150" y="600" on="1"/>
        <pt x="150" y="405" on="1"/>
      </contour>
    </TTGlyph>
    <TTGlyph name="ebreve" xMin="40" yMin="0" xMax="340" yMax="848">
      <contour>
        <pt x="300" y="848" on="1"/>
        <pt x="300" y="794" on="0"/>
        <pt x="242" y="733" on="0"/>
        <pt x="187" y="733" on="1"/>
        <pt x="132" y="733" on="0"/>
        <pt x="77" y="794" on="0"/>
        <pt x="76" y="848" on="1"/>
        <pt x="141" y="848" on="1"/>
        <pt x="143" y="821" on="0"/>
        <pt x="165" y="801" on="0"/>
        <pt x="187" y="801" on="1"/>
        <pt x="210" y="801" on="0"/>
        <pt x="233" y="821" on="0"/>
        <pt x="235" y="848" on="1"/>
      </contour>
      <contour>
        <pt x="301" y="405" on="1"/>
        <pt x="301" y="305" on="1"/>
        <pt x="150" y="305" on="1"/>
        <pt x="150" y="100" on="1"/>
        <pt x="340" y="100" on="1"/>
        <pt x="340" y="0" on="1"/>
        <pt x="40" y="0" on="1"/>
        <pt x="40" y="700" on="1"/>
        <pt x="340" y="700" on="1"/>
        <pt x="340" y="600" on="1"/>
        <pt x="150" y="600" on="1"/>
        <pt x="150" y="405" on="1"/>
      </contour>
    </TTGlyph>
    <TTGlyph name="ecaron" xMin="40" yMin="0" xMax="340" yMax="848">
      <contour>
        <pt x="187" y="792" on="1"/>
        <pt x="232" y="848" on="1"/>
        <pt x="326" y="848" on="1"/>
        <pt x="237" y="737" on="1"/>
        <pt x="138" y="737" on="1"/>
        <pt x="49" y="848" on="1"/>
        <pt x="143" y="848" on="1"/>
      </contour>
      <contour>
        <pt x="301" y="405" on="1"/>
        <pt x="301" y="305" on="1"/>
        <pt x="150" y="305" on="1"/>
        <pt x="150" y="100" on="1"/>
        <pt x="340" y="100" on="1"/>
        <pt x="340" y="0" on="1"/>
        <pt x="40" y="0" on="1"/>
        <pt x="40" y="700" on="1"/>
        <pt x="340" y="700" on="1"/>
        <pt x="340" y="600" on="1"/>
        <pt x="150" y="600" on="1"/>
        <pt x="150" y="405" on="1"/>
      </contour>
    </TTGlyph>
    <TTGlyph name="ecircumflex" xMin="40" yMin="0" xMax="340" yMax="848">
      <contour>
        <pt x="139" y="848" on="1"/>
        <pt x="238" y="848" on="1"/>
        <pt x="327" y="737" on="1"/>
        <pt x="233" y="737" on="1"/>
        <pt x="188" y="792" on="1"/>
        <pt x="144" y="737" on="1"/>
        <pt x="50" y="737" on="1"/>
      </contour>
      <contour>
        <pt x="301" y="405" on="1"/>
        <pt x="301" y="305" on="1"/>
        <pt x="150" y="305" on="1"/>
        <pt x="150" y="100" on="1"/>
        <pt x="340" y="100" on="1"/>
        <pt x="340" y="0" on="1"/>
        <pt x="40" y="0" on="1"/>
        <pt x="40" y="700" on="1"/>
        <pt x="340" y="700" on="1"/>
        <pt x="340" y="600" on="1"/>
        <pt x="150" y="600" on="1"/>
        <pt x="150" y="405" on="1"/>
      </contour>
    </TTGlyph>
    <TTGlyph name="edieresis" xMin="40" yMin="0" xMax="340" yMax="833">
      <contour>
        <pt x="161" y="737" on="1"/>
        <pt x="65" y="737" on="1"/>
        <pt x="65" y="833" on="1"/>
        <pt x="161" y="833" on="1"/>
      </contour>
      <contour>
        <pt x="313" y="737" on="1"/>
        <pt x="217" y="737" on="1"/>
        <pt x="217" y="833" on="1"/>
        <pt x="313" y="833" on="1"/>
      </contour>
      <contour>
        <pt x="301" y="405" on="1"/>
        <pt x="301" y="305" on="1"/>
        <pt x="150" y="305" on="1"/>
        <pt x="150" y="100" on="1"/>
        <pt x="340" y="100" on="1"/>
        <pt x="340" y="0" on="1"/>
        <pt x="40" y="0" on="1"/>
        <pt x="40" y="700" on="1"/>
        <pt x="340" y="700" on="1"/>
        <pt x="340" y="600" on="1"/>
        <pt x="150" y="600" on="1"/>
        <pt x="150" y="405" on="1"/>
      </contour>
    </TTGlyph>
    <TTGlyph name="edotaccent" xMin="40" yMin="0" xMax="340" yMax="833">
      <contour>
        <pt x="236" y="737" on="1"/>
        <pt x="140" y="737" on="1"/>
        <pt x="140" y="833" on="1"/>
        <pt x="236" y="833" on="1"/>
      </contour>
      <contour>
        <pt x="301" y="405" on="1"/>
        <pt x="301" y="305" on="1"/>
        <pt x="150" y="305" on="1"/>
        <pt x="150" y="100" on="1"/>
        <pt x="340" y="100" on="1"/>
        <pt x="340" y="0" on="1"/>
        <pt x="40" y="0" on="1"/>
        <pt x="40" y="700" on="1"/>
        <pt x="340" y="700" on="1"/>
        <pt x="340" y="600" on="1"/>
        <pt x="150" y="600" on="1"/>
        <pt x="150" y="405" on="1"/>
      </contour>
    </TTGlyph>
    <TTGlyph name="egrave" xMin="40" yMin="0" xMax="340" yMax="848">
      <contour>
        <pt x="249" y="737" on="1"/>
        <pt x="170" y="737" on="1"/>
        <pt x="68" y="848" on="1"/>
        <pt x="181" y="848" on="1"/>
      </contour>
      <contour>
        <pt x="301" y="405" on="1"/>
        <pt x="301" y="305" on="1"/>
        <pt x="150" y="305" on="1"/>
        <pt x="150" y="100" on="1"/>
        <pt x="340" y="100" on="1"/>
        <pt x="340" y="0" on="1"/>
        <pt x="40" y="0" on="1"/>
        <pt x="40" y="700" on="1"/>
        <pt x="340" y="700" on="1"/>
        <pt x="340" y="600" on="1"/>
        <pt x="150" y="600" on="1"/>
        <pt x="150" y="405" on="1"/>
      </contour>
    </TTGlyph>
    <TTGlyph name="eight" xMin="26" yMin="-8" xMax="370" yMax="708">
      <contour>
        <pt x="370" y="84" on="0"/>
        <pt x="281" y="-8" on="0"/>
        <pt x="198" y="-8" on="1"/>
        <pt x="115" y="-8" on="0"/>
        <pt x="26" y="84" on="0"/>
        <pt x="26" y="168" on="1"/>
        <pt x="26" y="223" on="1"/>
        <pt x="26" y="331" on="0"/>
        <pt x="94" y="369" on="1"/>
        <pt x="26" y="406" on="0"/>
        <pt x="26" y="510" on="1"/>
        <pt x="26" y="532" on="1"/>
        <pt x="26" y="616" on="0"/>
        <pt x="115" y="708" on="0"/>
        <pt x="198" y="708" on="1"/>
        <pt x="281" y="708" on="0"/>
        <pt x="370" y="616" on="0"/>
        <pt x="370" y="532" on="1"/>
        <pt x="370" y="510" on="1"/>
        <pt x="370" y="407" on="0"/>
        <pt x="302" y="369" on="1"/>
        <pt x="370" y="331" on="0"/>
        <pt x="370" y="223" on="1"/>
        <pt x="370" y="168" on="1"/>
      </contour>
      <contour>
        <pt x="136" y="415" on="0"/>
        <pt x="198" y="415" on="1"/>
        <pt x="260" y="415" on="0"/>
        <pt x="260" y="489" on="1"/>
        <pt x="260" y="528" on="1"/>
        <pt x="260" y="572" on="0"/>
        <pt x="227" y="608" on="0"/>
        <pt x="198" y="608" on="1"/>
        <pt x="169" y="608" on="0"/>
        <pt x="136" y="572" on="0"/>
        <pt x="136" y="528" on="1"/>
        <pt x="136" y="489" on="1"/>
      </contour>
      <contour>
        <pt x="136" y="128" on="0"/>
        <pt x="169" y="92" on="0"/>
        <pt x="198" y="92" on="1"/>
        <pt x="227" y="92" on="0"/>
        <pt x="259" y="127" on="0"/>
        <pt x="260" y="171" on="1"/>
        <pt x="260" y="236" on="1"/>
        <pt x="260" y="315" on="0"/>
        <pt x="198" y="315" on="1"/>
        <pt x="136" y="315" on="0"/>
        <pt x="136" y="236" on="1"/>
        <pt x="136" y="171" on="1"/>
      </contour>
    </TTGlyph>
    <TTGlyph name="eight.alt" xMin="27" yMin="-8" xMax="371" yMax="708">
      <contour>
        <pt x="371" y="84" on="0"/>
        <pt x="282" y="-8" on="0"/>
        <pt x="199" y="-8" on="1"/>
        <pt x="116" y="-8" on="0"/>
        <pt x="27" y="84" on="0"/>
        <pt x="27" y="168" on="1"/>
        <pt x="27" y="223" on="1"/>
        <pt x="27" y="331" on="0"/>
        <pt x="95" y="369" on="1"/>
        <pt x="27" y="406" on="0"/>
        <pt x="27" y="510" on="1"/>
        <pt x="27" y="532" on="1"/>
        <pt x="27" y="616" on="0"/>
        <pt x="116" y="708" on="0"/>
        <pt x="199" y="708" on="1"/>
        <pt x="282" y="708" on="0"/>
        <pt x="371" y="616" on="0"/>
        <pt x="371" y="532" on="1"/>
        <pt x="371" y="510" on="1"/>
        <pt x="371" y="407" on="0"/>
        <pt x="303" y="369" on="1"/>
        <pt x="371" y="331" on="0"/>
        <pt x="371" y="223" on="1"/>
        <pt x="371" y="168" on="1"/>
      </contour>
      <contour>
        <pt x="137" y="415" on="0"/>
        <pt x="199" y="415" on="1"/>
        <pt x="261" y="415" on="0"/>
        <pt x="261" y="489" on="1"/>
        <pt x="261" y="528" on="1"/>
        <pt x="261" y="572" on="0"/>
        <pt x="228" y="608" on="0"/>
        <pt x="199" y="608" on="1"/>
        <pt x="170" y="608" on="0"/>
        <pt x="137" y="572" on="0"/>
        <pt x="137" y="528" on="1"/>
        <pt x="137" y="489" on="1"/>
      </contour>
      <contour>
        <pt x="137" y="128" on="0"/>
        <pt x="170" y="92" on="0"/>
        <pt x="199" y="92" on="1"/>
        <pt x="228" y="92" on="0"/>
        <pt x="260" y="127" on="0"/>
        <pt x="261" y="171" on="1"/>
        <pt x="261" y="236" on="1"/>
        <pt x="261" y="315" on="0"/>
        <pt x="199" y="315" on="1"/>
        <pt x="137" y="315" on="0"/>
        <pt x="137" y="236" on="1"/>
        <pt x="137" y="171" on="1"/>
      </contour>
    </TTGlyph>
    <TTGlyph name="ellipsis" xMin="40" yMin="0" xMax="438" yMax="106">
      <contour>
        <pt x="146" y="0" on="1"/>
        <pt x="40" y="0" on="1"/>
        <pt x="40" y="106" on="1"/>
        <pt x="146" y="106" on="1"/>
      </contour>
      <contour>
        <pt x="292" y="0" on="1"/>
        <pt x="186" y="0" on="1"/>
        <pt x="186" y="106" on="1"/>
        <pt x="292" y="106" on="1"/>
      </contour>
      <contour>
        <pt x="438" y="0" on="1"/>
        <pt x="332" y="0" on="1"/>
        <pt x="332" y="106" on="1"/>
        <pt x="438" y="106" on="1"/>
      </contour>
    </TTGlyph>
    <TTGlyph name="emacron" xMin="40" yMin="0" xMax="340" yMax="819">
      <contour>
        <pt x="303" y="741" on="1"/>
        <pt x="73" y="741" on="1"/>
        <pt x="73" y="819" on="1"/>
        <pt x="303" y="819" on="1"/>
      </contour>
      <contour>
        <pt x="301" y="405" on="1"/>
        <pt x="301" y="305" on="1"/>
        <pt x="150" y="305" on="1"/>
        <pt x="150" y="100" on="1"/>
        <pt x="340" y="100" on="1"/>
        <pt x="340" y="0" on="1"/>
        <pt x="40" y="0" on="1"/>
        <pt x="40" y="700" on="1"/>
        <pt x="340" y="700" on="1"/>
        <pt x="340" y="600" on="1"/>
        <pt x="150" y="600" on="1"/>
        <pt x="150" y="405" on="1"/>
      </contour>
    </TTGlyph>
    <TTGlyph name="emdash" xMin="0" yMin="305" xMax="1000" yMax="395">
      <contour>
        <pt x="1000" y="395" on="1"/>
        <pt x="1000" y="305" on="1"/>
        <pt x="0" y="305" on="1"/>
        <pt x="0" y="395" on="1"/>
      </contour>
    </TTGlyph>
    <TTGlyph name="endash" xMin="0" yMin="305" xMax="500" yMax="395">
      <contour>
        <pt x="500" y="395" on="1"/>
        <pt x="500" y="305" on="1"/>
        <pt x="0" y="305" on="1"/>
        <pt x="0" y="395" on="1"/>
      </contour>
    </TTGlyph>
    <TTGlyph name="eogonek" xMin="40" yMin="-147" xMax="340" yMax="700">
      <contour>
        <pt x="301" y="405" on="1"/>
        <pt x="301" y="305" on="1"/>
        <pt x="150" y="305" on="1"/>
        <pt x="150" y="100" on="1"/>
        <pt x="340" y="100" on="1"/>
        <pt x="340" y="0" on="1"/>
        <pt x="299" y="0" on="1"/>
        <pt x="269" y="-25" on="0"/>
        <pt x="269" y="-58" on="1"/>
        <pt x="269" y="-71" on="0"/>
        <pt x="289" y="-86" on="0"/>
        <pt x="304" y="-86" on="1"/>
        <pt x="320" y="-86" on="0"/>
        <pt x="337" y="-81" on="0"/>
        <pt x="340" y="-80" on="1"/>
        <pt x="340" y="-136" on="1"/>
        <pt x="323" y="-143" on="0"/>
        <pt x="294" y="-147" on="0"/>
        <pt x="272" y="-147" on="1"/>
        <pt x="231" y="-147" on="0"/>
        <pt x="185" y="-115" on="0"/>
        <pt x="185" y="-85" on="1"/>
        <pt x="185" y="-61" on="0"/>
        <pt x="219" y="-17" on="0"/>
        <pt x="252" y="0" on="1"/>
        <pt x="40" y="0" on="1"/>
        <pt x="40" y="700" on="1"/>
        <pt x="340" y="700" on="1"/>
        <pt x="340" y="600" on="1"/>
        <pt x="150" y="600" on="1"/>
        <pt x="150" y="405" on="1"/>
      </contour>
    </TTGlyph>
    <TTGlyph name="equal" xMin="35" yMin="230" xMax="361" yMax="470">
      <contour>
        <pt x="361" y="392" on="1"/>
        <pt x="35" y="392" on="1"/>
        <pt x="35" y="470" on="1"/>
        <pt x="361" y="470" on="1"/>
      </contour>
      <contour>
        <pt x="361" y="230" on="1"/>
        <pt x="35" y="230" on="1"/>
        <pt x="35" y="308" on="1"/>
        <pt x="361" y="308" on="1"/>
      </contour>
    </TTGlyph>
    <TTGlyph name="eth" xMin="4" yMin="0" xMax="378" yMax="700">
      <contour>
        <pt x="4" y="305" on="1"/>
        <pt x="4" y="395" on="1"/>
        <pt x="40" y="395" on="1"/>
        <pt x="40" y="700" on="1"/>
        <pt x="214" y="700" on="1"/>
        <pt x="296" y="700" on="0"/>
        <pt x="378" y="612" on="0"/>
        <pt x="378" y="527" on="1"/>
        <pt x="378" y="173" on="1"/>
        <pt x="378" y="88" on="0"/>
        <pt x="296" y="0" on="0"/>
        <pt x="214" y="0" on="1"/>
        <pt x="40" y="0" on="1"/>
        <pt x="40" y="305" on="1"/>
      </contour>
      <contour>
        <pt x="150" y="395" on="1"/>
        <pt x="218" y="395" on="1"/>
        <pt x="218" y="305" on="1"/>
        <pt x="150" y="305" on="1"/>
        <pt x="150" y="100" on="1"/>
        <pt x="212" y="100" on="1"/>
        <pt x="239" y="100" on="0"/>
        <pt x="268" y="132" on="0"/>
        <pt x="268" y="168" on="1"/>
        <pt x="268" y="532" on="1"/>
        <pt x="268" y="568" on="0"/>
        <pt x="239" y="600" on="0"/>
        <pt x="212" y="600" on="1"/>
        <pt x="150" y="600" on="1"/>
      </contour>
    </TTGlyph>
    <TTGlyph name="exclam" xMin="40" yMin="0" xMax="150" yMax="700">
      <contour>
        <pt x="40" y="408" on="1"/>
        <pt x="40" y="700" on="1"/>
        <pt x="150" y="700" on="1"/>
        <pt x="150" y="408" on="1"/>
        <pt x="136" y="155" on="1"/>
        <pt x="54" y="155" on="1"/>
      </contour>
      <contour>
        <pt x="148" y="0" on="1"/>
        <pt x="42" y="0" on="1"/>
        <pt x="42" y="106" on="1"/>
        <pt x="148" y="106" on="1"/>
      </contour>
    </TTGlyph>
    <TTGlyph name="exclamdown" xMin="40" yMin="0" xMax="150" yMax="700">
      <contour>
        <pt x="42" y="700" on="1"/>
        <pt x="148" y="700" on="1"/>
        <pt x="148" y="594" on="1"/>
        <pt x="42" y="594" on="1"/>
      </contour>
      <contour>
        <pt x="150" y="292" on="1"/>
        <pt x="150" y="0" on="1"/>
        <pt x="40" y="0" on="1"/>
        <pt x="40" y="292" on="1"/>
        <pt x="54" y="545" on="1"/>
        <pt x="136" y="545" on="1"/>
      </contour>
    </TTGlyph>
    <TTGlyph name="f" xMin="40" yMin="0" xMax="331" yMax="700">
      <contour>
        <pt x="292" y="389" on="1"/>
        <pt x="292" y="289" on="1"/>
        <pt x="150" y="289" on="1"/>
        <pt x="150" y="0" on="1"/>
        <pt x="40" y="0" on="1"/>
        <pt x="40" y="700" on="1"/>
        <pt x="331" y="700" on="1"/>
        <pt x="331" y="600" on="1"/>
        <pt x="150" y="600" on="1"/>
        <pt x="150" y="389" on="1"/>
      </contour>
    </TTGlyph>
    <TTGlyph name="figuredash" xMin="0" yMin="305" xMax="396" yMax="395">
      <contour>
        <pt x="396" y="395" on="1"/>
        <pt x="396" y="305" on="1"/>
        <pt x="0" y="305" on="1"/>
        <pt x="0" y="395" on="1"/>
      </contour>
    </TTGlyph>
    <TTGlyph name="five" xMin="35" yMin="-8" xMax="363" yMax="700">
      <contour>
        <pt x="139" y="161" on="1"/>
        <pt x="139" y="93" on="0"/>
        <pt x="196" y="93" on="1"/>
        <pt x="253" y="93" on="0"/>
        <pt x="253" y="161" on="1"/>
        <pt x="253" y="315" on="1"/>
        <pt x="253" y="384" on="0"/>
        <pt x="196" y="384" on="1"/>
        <pt x="139" y="384" on="0"/>
        <pt x="139" y="315" on="1"/>
        <pt x="139" y="294" on="1"/>
        <pt x="35" y="294" on="1"/>
        <pt x="55" y="700" on="1"/>
        <pt x="345" y="700" on="1"/>
        <pt x="345" y="600" on="1"/>
        <pt x="154" y="600" on="1"/>
        <pt x="145" y="433" on="1"/>
        <pt x="176" y="484" on="0"/>
        <pt x="241" y="484" on="1"/>
        <pt x="301" y="484" on="0"/>
        <pt x="363" y="402" on="0"/>
        <pt x="363" y="324" on="1"/>
        <pt x="363" y="168" on="1"/>
        <pt x="363" y="83" on="0"/>
        <pt x="279" y="-8" on="0"/>
        <pt x="199" y="-8" on="1"/>
        <pt x="119" y="-8" on="0"/>
        <pt x="35" y="83" on="0"/>
        <pt x="35" y="168" on="1"/>
        <pt x="35" y="226" on="1"/>
        <pt x="139" y="226" on="1"/>
      </contour>
    </TTGlyph>
    <TTGlyph name="five.alt" xMin="28" yMin="-8" xMax="356" yMax="700">
      <contour>
        <pt x="132" y="161" on="1"/>
        <pt x="132" y="93" on="0"/>
        <pt x="189" y="93" on="1"/>
        <pt x="246" y="93" on="0"/>
        <pt x="246" y="161" on="1"/>
        <pt x="246" y="315" on="1"/>
        <pt x="246" y="384" on="0"/>
        <pt x="189" y="384" on="1"/>
        <pt x="132" y="384" on="0"/>
        <pt x="132" y="315" on="1"/>
        <pt x="132" y="294" on="1"/>
        <pt x="28" y="294" on="1"/>
        <pt x="48" y="700" on="1"/>
        <pt x="338" y="700" on="1"/>
        <pt x="338" y="600" on="1"/>
        <pt x="147" y="600" on="1"/>
        <pt x="138" y="433" on="1"/>
        <pt x="169" y="484" on="0"/>
        <pt x="234" y="484" on="1"/>
        <pt x="294" y="484" on="0"/>
        <pt x="356" y="402" on="0"/>
        <pt x="356" y="324" on="1"/>
        <pt x="356" y="168" on="1"/>
        <pt x="356" y="83" on="0"/>
        <pt x="272" y="-8" on="0"/>
        <pt x="192" y="-8" on="1"/>
        <pt x="112" y="-8" on="0"/>
        <pt x="28" y="83" on="0"/>
        <pt x="28" y="168" on="1"/>
        <pt x="28" y="226" on="1"/>
        <pt x="132" y="226" on="1"/>
      </contour>
    </TTGlyph>
    <TTGlyph name="fiveeighths" xMin="37" yMin="-5" xMax="596" yMax="700">
      <contour>
        <pt x="484" y="700" on="1"/>
        <pt x="208" y="0" on="1"/>
        <pt x="143" y="0" on="1"/>
        <pt x="419" y="700" on="1"/>
      </contour>
      <contour>
        <pt x="103" y="357" on="1"/>
        <pt x="103" y="314" on="0"/>
        <pt x="139" y="314" on="1"/>
        <pt x="175" y="314" on="0"/>
        <pt x="175" y="357" on="1"/>
        <pt x="175" y="454" on="1"/>
        <pt x="175" y="498" on="0"/>
        <pt x="139" y="498" on="1"/>
        <pt x="103" y="498" on="0"/>
        <pt x="103" y="454" on="1"/>
        <pt x="103" y="441" on="1"/>
        <pt x="37" y="441" on="1"/>
        <pt x="50" y="699" on="1"/>
        <pt x="234" y="699" on="1"/>
        <pt x="234" y="635" on="1"/>
        <pt x="112" y="635" on="1"/>
        <pt x="107" y="529" on="1"/>
        <pt x="126" y="562" on="0"/>
        <pt x="168" y="562" on="1"/>
        <pt x="206" y="562" on="0"/>
        <pt x="245" y="509" on="0"/>
        <pt x="245" y="460" on="1"/>
        <pt x="245" y="361" on="1"/>
        <pt x="245" y="307" on="0"/>
        <pt x="192" y="249" on="0"/>
        <pt x="141" y="249" on="1"/>
        <pt x="90" y="249" on="0"/>
        <pt x="37" y="307" on="0"/>
        <pt x="37" y="361" on="1"/>
        <pt x="37" y="398" on="1"/>
        <pt x="103" y="398" on="1"/>
      </contour>
      <contour>
        <pt x="596" y="54" on="0"/>
        <pt x="539" y="-5" on="0"/>
        <pt x="487" y="-5" on="1"/>
        <pt x="435" y="-5" on="0"/>
        <pt x="378" y="54" on="0"/>
        <pt x="378" y="107" on="1"/>
        <pt x="378" y="141" on="1"/>
        <pt x="378" y="210" on="0"/>
        <pt x="421" y="234" on="1"/>
        <pt x="378" y="258" on="0"/>
        <pt x="378" y="323" on="1"/>
        <pt x="378" y="337" on="1"/>
        <pt x="378" y="390" on="0"/>
        <pt x="435" y="449" on="0"/>
        <pt x="487" y="449" on="1"/>
        <pt x="539" y="449" on="0"/>
        <pt x="596" y="390" on="0"/>
        <pt x="596" y="337" on="1"/>
        <pt x="596" y="323" on="1"/>
        <pt x="596" y="258" on="0"/>
        <pt x="553" y="234" on="1"/>
        <pt x="596" y="210" on="0"/>
        <pt x="596" y="141" on="1"/>
        <pt x="596" y="107" on="1"/>
      </contour>
      <contour>
        <pt x="448" y="263" on="0"/>
        <pt x="487" y="263" on="1"/>
        <pt x="526" y="263" on="0"/>
        <pt x="526" y="310" on="1"/>
        <pt x="526" y="335" on="1"/>
        <pt x="526" y="386" on="0"/>
        <pt x="487" y="386" on="1"/>
        <pt x="448" y="386" on="0"/>
        <pt x="448" y="335" on="1"/>
        <pt x="448" y="310" on="1"/>
      </contour>
      <contour>
        <pt x="448" y="58" on="0"/>
        <pt x="487" y="58" on="1"/>
        <pt x="526" y="58" on="0"/>
        <pt x="526" y="108" on="1"/>
        <pt x="526" y="150" on="1"/>
        <pt x="526" y="200" on="0"/>
        <pt x="487" y="200" on="1"/>
        <pt x="448" y="200" on="0"/>
        <pt x="448" y="150" on="1"/>
        <pt x="448" y="108" on="1"/>
      </contour>
    </TTGlyph>
    <TTGlyph name="four" xMin="14" yMin="0" xMax="386" yMax="700">
      <contour>
        <pt x="214" y="700" on="1"/>
        <pt x="334" y="700" on="1"/>
        <pt x="334" y="227" on="1"/>
        <pt x="386" y="227" on="1"/>
        <pt x="386" y="127" on="1"/>
        <pt x="334" y="127" on="1"/>
        <pt x="334" y="0" on="1"/>
        <pt x="226" y="0" on="1"/>
        <pt x="226" y="127" on="1"/>
        <pt x="14" y="127" on="1"/>
        <pt x="14" y="227" on="1"/>
      </contour>
      <contour>
        <pt x="226" y="490" on="1"/>
        <pt x="115" y="227" on="1"/>
        <pt x="226" y="227" on="1"/>
      </contour>
    </TTGlyph>
    <TTGlyph name="four.alt" xMin="14" yMin="0" xMax="386" yMax="700">
      <contour>
        <pt x="214" y="700" on="1"/>
        <pt x="334" y="700" on="1"/>
        <pt x="334" y="227" on="1"/>
        <pt x="386" y="227" on="1"/>
        <pt x="386" y="127" on="1"/>
        <pt x="334" y="127" on="1"/>
        <pt x="334" y="0" on="1"/>
        <pt x="224" y="0" on="1"/>
        <pt x="224" y="127" on="1"/>
        <pt x="14" y="127" on="1"/>
        <pt x="14" y="227" on="1"/>
      </contour>
      <contour>
        <pt x="224" y="486" on="1"/>
        <pt x="115" y="227" on="1"/>
        <pt x="224" y="227" on="1"/>
      </contour>
    </TTGlyph>
    <TTGlyph name="fraction" xMin="-137" yMin="0" xMax="204" yMax="700">
      <contour>
        <pt x="204" y="700" on="1"/>
        <pt x="-72" y="0" on="1"/>
        <pt x="-137" y="0" on="1"/>
        <pt x="139" y="700" on="1"/>
      </contour>
    </TTGlyph>
</ttFont>
